<mxfile host="app.diagrams.net" modified="2022-04-17T14:18:11.302Z" agent="5.0 (Windows NT 10.0; Win64; x64) AppleWebKit/537.36 (KHTML, like Gecko) Chrome/100.0.4896.127 Safari/537.36" etag="0Fxc-b-3TjiPAoHka5id" version="17.4.5" type="github">
  <diagram id="PFOG4JciI9vVJjlZ7ykW" name="Page-1">
    <mxGraphModel dx="1422" dy="705" grid="1" gridSize="10" guides="1" tooltips="1" connect="1" arrows="1" fold="1" page="1" pageScale="1" pageWidth="850" pageHeight="1100" math="0" shadow="0">
      <root>
        <mxCell id="0" />
        <mxCell id="1" parent="0" />
        <mxCell id="RSznJ-GNL0sqVoyYkRlf-66" value="" style="rounded=0;whiteSpace=wrap;html=1;fontSize=11;rotation=-90;fillColor=#f8cecc;strokeColor=#b85450;" vertex="1" parent="1">
          <mxGeometry x="410.68" y="192.95" width="557.75" height="276.37" as="geometry" />
        </mxCell>
        <mxCell id="RSznJ-GNL0sqVoyYkRlf-65" value="" style="rounded=0;whiteSpace=wrap;html=1;fontSize=11;rotation=-90;fillColor=#dae8fc;strokeColor=#6c8ebf;" vertex="1" parent="1">
          <mxGeometry x="-116.62" y="203.63" width="557.75" height="255" as="geometry" />
        </mxCell>
        <mxCell id="RSznJ-GNL0sqVoyYkRlf-17" value="" style="rounded=0;whiteSpace=wrap;html=1;rotation=90;fillColor=#d5e8d4;strokeColor=#82b366;" vertex="1" parent="1">
          <mxGeometry x="221.07" y="255.7" width="385.38" height="101.5" as="geometry" />
        </mxCell>
        <mxCell id="RSznJ-GNL0sqVoyYkRlf-1" value="" style="shape=image;verticalLabelPosition=bottom;labelBackgroundColor=#ffffff;verticalAlign=top;aspect=fixed;imageAspect=0;image=data:image/svg+xml,PHN2ZyB4bWxuczpjYz0iaHR0cDovL2NyZWF0aXZlY29tbW9ucy5vcmcvbnMjIiB4bWxuczpkYz0iaHR0cDovL3B1cmwub3JnL2RjL2VsZW1lbnRzLzEuMS8iIHhtbG5zOmlua3NjYXBlPSJodHRwOi8vd3d3Lmlua3NjYXBlLm9yZy9uYW1lc3BhY2VzL2lua3NjYXBlIiB4bWxuczpyZGY9Imh0dHA6Ly93d3cudzMub3JnLzE5OTkvMDIvMjItcmRmLXN5bnRheC1ucyMiIHhtbG5zOnNvZGlwb2RpPSJodHRwOi8vc29kaXBvZGkuc291cmNlZm9yZ2UubmV0L0RURC9zb2RpcG9kaS0wLmR0ZCIgeG1sbnM6c3ZnPSJodHRwOi8vd3d3LnczLm9yZy8yMDAwL3N2ZyIgeG1sbnM9Imh0dHA6Ly93d3cudzMub3JnLzIwMDAvc3ZnIiB4bWxuczp4bGluaz0iaHR0cDovL3d3dy53My5vcmcvMTk5OS94bGluayIgdmVyc2lvbj0iMS4xIiBpZD0ic3ZnNjA4MDMiIGlua3NjYXBlOnZlcnNpb249IjAuOTIuMyAoMjQwNTU0NiwgMjAxOC0wMy0xMSkiIHNvZGlwb2RpOmRvY25hbWU9ImF6dXJlX3BvcnRhbF9yZXNvdXJjZV9ncm91cHMuc3ZnIiB4PSIwcHgiIHk9IjBweCIgdmlld0JveD0iMCAwIDMwLjczIDI1LjgzIiBzdHlsZT0iZW5hYmxlLWJhY2tncm91bmQ6bmV3IDAgMCAzMC43MyAyNS44MzsiIHhtbDpzcGFjZT0icHJlc2VydmUiPiYjeGE7PHNvZGlwb2RpOm5hbWVkdmlldyBib3JkZXJjb2xvcj0iIzY2NjY2NiIgYm9yZGVyb3BhY2l0eT0iMSIgZml0LW1hcmdpbi1ib3R0b209IjAiIGZpdC1tYXJnaW4tbGVmdD0iMCIgZml0LW1hcmdpbi1yaWdodD0iMCIgZml0LW1hcmdpbi10b3A9IjAiIGdyaWR0b2xlcmFuY2U9IjEwIiBndWlkZXRvbGVyYW5jZT0iMTAiIGlkPSJuYW1lZHZpZXc2MDgwNSIgaW5rc2NhcGU6Y3VycmVudC1sYXllcj0ic3ZnNjA4MDMiIGlua3NjYXBlOmN4PSIxMi40OTE3MjQiIGlua3NjYXBlOmN5PSIxNi45Mjk2NTQiIGlua3NjYXBlOnBhZ2VvcGFjaXR5PSIwIiBpbmtzY2FwZTpwYWdlc2hhZG93PSIyIiBpbmtzY2FwZTp3aW5kb3ctaGVpZ2h0PSIxMDE3IiBpbmtzY2FwZTp3aW5kb3ctbWF4aW1pemVkPSIxIiBpbmtzY2FwZTp3aW5kb3ctd2lkdGg9IjE5MjAiIGlua3NjYXBlOndpbmRvdy14PSItOCIgaW5rc2NhcGU6d2luZG93LXk9Ii04IiBpbmtzY2FwZTp6b29tPSIxNy43OTg0MjciIG9iamVjdHRvbGVyYW5jZT0iMTAiIHBhZ2Vjb2xvcj0iI2ZmZmZmZiIgc2hvd2dyaWQ9ImZhbHNlIj4mI3hhOwk8L3NvZGlwb2RpOm5hbWVkdmlldz4mI3hhOzxnIGlkPSJnNjA4MDEiIHRyYW5zZm9ybT0idHJhbnNsYXRlKDAsLTMuNzk1ODg0NmUtNSkiPiYjeGE7CTx0aXRsZSBpZD0idGl0bGU2MDc3MSI+UGFnZS0xPC90aXRsZT4mI3hhOwk8ZyBpZD0iZ3JvdXA0MzAyLTEiPiYjeGE7CQk8dGl0bGUgaWQ9InRpdGxlNjA3NzMiPkF6dXJlIFBvcnRhbCAtIFJlc291cmNlIGdyb3VwczwvdGl0bGU+JiN4YTsJCTxnIGlkPSJzaGFwZTQzMDMtMiIgdHJhbnNmb3JtPSJ0cmFuc2xhdGUoNy41MDg3LC0xMy44NTYxKSI+JiN4YTsJCQk8dGl0bGUgaWQ9InRpdGxlNjA3NzUiPlNoZWV0LjQzMDM8L3RpdGxlPiYjeGE7CQkJPHBhdGggaWQ9InBhdGg2MDc3NyIgaW5rc2NhcGU6Y29ubmVjdG9yLWN1cnZhdHVyZT0iMCIgc3R5bGU9ImZpbGw6IzAwNzVDOTsiIGQ9Ik03LjksMjUuODNjLTAuMDQsMC0wLjA3LDAtMC4xMSwwICAgICBjLTcuNjYtNC4zNy03LjY2LTQuMzctNy42Ni00LjM3QzAuMDQsMjEuNDIsMCwyMS4zNCwwLDIxLjI1YzAtMC4wNywwLjA0LTAuMTQsMC4xMy0wLjE5YzcuNTctNC4zNCw3LjU3LTQuMzQsNy41Ny00LjM0ICAgICBjMC4wOS0wLjA1LDAuMTYtMC4wNSwwLjI1LDBjNy42NSw0LjM5LDcuNjUsNC4zOSw3LjY1LDQuMzljMC4wOSwwLjAzLDAuMTIsMC4xMSwwLjEyLDAuMTljMCwwLjA5LTAuMDMsMC4xNi0wLjEyLDAuMiAgICAgYy03LjYxLDQuMzMtNy42MSw0LjMzLTcuNjEsNC4zM0M3Ljk1LDI1LjgzLDcuOTUsMjUuODMsNy45LDI1LjgzeiIvPiYjeGE7CQk8L2c+JiN4YTsJCTxnIGlkPSJzaGFwZTQzMDQtNCIgdHJhbnNmb3JtPSJ0cmFuc2xhdGUoNi4zMzU0NywtMy4wNTMwNSkiPiYjeGE7CQkJPHRpdGxlIGlkPSJ0aXRsZTYwNzgwIj5TaGVldC40MzA0PC90aXRsZT4mI3hhOwkJCTxwYXRoIGlkPSJwYXRoNjA3ODIiIGlua3NjYXBlOmNvbm5lY3Rvci1jdXJ2YXR1cmU9IjAiIHN0eWxlPSJmaWxsOiMwMEFFRUY7IiBkPSJNNy45OCwyNS44M2MtMC4wNSwwLTAuMDktMC4wMy0wLjEzLTAuMDMgICAgIGMtNy43Mi00LjM3LTcuNzItNC4zNy03LjcyLTQuMzdDMC4wNCwyMS40LDAsMjEuMzEsMCwyMS4yNGMwLTguNzgsMC04Ljc4LDAtOC43OGMwLTAuMDksMC4wNC0wLjE2LDAuMTMtMC4yICAgICBjMC4wOC0wLjA1LDAuMTYtMC4wNSwwLjI1LDBjNy43Miw0LjM3LDcuNzIsNC4zNyw3LjcyLDQuMzdjMC4wOCwwLjAzLDAuMTEsMC4xMiwwLjExLDAuMTljMCw4Ljc4LDAsOC43OCwwLDguNzggICAgIGMwLDAuMDktMC4wMywwLjE2LTAuMTEsMC4yQzguMDUsMjUuOCw4LjAyLDI1LjgzLDcuOTgsMjUuODN6Ii8+JiN4YTsJCTwvZz4mI3hhOwkJPGcgaWQ9InNoYXBlNDMwNS02IiB0cmFuc2Zvcm09InRyYW5zbGF0ZSgxNi4xOTA2LC0zLjA1MzA1KSI+JiN4YTsJCQk8dGl0bGUgaWQ9InRpdGxlNjA3ODUiPlNoZWV0LjQzMDU8L3RpdGxlPiYjeGE7CQkJPHBhdGggaWQ9InBhdGg2MDc4NyIgaW5rc2NhcGU6Y29ubmVjdG9yLWN1cnZhdHVyZT0iMCIgc3R5bGU9ImZpbGw6IzJCQUFFMTsiIGQ9Ik0wLjI1LDI1LjgzYy0wLjA0LDAtMC4wNy0wLjAzLTAuMTItMC4wMyAgICAgQzAuMDQsMjUuNzYsMCwyNS42OSwwLDI1LjZjMC04Ljc2LDAtOC43NiwwLTguNzZjMC0wLjA4LDAuMDQtMC4xNywwLjEzLTAuMmM3LjcyLTQuMzgsNy43Mi00LjM4LDcuNzItNC4zOCAgICAgYzAuMDgtMC4wNSwwLjE3LTAuMDUsMC4yNSwwYzAuMDQsMC4wNCwwLjExLDAuMTEsMC4xMSwwLjJjMCw4Ljc2LDAsOC43NiwwLDguNzZjMCwwLjA4LTAuMDcsMC4xNy0wLjExLDAuMiAgICAgQzAuMzgsMjUuOCwwLjM4LDI1LjgsMC4zOCwyNS44QzAuMzQsMjUuOCwwLjI5LDI1LjgzLDAuMjUsMjUuODN6Ii8+JiN4YTsJCTwvZz4mI3hhOwkJPGcgaWQ9InNoYXBlNDMwNi04IiB0cmFuc2Zvcm09InRyYW5zbGF0ZSgyMy40NjQ3KSI+JiN4YTsJCQk8dGl0bGUgaWQ9InRpdGxlNjA3OTAiPlNoZWV0LjQzMDY8L3RpdGxlPiYjeGE7CQkJPHBhdGggaWQ9InBhdGg2MDc5MiIgaW5rc2NhcGU6Y29ubmVjdG9yLWN1cnZhdHVyZT0iMCIgc3R5bGU9ImZpbGw6IzkzOTU5ODsiIGQ9Ik00LjQ3LDBDMCwwLDAsMCwwLDBjMCwxLjI2LDAsMS4yNiwwLDEuMjYgICAgIGM0LjQ3LDAsNC40NywwLDQuNDcsMGMwLjg3LDAsMS41OSwwLjcyLDEuNTksMS41N2MwLDIwLjE5LDAsMjAuMTksMCwyMC4xOWMwLDAuODgtMC43MiwxLjU3LTEuNTksMS41N2MtNC40NywwLTQuNDcsMC00LjQ3LDAgICAgIGMwLDEuMjQsMCwxLjI0LDAsMS4yNGM0LjQ3LDAsNC40NywwLDQuNDcsMGMxLjU0LDAsMi44LTEuMjQsMi44LTIuODFjMC0yMC4xOSwwLTIwLjE5LDAtMjAuMTlDNy4yNywxLjMxLDYuMDEsMCw0LjQ3LDB6Ii8+JiN4YTsJCTwvZz4mI3hhOwkJPGcgaWQ9InNoYXBlNDMwNy0xMCI+JiN4YTsJCQk8dGl0bGUgaWQ9InRpdGxlNjA3OTUiPlNoZWV0LjQzMDc8L3RpdGxlPiYjeGE7CQkJPHBhdGggaWQ9InBhdGg2MDc5NyIgaW5rc2NhcGU6Y29ubmVjdG9yLWN1cnZhdHVyZT0iMCIgc3R5bGU9ImZpbGw6IzkzOTU5ODsiIGQ9Ik0yLjgyLDI0LjU5Yy0wLjg3LDAtMS41OS0wLjY5LTEuNTktMS41NyAgICAgYzAtMjAuMTksMC0yMC4xOSwwLTIwLjE5YzAtMC44NSwwLjcyLTEuNTcsMS41OS0xLjU3YzQuNDUsMCw0LjQ1LDAsNC40NSwwYzAtMS4yNiwwLTEuMjYsMC0xLjI2QzIuODIsMCwyLjgyLDAsMi44MiwwICAgICBDMS4yOCwwLDAsMS4zMSwwLDIuODNjMCwyMC4xOSwwLDIwLjE5LDAsMjAuMTljMCwxLjU3LDEuMjgsMi44MSwyLjgyLDIuODFjNC40NSwwLDQuNDUsMCw0LjQ1LDBjMC0xLjI0LDAtMS4yNCwwLTEuMjRIMi44MnoiLz4mI3hhOwkJPC9nPiYjeGE7CTwvZz4mI3hhOzwvZz4mI3hhOzwvc3ZnPg==;" vertex="1" parent="1">
          <mxGeometry x="129.7500000000001" y="104" width="31" height="26" as="geometry" />
        </mxCell>
        <mxCell id="RSznJ-GNL0sqVoyYkRlf-2" value="" style="shape=image;verticalLabelPosition=bottom;labelBackgroundColor=#ffffff;verticalAlign=top;aspect=fixed;imageAspect=0;image=data:image/svg+xml,PHN2ZyB4bWxuczpjYz0iaHR0cDovL2NyZWF0aXZlY29tbW9ucy5vcmcvbnMjIiB4bWxuczpkYz0iaHR0cDovL3B1cmwub3JnL2RjL2VsZW1lbnRzLzEuMS8iIHhtbG5zOmlua3NjYXBlPSJodHRwOi8vd3d3Lmlua3NjYXBlLm9yZy9uYW1lc3BhY2VzL2lua3NjYXBlIiB4bWxuczpyZGY9Imh0dHA6Ly93d3cudzMub3JnLzE5OTkvMDIvMjItcmRmLXN5bnRheC1ucyMiIHhtbG5zOnNvZGlwb2RpPSJodHRwOi8vc29kaXBvZGkuc291cmNlZm9yZ2UubmV0L0RURC9zb2RpcG9kaS0wLmR0ZCIgeG1sbnM6c3ZnPSJodHRwOi8vd3d3LnczLm9yZy8yMDAwL3N2ZyIgeG1sbnM9Imh0dHA6Ly93d3cudzMub3JnLzIwMDAvc3ZnIiB4bWxuczp4bGluaz0iaHR0cDovL3d3dy53My5vcmcvMTk5OS94bGluayIgdmVyc2lvbj0iMS4xIiBpZD0ic3ZnNjA4MDMiIGlua3NjYXBlOnZlcnNpb249IjAuOTIuMyAoMjQwNTU0NiwgMjAxOC0wMy0xMSkiIHNvZGlwb2RpOmRvY25hbWU9ImF6dXJlX3BvcnRhbF9yZXNvdXJjZV9ncm91cHMuc3ZnIiB4PSIwcHgiIHk9IjBweCIgdmlld0JveD0iMCAwIDMwLjczIDI1LjgzIiBzdHlsZT0iZW5hYmxlLWJhY2tncm91bmQ6bmV3IDAgMCAzMC43MyAyNS44MzsiIHhtbDpzcGFjZT0icHJlc2VydmUiPiYjeGE7PHNvZGlwb2RpOm5hbWVkdmlldyBib3JkZXJjb2xvcj0iIzY2NjY2NiIgYm9yZGVyb3BhY2l0eT0iMSIgZml0LW1hcmdpbi1ib3R0b209IjAiIGZpdC1tYXJnaW4tbGVmdD0iMCIgZml0LW1hcmdpbi1yaWdodD0iMCIgZml0LW1hcmdpbi10b3A9IjAiIGdyaWR0b2xlcmFuY2U9IjEwIiBndWlkZXRvbGVyYW5jZT0iMTAiIGlkPSJuYW1lZHZpZXc2MDgwNSIgaW5rc2NhcGU6Y3VycmVudC1sYXllcj0ic3ZnNjA4MDMiIGlua3NjYXBlOmN4PSIxMi40OTE3MjQiIGlua3NjYXBlOmN5PSIxNi45Mjk2NTQiIGlua3NjYXBlOnBhZ2VvcGFjaXR5PSIwIiBpbmtzY2FwZTpwYWdlc2hhZG93PSIyIiBpbmtzY2FwZTp3aW5kb3ctaGVpZ2h0PSIxMDE3IiBpbmtzY2FwZTp3aW5kb3ctbWF4aW1pemVkPSIxIiBpbmtzY2FwZTp3aW5kb3ctd2lkdGg9IjE5MjAiIGlua3NjYXBlOndpbmRvdy14PSItOCIgaW5rc2NhcGU6d2luZG93LXk9Ii04IiBpbmtzY2FwZTp6b29tPSIxNy43OTg0MjciIG9iamVjdHRvbGVyYW5jZT0iMTAiIHBhZ2Vjb2xvcj0iI2ZmZmZmZiIgc2hvd2dyaWQ9ImZhbHNlIj4mI3hhOwk8L3NvZGlwb2RpOm5hbWVkdmlldz4mI3hhOzxnIGlkPSJnNjA4MDEiIHRyYW5zZm9ybT0idHJhbnNsYXRlKDAsLTMuNzk1ODg0NmUtNSkiPiYjeGE7CTx0aXRsZSBpZD0idGl0bGU2MDc3MSI+UGFnZS0xPC90aXRsZT4mI3hhOwk8ZyBpZD0iZ3JvdXA0MzAyLTEiPiYjeGE7CQk8dGl0bGUgaWQ9InRpdGxlNjA3NzMiPkF6dXJlIFBvcnRhbCAtIFJlc291cmNlIGdyb3VwczwvdGl0bGU+JiN4YTsJCTxnIGlkPSJzaGFwZTQzMDMtMiIgdHJhbnNmb3JtPSJ0cmFuc2xhdGUoNy41MDg3LC0xMy44NTYxKSI+JiN4YTsJCQk8dGl0bGUgaWQ9InRpdGxlNjA3NzUiPlNoZWV0LjQzMDM8L3RpdGxlPiYjeGE7CQkJPHBhdGggaWQ9InBhdGg2MDc3NyIgaW5rc2NhcGU6Y29ubmVjdG9yLWN1cnZhdHVyZT0iMCIgc3R5bGU9ImZpbGw6IzAwNzVDOTsiIGQ9Ik03LjksMjUuODNjLTAuMDQsMC0wLjA3LDAtMC4xMSwwICAgICBjLTcuNjYtNC4zNy03LjY2LTQuMzctNy42Ni00LjM3QzAuMDQsMjEuNDIsMCwyMS4zNCwwLDIxLjI1YzAtMC4wNywwLjA0LTAuMTQsMC4xMy0wLjE5YzcuNTctNC4zNCw3LjU3LTQuMzQsNy41Ny00LjM0ICAgICBjMC4wOS0wLjA1LDAuMTYtMC4wNSwwLjI1LDBjNy42NSw0LjM5LDcuNjUsNC4zOSw3LjY1LDQuMzljMC4wOSwwLjAzLDAuMTIsMC4xMSwwLjEyLDAuMTljMCwwLjA5LTAuMDMsMC4xNi0wLjEyLDAuMiAgICAgYy03LjYxLDQuMzMtNy42MSw0LjMzLTcuNjEsNC4zM0M3Ljk1LDI1LjgzLDcuOTUsMjUuODMsNy45LDI1LjgzeiIvPiYjeGE7CQk8L2c+JiN4YTsJCTxnIGlkPSJzaGFwZTQzMDQtNCIgdHJhbnNmb3JtPSJ0cmFuc2xhdGUoNi4zMzU0NywtMy4wNTMwNSkiPiYjeGE7CQkJPHRpdGxlIGlkPSJ0aXRsZTYwNzgwIj5TaGVldC40MzA0PC90aXRsZT4mI3hhOwkJCTxwYXRoIGlkPSJwYXRoNjA3ODIiIGlua3NjYXBlOmNvbm5lY3Rvci1jdXJ2YXR1cmU9IjAiIHN0eWxlPSJmaWxsOiMwMEFFRUY7IiBkPSJNNy45OCwyNS44M2MtMC4wNSwwLTAuMDktMC4wMy0wLjEzLTAuMDMgICAgIGMtNy43Mi00LjM3LTcuNzItNC4zNy03LjcyLTQuMzdDMC4wNCwyMS40LDAsMjEuMzEsMCwyMS4yNGMwLTguNzgsMC04Ljc4LDAtOC43OGMwLTAuMDksMC4wNC0wLjE2LDAuMTMtMC4yICAgICBjMC4wOC0wLjA1LDAuMTYtMC4wNSwwLjI1LDBjNy43Miw0LjM3LDcuNzIsNC4zNyw3LjcyLDQuMzdjMC4wOCwwLjAzLDAuMTEsMC4xMiwwLjExLDAuMTljMCw4Ljc4LDAsOC43OCwwLDguNzggICAgIGMwLDAuMDktMC4wMywwLjE2LTAuMTEsMC4yQzguMDUsMjUuOCw4LjAyLDI1LjgzLDcuOTgsMjUuODN6Ii8+JiN4YTsJCTwvZz4mI3hhOwkJPGcgaWQ9InNoYXBlNDMwNS02IiB0cmFuc2Zvcm09InRyYW5zbGF0ZSgxNi4xOTA2LC0zLjA1MzA1KSI+JiN4YTsJCQk8dGl0bGUgaWQ9InRpdGxlNjA3ODUiPlNoZWV0LjQzMDU8L3RpdGxlPiYjeGE7CQkJPHBhdGggaWQ9InBhdGg2MDc4NyIgaW5rc2NhcGU6Y29ubmVjdG9yLWN1cnZhdHVyZT0iMCIgc3R5bGU9ImZpbGw6IzJCQUFFMTsiIGQ9Ik0wLjI1LDI1LjgzYy0wLjA0LDAtMC4wNy0wLjAzLTAuMTItMC4wMyAgICAgQzAuMDQsMjUuNzYsMCwyNS42OSwwLDI1LjZjMC04Ljc2LDAtOC43NiwwLTguNzZjMC0wLjA4LDAuMDQtMC4xNywwLjEzLTAuMmM3LjcyLTQuMzgsNy43Mi00LjM4LDcuNzItNC4zOCAgICAgYzAuMDgtMC4wNSwwLjE3LTAuMDUsMC4yNSwwYzAuMDQsMC4wNCwwLjExLDAuMTEsMC4xMSwwLjJjMCw4Ljc2LDAsOC43NiwwLDguNzZjMCwwLjA4LTAuMDcsMC4xNy0wLjExLDAuMiAgICAgQzAuMzgsMjUuOCwwLjM4LDI1LjgsMC4zOCwyNS44QzAuMzQsMjUuOCwwLjI5LDI1LjgzLDAuMjUsMjUuODN6Ii8+JiN4YTsJCTwvZz4mI3hhOwkJPGcgaWQ9InNoYXBlNDMwNi04IiB0cmFuc2Zvcm09InRyYW5zbGF0ZSgyMy40NjQ3KSI+JiN4YTsJCQk8dGl0bGUgaWQ9InRpdGxlNjA3OTAiPlNoZWV0LjQzMDY8L3RpdGxlPiYjeGE7CQkJPHBhdGggaWQ9InBhdGg2MDc5MiIgaW5rc2NhcGU6Y29ubmVjdG9yLWN1cnZhdHVyZT0iMCIgc3R5bGU9ImZpbGw6IzkzOTU5ODsiIGQ9Ik00LjQ3LDBDMCwwLDAsMCwwLDBjMCwxLjI2LDAsMS4yNiwwLDEuMjYgICAgIGM0LjQ3LDAsNC40NywwLDQuNDcsMGMwLjg3LDAsMS41OSwwLjcyLDEuNTksMS41N2MwLDIwLjE5LDAsMjAuMTksMCwyMC4xOWMwLDAuODgtMC43MiwxLjU3LTEuNTksMS41N2MtNC40NywwLTQuNDcsMC00LjQ3LDAgICAgIGMwLDEuMjQsMCwxLjI0LDAsMS4yNGM0LjQ3LDAsNC40NywwLDQuNDcsMGMxLjU0LDAsMi44LTEuMjQsMi44LTIuODFjMC0yMC4xOSwwLTIwLjE5LDAtMjAuMTlDNy4yNywxLjMxLDYuMDEsMCw0LjQ3LDB6Ii8+JiN4YTsJCTwvZz4mI3hhOwkJPGcgaWQ9InNoYXBlNDMwNy0xMCI+JiN4YTsJCQk8dGl0bGUgaWQ9InRpdGxlNjA3OTUiPlNoZWV0LjQzMDc8L3RpdGxlPiYjeGE7CQkJPHBhdGggaWQ9InBhdGg2MDc5NyIgaW5rc2NhcGU6Y29ubmVjdG9yLWN1cnZhdHVyZT0iMCIgc3R5bGU9ImZpbGw6IzkzOTU5ODsiIGQ9Ik0yLjgyLDI0LjU5Yy0wLjg3LDAtMS41OS0wLjY5LTEuNTktMS41NyAgICAgYzAtMjAuMTksMC0yMC4xOSwwLTIwLjE5YzAtMC44NSwwLjcyLTEuNTcsMS41OS0xLjU3YzQuNDUsMCw0LjQ1LDAsNC40NSwwYzAtMS4yNiwwLTEuMjYsMC0xLjI2QzIuODIsMCwyLjgyLDAsMi44MiwwICAgICBDMS4yOCwwLDAsMS4zMSwwLDIuODNjMCwyMC4xOSwwLDIwLjE5LDAsMjAuMTljMCwxLjU3LDEuMjgsMi44MSwyLjgyLDIuODFjNC40NSwwLDQuNDUsMCw0LjQ1LDBjMC0xLjI0LDAtMS4yNCwwLTEuMjRIMi44MnoiLz4mI3hhOwkJPC9nPiYjeGE7CTwvZz4mI3hhOzwvZz4mI3hhOzwvc3ZnPg==;" vertex="1" parent="1">
          <mxGeometry x="398.2600000000001" y="130" width="31" height="26" as="geometry" />
        </mxCell>
        <mxCell id="RSznJ-GNL0sqVoyYkRlf-3" value="" style="shape=image;verticalLabelPosition=bottom;labelBackgroundColor=#ffffff;verticalAlign=top;aspect=fixed;imageAspect=0;image=data:image/svg+xml,PHN2ZyB4bWxuczpjYz0iaHR0cDovL2NyZWF0aXZlY29tbW9ucy5vcmcvbnMjIiB4bWxuczpkYz0iaHR0cDovL3B1cmwub3JnL2RjL2VsZW1lbnRzLzEuMS8iIHhtbG5zOmlua3NjYXBlPSJodHRwOi8vd3d3Lmlua3NjYXBlLm9yZy9uYW1lc3BhY2VzL2lua3NjYXBlIiB4bWxuczpyZGY9Imh0dHA6Ly93d3cudzMub3JnLzE5OTkvMDIvMjItcmRmLXN5bnRheC1ucyMiIHhtbG5zOnNvZGlwb2RpPSJodHRwOi8vc29kaXBvZGkuc291cmNlZm9yZ2UubmV0L0RURC9zb2RpcG9kaS0wLmR0ZCIgeG1sbnM6c3ZnPSJodHRwOi8vd3d3LnczLm9yZy8yMDAwL3N2ZyIgeG1sbnM9Imh0dHA6Ly93d3cudzMub3JnLzIwMDAvc3ZnIiB4bWxuczp4bGluaz0iaHR0cDovL3d3dy53My5vcmcvMTk5OS94bGluayIgdmVyc2lvbj0iMS4xIiBpZD0ic3ZnNjA4MDMiIGlua3NjYXBlOnZlcnNpb249IjAuOTIuMyAoMjQwNTU0NiwgMjAxOC0wMy0xMSkiIHNvZGlwb2RpOmRvY25hbWU9ImF6dXJlX3BvcnRhbF9yZXNvdXJjZV9ncm91cHMuc3ZnIiB4PSIwcHgiIHk9IjBweCIgdmlld0JveD0iMCAwIDMwLjczIDI1LjgzIiBzdHlsZT0iZW5hYmxlLWJhY2tncm91bmQ6bmV3IDAgMCAzMC43MyAyNS44MzsiIHhtbDpzcGFjZT0icHJlc2VydmUiPiYjeGE7PHNvZGlwb2RpOm5hbWVkdmlldyBib3JkZXJjb2xvcj0iIzY2NjY2NiIgYm9yZGVyb3BhY2l0eT0iMSIgZml0LW1hcmdpbi1ib3R0b209IjAiIGZpdC1tYXJnaW4tbGVmdD0iMCIgZml0LW1hcmdpbi1yaWdodD0iMCIgZml0LW1hcmdpbi10b3A9IjAiIGdyaWR0b2xlcmFuY2U9IjEwIiBndWlkZXRvbGVyYW5jZT0iMTAiIGlkPSJuYW1lZHZpZXc2MDgwNSIgaW5rc2NhcGU6Y3VycmVudC1sYXllcj0ic3ZnNjA4MDMiIGlua3NjYXBlOmN4PSIxMi40OTE3MjQiIGlua3NjYXBlOmN5PSIxNi45Mjk2NTQiIGlua3NjYXBlOnBhZ2VvcGFjaXR5PSIwIiBpbmtzY2FwZTpwYWdlc2hhZG93PSIyIiBpbmtzY2FwZTp3aW5kb3ctaGVpZ2h0PSIxMDE3IiBpbmtzY2FwZTp3aW5kb3ctbWF4aW1pemVkPSIxIiBpbmtzY2FwZTp3aW5kb3ctd2lkdGg9IjE5MjAiIGlua3NjYXBlOndpbmRvdy14PSItOCIgaW5rc2NhcGU6d2luZG93LXk9Ii04IiBpbmtzY2FwZTp6b29tPSIxNy43OTg0MjciIG9iamVjdHRvbGVyYW5jZT0iMTAiIHBhZ2Vjb2xvcj0iI2ZmZmZmZiIgc2hvd2dyaWQ9ImZhbHNlIj4mI3hhOwk8L3NvZGlwb2RpOm5hbWVkdmlldz4mI3hhOzxnIGlkPSJnNjA4MDEiIHRyYW5zZm9ybT0idHJhbnNsYXRlKDAsLTMuNzk1ODg0NmUtNSkiPiYjeGE7CTx0aXRsZSBpZD0idGl0bGU2MDc3MSI+UGFnZS0xPC90aXRsZT4mI3hhOwk8ZyBpZD0iZ3JvdXA0MzAyLTEiPiYjeGE7CQk8dGl0bGUgaWQ9InRpdGxlNjA3NzMiPkF6dXJlIFBvcnRhbCAtIFJlc291cmNlIGdyb3VwczwvdGl0bGU+JiN4YTsJCTxnIGlkPSJzaGFwZTQzMDMtMiIgdHJhbnNmb3JtPSJ0cmFuc2xhdGUoNy41MDg3LC0xMy44NTYxKSI+JiN4YTsJCQk8dGl0bGUgaWQ9InRpdGxlNjA3NzUiPlNoZWV0LjQzMDM8L3RpdGxlPiYjeGE7CQkJPHBhdGggaWQ9InBhdGg2MDc3NyIgaW5rc2NhcGU6Y29ubmVjdG9yLWN1cnZhdHVyZT0iMCIgc3R5bGU9ImZpbGw6IzAwNzVDOTsiIGQ9Ik03LjksMjUuODNjLTAuMDQsMC0wLjA3LDAtMC4xMSwwICAgICBjLTcuNjYtNC4zNy03LjY2LTQuMzctNy42Ni00LjM3QzAuMDQsMjEuNDIsMCwyMS4zNCwwLDIxLjI1YzAtMC4wNywwLjA0LTAuMTQsMC4xMy0wLjE5YzcuNTctNC4zNCw3LjU3LTQuMzQsNy41Ny00LjM0ICAgICBjMC4wOS0wLjA1LDAuMTYtMC4wNSwwLjI1LDBjNy42NSw0LjM5LDcuNjUsNC4zOSw3LjY1LDQuMzljMC4wOSwwLjAzLDAuMTIsMC4xMSwwLjEyLDAuMTljMCwwLjA5LTAuMDMsMC4xNi0wLjEyLDAuMiAgICAgYy03LjYxLDQuMzMtNy42MSw0LjMzLTcuNjEsNC4zM0M3Ljk1LDI1LjgzLDcuOTUsMjUuODMsNy45LDI1LjgzeiIvPiYjeGE7CQk8L2c+JiN4YTsJCTxnIGlkPSJzaGFwZTQzMDQtNCIgdHJhbnNmb3JtPSJ0cmFuc2xhdGUoNi4zMzU0NywtMy4wNTMwNSkiPiYjeGE7CQkJPHRpdGxlIGlkPSJ0aXRsZTYwNzgwIj5TaGVldC40MzA0PC90aXRsZT4mI3hhOwkJCTxwYXRoIGlkPSJwYXRoNjA3ODIiIGlua3NjYXBlOmNvbm5lY3Rvci1jdXJ2YXR1cmU9IjAiIHN0eWxlPSJmaWxsOiMwMEFFRUY7IiBkPSJNNy45OCwyNS44M2MtMC4wNSwwLTAuMDktMC4wMy0wLjEzLTAuMDMgICAgIGMtNy43Mi00LjM3LTcuNzItNC4zNy03LjcyLTQuMzdDMC4wNCwyMS40LDAsMjEuMzEsMCwyMS4yNGMwLTguNzgsMC04Ljc4LDAtOC43OGMwLTAuMDksMC4wNC0wLjE2LDAuMTMtMC4yICAgICBjMC4wOC0wLjA1LDAuMTYtMC4wNSwwLjI1LDBjNy43Miw0LjM3LDcuNzIsNC4zNyw3LjcyLDQuMzdjMC4wOCwwLjAzLDAuMTEsMC4xMiwwLjExLDAuMTljMCw4Ljc4LDAsOC43OCwwLDguNzggICAgIGMwLDAuMDktMC4wMywwLjE2LTAuMTEsMC4yQzguMDUsMjUuOCw4LjAyLDI1LjgzLDcuOTgsMjUuODN6Ii8+JiN4YTsJCTwvZz4mI3hhOwkJPGcgaWQ9InNoYXBlNDMwNS02IiB0cmFuc2Zvcm09InRyYW5zbGF0ZSgxNi4xOTA2LC0zLjA1MzA1KSI+JiN4YTsJCQk8dGl0bGUgaWQ9InRpdGxlNjA3ODUiPlNoZWV0LjQzMDU8L3RpdGxlPiYjeGE7CQkJPHBhdGggaWQ9InBhdGg2MDc4NyIgaW5rc2NhcGU6Y29ubmVjdG9yLWN1cnZhdHVyZT0iMCIgc3R5bGU9ImZpbGw6IzJCQUFFMTsiIGQ9Ik0wLjI1LDI1LjgzYy0wLjA0LDAtMC4wNy0wLjAzLTAuMTItMC4wMyAgICAgQzAuMDQsMjUuNzYsMCwyNS42OSwwLDI1LjZjMC04Ljc2LDAtOC43NiwwLTguNzZjMC0wLjA4LDAuMDQtMC4xNywwLjEzLTAuMmM3LjcyLTQuMzgsNy43Mi00LjM4LDcuNzItNC4zOCAgICAgYzAuMDgtMC4wNSwwLjE3LTAuMDUsMC4yNSwwYzAuMDQsMC4wNCwwLjExLDAuMTEsMC4xMSwwLjJjMCw4Ljc2LDAsOC43NiwwLDguNzZjMCwwLjA4LTAuMDcsMC4xNy0wLjExLDAuMiAgICAgQzAuMzgsMjUuOCwwLjM4LDI1LjgsMC4zOCwyNS44QzAuMzQsMjUuOCwwLjI5LDI1LjgzLDAuMjUsMjUuODN6Ii8+JiN4YTsJCTwvZz4mI3hhOwkJPGcgaWQ9InNoYXBlNDMwNi04IiB0cmFuc2Zvcm09InRyYW5zbGF0ZSgyMy40NjQ3KSI+JiN4YTsJCQk8dGl0bGUgaWQ9InRpdGxlNjA3OTAiPlNoZWV0LjQzMDY8L3RpdGxlPiYjeGE7CQkJPHBhdGggaWQ9InBhdGg2MDc5MiIgaW5rc2NhcGU6Y29ubmVjdG9yLWN1cnZhdHVyZT0iMCIgc3R5bGU9ImZpbGw6IzkzOTU5ODsiIGQ9Ik00LjQ3LDBDMCwwLDAsMCwwLDBjMCwxLjI2LDAsMS4yNiwwLDEuMjYgICAgIGM0LjQ3LDAsNC40NywwLDQuNDcsMGMwLjg3LDAsMS41OSwwLjcyLDEuNTksMS41N2MwLDIwLjE5LDAsMjAuMTksMCwyMC4xOWMwLDAuODgtMC43MiwxLjU3LTEuNTksMS41N2MtNC40NywwLTQuNDcsMC00LjQ3LDAgICAgIGMwLDEuMjQsMCwxLjI0LDAsMS4yNGM0LjQ3LDAsNC40NywwLDQuNDcsMGMxLjU0LDAsMi44LTEuMjQsMi44LTIuODFjMC0yMC4xOSwwLTIwLjE5LDAtMjAuMTlDNy4yNywxLjMxLDYuMDEsMCw0LjQ3LDB6Ii8+JiN4YTsJCTwvZz4mI3hhOwkJPGcgaWQ9InNoYXBlNDMwNy0xMCI+JiN4YTsJCQk8dGl0bGUgaWQ9InRpdGxlNjA3OTUiPlNoZWV0LjQzMDc8L3RpdGxlPiYjeGE7CQkJPHBhdGggaWQ9InBhdGg2MDc5NyIgaW5rc2NhcGU6Y29ubmVjdG9yLWN1cnZhdHVyZT0iMCIgc3R5bGU9ImZpbGw6IzkzOTU5ODsiIGQ9Ik0yLjgyLDI0LjU5Yy0wLjg3LDAtMS41OS0wLjY5LTEuNTktMS41NyAgICAgYzAtMjAuMTksMC0yMC4xOSwwLTIwLjE5YzAtMC44NSwwLjcyLTEuNTcsMS41OS0xLjU3YzQuNDUsMCw0LjQ1LDAsNC40NSwwYzAtMS4yNiwwLTEuMjYsMC0xLjI2QzIuODIsMCwyLjgyLDAsMi44MiwwICAgICBDMS4yOCwwLDAsMS4zMSwwLDIuODNjMCwyMC4xOSwwLDIwLjE5LDAsMjAuMTljMCwxLjU3LDEuMjgsMi44MSwyLjgyLDIuODFjNC40NSwwLDQuNDUsMCw0LjQ1LDBjMC0xLjI0LDAtMS4yNCwwLTEuMjRIMi44MnoiLz4mI3hhOwkJPC9nPiYjeGE7CTwvZz4mI3hhOzwvZz4mI3hhOzwvc3ZnPg==;" vertex="1" parent="1">
          <mxGeometry x="645.7600000000001" y="110" width="31" height="26" as="geometry" />
        </mxCell>
        <mxCell id="RSznJ-GNL0sqVoyYkRlf-5" value="" style="shape=image;verticalLabelPosition=bottom;labelBackgroundColor=#ffffff;verticalAlign=top;aspect=fixed;imageAspect=0;image=data:image/svg+xml,PHN2ZyB4bWxuczpkYz0iaHR0cDovL3B1cmwub3JnL2RjL2VsZW1lbnRzLzEuMS8iIHhtbG5zOmNjPSJodHRwOi8vY3JlYXRpdmVjb21tb25zLm9yZy9ucyMiIHhtbG5zOnJkZj0iaHR0cDovL3d3dy53My5vcmcvMTk5OS8wMi8yMi1yZGYtc3ludGF4LW5zIyIgeG1sbnM6c3ZnPSJodHRwOi8vd3d3LnczLm9yZy8yMDAwL3N2ZyIgeG1sbnM9Imh0dHA6Ly93d3cudzMub3JnLzIwMDAvc3ZnIiB4bWxuczpzb2RpcG9kaT0iaHR0cDovL3NvZGlwb2RpLnNvdXJjZWZvcmdlLm5ldC9EVEQvc29kaXBvZGktMC5kdGQiIHhtbG5zOmlua3NjYXBlPSJodHRwOi8vd3d3Lmlua3NjYXBlLm9yZy9uYW1lc3BhY2VzL2lua3NjYXBlIiB2ZXJzaW9uPSIxLjEiIGlkPSJzdmc2MTAxMSIgaW5rc2NhcGU6dmVyc2lvbj0iMC45Mi4zICgyNDA1NTQ2LCAyMDE4LTAzLTExKSIgc29kaXBvZGk6ZG9jbmFtZT0iYXp1cmVfcG9ydGFsX3ZpcnR1YWxfbWFjaGluZXMuc3ZnIiB4PSIwcHgiIHk9IjBweCIgdmlld0JveD0iMCAwIDU3LjY0IDUzLjIwMDAwMiIgeG1sOnNwYWNlPSJwcmVzZXJ2ZSIgd2lkdGg9IjU3LjYzOTk5OSIgaGVpZ2h0PSI1My4yMDAwMDEiPjxtZXRhZGF0YSBpZD0ibWV0YWRhdGExMDk5MCI+PHJkZjpSREY+PGNjOldvcmsgcmRmOmFib3V0PSIiPjxkYzpmb3JtYXQ+aW1hZ2Uvc3ZnK3htbDwvZGM6Zm9ybWF0PjxkYzp0eXBlIHJkZjpyZXNvdXJjZT0iaHR0cDovL3B1cmwub3JnL2RjL2RjbWl0eXBlL1N0aWxsSW1hZ2UiLz48ZGM6dGl0bGUvPjwvY2M6V29yaz48L3JkZjpSREY+PC9tZXRhZGF0YT48ZGVmcyBpZD0iZGVmczEwOTg4Ii8+JiN4YTs8ZmlsdGVyIGlkPSJmaWx0ZXJfMiI+JiN4YTsJPGZlR2F1c3NpYW5CbHVyIGlkPSJmZUdhdXNzaWFuQmx1cjYwOTIwIiBzdGREZXZpYXRpb249IjIiLz4mI3hhOzwvZmlsdGVyPiYjeGE7PHNvZGlwb2RpOm5hbWVkdmlldyBib3JkZXJjb2xvcj0iIzY2NjY2NiIgYm9yZGVyb3BhY2l0eT0iMSIgZml0LW1hcmdpbi1ib3R0b209IjAiIGZpdC1tYXJnaW4tbGVmdD0iMCIgZml0LW1hcmdpbi1yaWdodD0iMCIgZml0LW1hcmdpbi10b3A9IjAiIGdyaWR0b2xlcmFuY2U9IjEwIiBndWlkZXRvbGVyYW5jZT0iMTAiIGlkPSJuYW1lZHZpZXc2MTAxMyIgaW5rc2NhcGU6Y3VycmVudC1sYXllcj0ic3ZnNjEwMTEiIGlua3NjYXBlOmN4PSItMzMuMTQzMzAzIiBpbmtzY2FwZTpjeT0iMjQuNjk2NTQ0IiBpbmtzY2FwZTpwYWdlb3BhY2l0eT0iMCIgaW5rc2NhcGU6cGFnZXNoYWRvdz0iMiIgaW5rc2NhcGU6d2luZG93LWhlaWdodD0iMTAxNyIgaW5rc2NhcGU6d2luZG93LW1heGltaXplZD0iMSIgaW5rc2NhcGU6d2luZG93LXdpZHRoPSIxOTIwIiBpbmtzY2FwZTp3aW5kb3cteD0iLTgiIGlua3NjYXBlOndpbmRvdy15PSItOCIgaW5rc2NhcGU6em9vbT0iNS45MTg3NzA5IiBvYmplY3R0b2xlcmFuY2U9IjEwIiBwYWdlY29sb3I9IiNmZmZmZmYiIHNob3dncmlkPSJmYWxzZSI+JiN4YTsJPC9zb2RpcG9kaTpuYW1lZHZpZXc+JiN4YTsmI3hhOzxwYXRoIGlkPSJwYXRoNjA5MzMiIGlua3NjYXBlOmNvbm5lY3Rvci1jdXJ2YXR1cmU9IjAiIHN0eWxlPSJmaWxsOiM3YTdhN2EiIGQ9Ik0gMzcuMzksNDIuMTIgSCAzNi4wMSAyMi40MiAyMS43MSBjIDEuODgsNi42NSAtMC42NSw3LjYgLTExLjczLDcuNiB2IDMuNDggaCAxNC4xIDEwLjI5IDEzLjMgdiAtMy40OCBjIC0xMS4wOCwwIC0xMi4xNywtMC45NSAtMTAuMjgsLTcuNiB6Ii8+JiN4YTsmI3hhOzxwYXRoIGlkPSJwYXRoNjA5NDEiIGlua3NjYXBlOmNvbm5lY3Rvci1jdXJ2YXR1cmU9IjAiIHN0eWxlPSJmaWxsOiNhMGExYTIiIGQ9Ik0gNTQuMTYsMCBIIDMuMTMgQyAxLjQsMCAwLDEuNTUgMCwzLjI4IHYgMzUuNTkgYyAwLDEuNzIgMS40LDMuMjUgMy4xMywzLjI1IGggNTEuMDMgYyAxLjczLDAgMy40OCwtMS41MyAzLjQ4LC0zLjI1IFYgMy4yOCBDIDU3LjY0LDEuNTUgNTUuODksMCA1NC4xNiwwIFoiLz4mI3hhOyYjeGE7PHBhdGggaWQ9InBhdGg2MDk0OSIgaW5rc2NhcGU6Y29ubmVjdG9yLWN1cnZhdHVyZT0iMCIgc3R5bGU9ImZpbGw6I2ZmZmZmZjtmaWxsLW9wYWNpdHk6MC4yIiBkPSJNIDU0LjIsMCBDIDU0LjE5LDAgNTQuMTcsMCA1NC4xNiwwIEggMy4xMyBDIDEuNCwwIDAsMS41NSAwLDMuMjggdiAzNS41OSBjIDAsMS43MiAxLjQsMy4yNSAzLjEzLDMuMjUgaCAxLjIyIHoiLz4mI3hhOyYjeGE7PHJlY3QgaWQ9InJlY3Q2MDk1NyIgeD0iNC4zNjk5OTUxIiB5PSI0LjQ0MDAwMDEiIHN0eWxlPSJmaWxsOiM1OWI0ZDkiIHdpZHRoPSI0OC43Nzk5OTkiIGhlaWdodD0iMzMuMjUiLz4mI3hhOyYjeGE7JiN4YTsmI3hhOzxyZWN0IGlkPSJyZWN0NjA5NzMiIHg9IjkuOTc5OTk1NyIgeT0iNDkuNzIwMDAxIiBzdHlsZT0iZmlsbDojYTBhMWEyIiB3aWR0aD0iMzcuNjg5OTk5IiBoZWlnaHQ9IjMuNDgiLz4mI3hhOyYjeGE7PHBhdGggaWQ9InBhdGg2MDk4MSIgaW5rc2NhcGU6Y29ubmVjdG9yLWN1cnZhdHVyZT0iMCIgc3R5bGU9ImZpbGw6I2I4ZDQzMiIgZD0ibSAyOS40MiwyLjQyIGMgMCwwLjQ1IC0wLjM3LDAuODEgLTAuODIsMC44MSAtMC40NiwwIC0wLjgyLC0wLjM2IC0wLjgyLC0wLjgxIDAsLTAuNDYgMC4zNiwtMC44MiAwLjgyLC0wLjgyIDAuNDUsMCAwLjgyLDAuMzYgMC44MiwwLjgyIHoiLz4mI3hhOyYjeGE7PHBhdGggaWQ9InBhdGg2MDk4OSIgaW5rc2NhcGU6Y29ubmVjdG9yLWN1cnZhdHVyZT0iMCIgc3R5bGU9ImZpbGw6I2ZmZmZmZiIgZD0ibSAyOS40NSwyMC4wNSBjIC0wLjA2LDAgLTAuMTEsLTAuMDEgLTAuMTYsLTAuMDQgTCAxOS4xNCwxNC4xNSBjIC0wLjA5LC0wLjA1IC0wLjE1LC0wLjE2IC0wLjE1LC0wLjI2IDAsLTAuMTEgMC4wNiwtMC4yMiAwLjE1LC0wLjI3IEwgMjkuMjMsNy44IGMgMC4xLC0wLjA1IDAuMjEsLTAuMDUgMC4zLDAgbCAxMC4xNiw1Ljg2IGMgMC4wOSwwLjA1IDAuMTUsMC4xNiAwLjE1LDAuMjcgMCwwLjExIC0wLjA2LDAuMjEgLTAuMTUsMC4yNiBMIDI5LjYsMjAuMDEgYyAtMC4wNSwwLjAzIC0wLjEsMC4wNCAtMC4xNSwwLjA0IHoiLz4mI3hhOyYjeGE7PHBhdGggaWQ9InBhdGg2MDk5NyIgaW5rc2NhcGU6Y29ubmVjdG9yLWN1cnZhdHVyZT0iMCIgc3R5bGU9ImZpbGw6I2ZmZmZmZjtmaWxsLW9wYWNpdHk6MC43IiBkPSJtIDI3Ljk5LDM0LjI5IGMgLTAuMDYsMCAtMC4xMSwtMC4wMSAtMC4xNSwtMC4wNCBMIDE3LjcyLDI4LjQxIGMgLTAuMSwtMC4wNSAtMC4xNiwtMC4xNSAtMC4xNiwtMC4yNiBWIDE2LjQzIGMgMCwtMC4xMSAwLjA2LC0wLjIyIDAuMTYsLTAuMjcgMC4wOSwtMC4wNiAwLjIxLC0wLjA2IDAuMzEsMCBMIDI4LjE0LDIyIGMgMC4wOSwwLjA2IDAuMTUsMC4xNiAwLjE1LDAuMjcgdiAxMS43MiBjIDAsMC4xMSAtMC4wNiwwLjIxIC0wLjE1LDAuMjYgLTAuMDUsMC4wMyAtMC4xLDAuMDQgLTAuMTUsMC4wNCB6Ii8+JiN4YTsmI3hhOzxwYXRoIGlkPSJwYXRoNjEwMDUiIGlua3NjYXBlOmNvbm5lY3Rvci1jdXJ2YXR1cmU9IjAiIHN0eWxlPSJmaWxsOiNmZmZmZmY7ZmlsbC1vcGFjaXR5OjAuNCIgZD0iTSAzMC44NiwzNC4yOSBDIDMwLjgsMzQuMjkgMzAuNzUsMzQuMjggMzAuNywzNC4yNSAzMC42MSwzNC4yIDMwLjU1LDM0LjEgMzAuNTUsMzMuOTkgViAyMi4zNCBjIDAsLTAuMTEgMC4wNiwtMC4yMSAwLjE1LC0wLjI3IGwgMTAuMTIsLTUuODMgYyAwLjA5LC0wLjA2IDAuMjEsLTAuMDYgMC4zLDAgMC4xLDAuMDUgMC4xNiwwLjE1IDAuMTYsMC4yNiB2IDExLjY1IGMgMCwwLjExIC0wLjA2LDAuMjEgLTAuMTYsMC4yNiBsIC0xMC4xMSw1Ljg0IGMgLTAuMDQsMC4wMyAtMC4xLDAuMDQgLTAuMTUsMC4wNCB6Ii8+JiN4YTs8L3N2Zz4=;" vertex="1" parent="1">
          <mxGeometry x="120" y="202.7" width="52.76" height="48.21" as="geometry" />
        </mxCell>
        <mxCell id="RSznJ-GNL0sqVoyYkRlf-7" value="" style="shape=image;verticalLabelPosition=bottom;labelBackgroundColor=#ffffff;verticalAlign=top;aspect=fixed;imageAspect=0;image=data:image/svg+xml,PHN2ZyB4bWxuczpkYz0iaHR0cDovL3B1cmwub3JnL2RjL2VsZW1lbnRzLzEuMS8iIHhtbG5zOmNjPSJodHRwOi8vY3JlYXRpdmVjb21tb25zLm9yZy9ucyMiIHhtbG5zOnJkZj0iaHR0cDovL3d3dy53My5vcmcvMTk5OS8wMi8yMi1yZGYtc3ludGF4LW5zIyIgeG1sbnM6c3ZnPSJodHRwOi8vd3d3LnczLm9yZy8yMDAwL3N2ZyIgeG1sbnM9Imh0dHA6Ly93d3cudzMub3JnLzIwMDAvc3ZnIiB4bWxuczpzb2RpcG9kaT0iaHR0cDovL3NvZGlwb2RpLnNvdXJjZWZvcmdlLm5ldC9EVEQvc29kaXBvZGktMC5kdGQiIHhtbG5zOmlua3NjYXBlPSJodHRwOi8vd3d3Lmlua3NjYXBlLm9yZy9uYW1lc3BhY2VzL2lua3NjYXBlIiB2ZXJzaW9uPSIxLjEiIGlkPSJzdmc2MTAxMSIgaW5rc2NhcGU6dmVyc2lvbj0iMC45Mi4zICgyNDA1NTQ2LCAyMDE4LTAzLTExKSIgc29kaXBvZGk6ZG9jbmFtZT0iYXp1cmVfcG9ydGFsX3ZpcnR1YWxfbWFjaGluZXMuc3ZnIiB4PSIwcHgiIHk9IjBweCIgdmlld0JveD0iMCAwIDU3LjY0IDUzLjIwMDAwMiIgeG1sOnNwYWNlPSJwcmVzZXJ2ZSIgd2lkdGg9IjU3LjYzOTk5OSIgaGVpZ2h0PSI1My4yMDAwMDEiPjxtZXRhZGF0YSBpZD0ibWV0YWRhdGExMDk5MCI+PHJkZjpSREY+PGNjOldvcmsgcmRmOmFib3V0PSIiPjxkYzpmb3JtYXQ+aW1hZ2Uvc3ZnK3htbDwvZGM6Zm9ybWF0PjxkYzp0eXBlIHJkZjpyZXNvdXJjZT0iaHR0cDovL3B1cmwub3JnL2RjL2RjbWl0eXBlL1N0aWxsSW1hZ2UiLz48ZGM6dGl0bGUvPjwvY2M6V29yaz48L3JkZjpSREY+PC9tZXRhZGF0YT48ZGVmcyBpZD0iZGVmczEwOTg4Ii8+JiN4YTs8ZmlsdGVyIGlkPSJmaWx0ZXJfMiI+JiN4YTsJPGZlR2F1c3NpYW5CbHVyIGlkPSJmZUdhdXNzaWFuQmx1cjYwOTIwIiBzdGREZXZpYXRpb249IjIiLz4mI3hhOzwvZmlsdGVyPiYjeGE7PHNvZGlwb2RpOm5hbWVkdmlldyBib3JkZXJjb2xvcj0iIzY2NjY2NiIgYm9yZGVyb3BhY2l0eT0iMSIgZml0LW1hcmdpbi1ib3R0b209IjAiIGZpdC1tYXJnaW4tbGVmdD0iMCIgZml0LW1hcmdpbi1yaWdodD0iMCIgZml0LW1hcmdpbi10b3A9IjAiIGdyaWR0b2xlcmFuY2U9IjEwIiBndWlkZXRvbGVyYW5jZT0iMTAiIGlkPSJuYW1lZHZpZXc2MTAxMyIgaW5rc2NhcGU6Y3VycmVudC1sYXllcj0ic3ZnNjEwMTEiIGlua3NjYXBlOmN4PSItMzMuMTQzMzAzIiBpbmtzY2FwZTpjeT0iMjQuNjk2NTQ0IiBpbmtzY2FwZTpwYWdlb3BhY2l0eT0iMCIgaW5rc2NhcGU6cGFnZXNoYWRvdz0iMiIgaW5rc2NhcGU6d2luZG93LWhlaWdodD0iMTAxNyIgaW5rc2NhcGU6d2luZG93LW1heGltaXplZD0iMSIgaW5rc2NhcGU6d2luZG93LXdpZHRoPSIxOTIwIiBpbmtzY2FwZTp3aW5kb3cteD0iLTgiIGlua3NjYXBlOndpbmRvdy15PSItOCIgaW5rc2NhcGU6em9vbT0iNS45MTg3NzA5IiBvYmplY3R0b2xlcmFuY2U9IjEwIiBwYWdlY29sb3I9IiNmZmZmZmYiIHNob3dncmlkPSJmYWxzZSI+JiN4YTsJPC9zb2RpcG9kaTpuYW1lZHZpZXc+JiN4YTsmI3hhOzxwYXRoIGlkPSJwYXRoNjA5MzMiIGlua3NjYXBlOmNvbm5lY3Rvci1jdXJ2YXR1cmU9IjAiIHN0eWxlPSJmaWxsOiM3YTdhN2EiIGQ9Ik0gMzcuMzksNDIuMTIgSCAzNi4wMSAyMi40MiAyMS43MSBjIDEuODgsNi42NSAtMC42NSw3LjYgLTExLjczLDcuNiB2IDMuNDggaCAxNC4xIDEwLjI5IDEzLjMgdiAtMy40OCBjIC0xMS4wOCwwIC0xMi4xNywtMC45NSAtMTAuMjgsLTcuNiB6Ii8+JiN4YTsmI3hhOzxwYXRoIGlkPSJwYXRoNjA5NDEiIGlua3NjYXBlOmNvbm5lY3Rvci1jdXJ2YXR1cmU9IjAiIHN0eWxlPSJmaWxsOiNhMGExYTIiIGQ9Ik0gNTQuMTYsMCBIIDMuMTMgQyAxLjQsMCAwLDEuNTUgMCwzLjI4IHYgMzUuNTkgYyAwLDEuNzIgMS40LDMuMjUgMy4xMywzLjI1IGggNTEuMDMgYyAxLjczLDAgMy40OCwtMS41MyAzLjQ4LC0zLjI1IFYgMy4yOCBDIDU3LjY0LDEuNTUgNTUuODksMCA1NC4xNiwwIFoiLz4mI3hhOyYjeGE7PHBhdGggaWQ9InBhdGg2MDk0OSIgaW5rc2NhcGU6Y29ubmVjdG9yLWN1cnZhdHVyZT0iMCIgc3R5bGU9ImZpbGw6I2ZmZmZmZjtmaWxsLW9wYWNpdHk6MC4yIiBkPSJNIDU0LjIsMCBDIDU0LjE5LDAgNTQuMTcsMCA1NC4xNiwwIEggMy4xMyBDIDEuNCwwIDAsMS41NSAwLDMuMjggdiAzNS41OSBjIDAsMS43MiAxLjQsMy4yNSAzLjEzLDMuMjUgaCAxLjIyIHoiLz4mI3hhOyYjeGE7PHJlY3QgaWQ9InJlY3Q2MDk1NyIgeD0iNC4zNjk5OTUxIiB5PSI0LjQ0MDAwMDEiIHN0eWxlPSJmaWxsOiM1OWI0ZDkiIHdpZHRoPSI0OC43Nzk5OTkiIGhlaWdodD0iMzMuMjUiLz4mI3hhOyYjeGE7JiN4YTsmI3hhOzxyZWN0IGlkPSJyZWN0NjA5NzMiIHg9IjkuOTc5OTk1NyIgeT0iNDkuNzIwMDAxIiBzdHlsZT0iZmlsbDojYTBhMWEyIiB3aWR0aD0iMzcuNjg5OTk5IiBoZWlnaHQ9IjMuNDgiLz4mI3hhOyYjeGE7PHBhdGggaWQ9InBhdGg2MDk4MSIgaW5rc2NhcGU6Y29ubmVjdG9yLWN1cnZhdHVyZT0iMCIgc3R5bGU9ImZpbGw6I2I4ZDQzMiIgZD0ibSAyOS40MiwyLjQyIGMgMCwwLjQ1IC0wLjM3LDAuODEgLTAuODIsMC44MSAtMC40NiwwIC0wLjgyLC0wLjM2IC0wLjgyLC0wLjgxIDAsLTAuNDYgMC4zNiwtMC44MiAwLjgyLC0wLjgyIDAuNDUsMCAwLjgyLDAuMzYgMC44MiwwLjgyIHoiLz4mI3hhOyYjeGE7PHBhdGggaWQ9InBhdGg2MDk4OSIgaW5rc2NhcGU6Y29ubmVjdG9yLWN1cnZhdHVyZT0iMCIgc3R5bGU9ImZpbGw6I2ZmZmZmZiIgZD0ibSAyOS40NSwyMC4wNSBjIC0wLjA2LDAgLTAuMTEsLTAuMDEgLTAuMTYsLTAuMDQgTCAxOS4xNCwxNC4xNSBjIC0wLjA5LC0wLjA1IC0wLjE1LC0wLjE2IC0wLjE1LC0wLjI2IDAsLTAuMTEgMC4wNiwtMC4yMiAwLjE1LC0wLjI3IEwgMjkuMjMsNy44IGMgMC4xLC0wLjA1IDAuMjEsLTAuMDUgMC4zLDAgbCAxMC4xNiw1Ljg2IGMgMC4wOSwwLjA1IDAuMTUsMC4xNiAwLjE1LDAuMjcgMCwwLjExIC0wLjA2LDAuMjEgLTAuMTUsMC4yNiBMIDI5LjYsMjAuMDEgYyAtMC4wNSwwLjAzIC0wLjEsMC4wNCAtMC4xNSwwLjA0IHoiLz4mI3hhOyYjeGE7PHBhdGggaWQ9InBhdGg2MDk5NyIgaW5rc2NhcGU6Y29ubmVjdG9yLWN1cnZhdHVyZT0iMCIgc3R5bGU9ImZpbGw6I2ZmZmZmZjtmaWxsLW9wYWNpdHk6MC43IiBkPSJtIDI3Ljk5LDM0LjI5IGMgLTAuMDYsMCAtMC4xMSwtMC4wMSAtMC4xNSwtMC4wNCBMIDE3LjcyLDI4LjQxIGMgLTAuMSwtMC4wNSAtMC4xNiwtMC4xNSAtMC4xNiwtMC4yNiBWIDE2LjQzIGMgMCwtMC4xMSAwLjA2LC0wLjIyIDAuMTYsLTAuMjcgMC4wOSwtMC4wNiAwLjIxLC0wLjA2IDAuMzEsMCBMIDI4LjE0LDIyIGMgMC4wOSwwLjA2IDAuMTUsMC4xNiAwLjE1LDAuMjcgdiAxMS43MiBjIDAsMC4xMSAtMC4wNiwwLjIxIC0wLjE1LDAuMjYgLTAuMDUsMC4wMyAtMC4xLDAuMDQgLTAuMTUsMC4wNCB6Ii8+JiN4YTsmI3hhOzxwYXRoIGlkPSJwYXRoNjEwMDUiIGlua3NjYXBlOmNvbm5lY3Rvci1jdXJ2YXR1cmU9IjAiIHN0eWxlPSJmaWxsOiNmZmZmZmY7ZmlsbC1vcGFjaXR5OjAuNCIgZD0iTSAzMC44NiwzNC4yOSBDIDMwLjgsMzQuMjkgMzAuNzUsMzQuMjggMzAuNywzNC4yNSAzMC42MSwzNC4yIDMwLjU1LDM0LjEgMzAuNTUsMzMuOTkgViAyMi4zNCBjIDAsLTAuMTEgMC4wNiwtMC4yMSAwLjE1LC0wLjI3IGwgMTAuMTIsLTUuODMgYyAwLjA5LC0wLjA2IDAuMjEsLTAuMDYgMC4zLDAgMC4xLDAuMDUgMC4xNiwwLjE1IDAuMTYsMC4yNiB2IDExLjY1IGMgMCwwLjExIC0wLjA2LDAuMjEgLTAuMTYsMC4yNiBsIC0xMC4xMSw1Ljg0IGMgLTAuMDQsMC4wMyAtMC4xLDAuMDQgLTAuMTUsMC4wNCB6Ii8+JiN4YTs8L3N2Zz4=;" vertex="1" parent="1">
          <mxGeometry x="57.500000000000114" y="357.2" width="58" height="53" as="geometry" />
        </mxCell>
        <mxCell id="RSznJ-GNL0sqVoyYkRlf-8" value="" style="shape=image;verticalLabelPosition=bottom;labelBackgroundColor=#ffffff;verticalAlign=top;aspect=fixed;imageAspect=0;image=data:image/svg+xml,PHN2ZyB4bWxuczpkYz0iaHR0cDovL3B1cmwub3JnL2RjL2VsZW1lbnRzLzEuMS8iIHhtbG5zOmNjPSJodHRwOi8vY3JlYXRpdmVjb21tb25zLm9yZy9ucyMiIHhtbG5zOnJkZj0iaHR0cDovL3d3dy53My5vcmcvMTk5OS8wMi8yMi1yZGYtc3ludGF4LW5zIyIgeG1sbnM6c3ZnPSJodHRwOi8vd3d3LnczLm9yZy8yMDAwL3N2ZyIgeG1sbnM9Imh0dHA6Ly93d3cudzMub3JnLzIwMDAvc3ZnIiB4bWxuczpzb2RpcG9kaT0iaHR0cDovL3NvZGlwb2RpLnNvdXJjZWZvcmdlLm5ldC9EVEQvc29kaXBvZGktMC5kdGQiIHhtbG5zOmlua3NjYXBlPSJodHRwOi8vd3d3Lmlua3NjYXBlLm9yZy9uYW1lc3BhY2VzL2lua3NjYXBlIiB2ZXJzaW9uPSIxLjEiIGlkPSJzdmc2MTAxMSIgaW5rc2NhcGU6dmVyc2lvbj0iMC45Mi4zICgyNDA1NTQ2LCAyMDE4LTAzLTExKSIgc29kaXBvZGk6ZG9jbmFtZT0iYXp1cmVfcG9ydGFsX3ZpcnR1YWxfbWFjaGluZXMuc3ZnIiB4PSIwcHgiIHk9IjBweCIgdmlld0JveD0iMCAwIDU3LjY0IDUzLjIwMDAwMiIgeG1sOnNwYWNlPSJwcmVzZXJ2ZSIgd2lkdGg9IjU3LjYzOTk5OSIgaGVpZ2h0PSI1My4yMDAwMDEiPjxtZXRhZGF0YSBpZD0ibWV0YWRhdGExMDk5MCI+PHJkZjpSREY+PGNjOldvcmsgcmRmOmFib3V0PSIiPjxkYzpmb3JtYXQ+aW1hZ2Uvc3ZnK3htbDwvZGM6Zm9ybWF0PjxkYzp0eXBlIHJkZjpyZXNvdXJjZT0iaHR0cDovL3B1cmwub3JnL2RjL2RjbWl0eXBlL1N0aWxsSW1hZ2UiLz48ZGM6dGl0bGUvPjwvY2M6V29yaz48L3JkZjpSREY+PC9tZXRhZGF0YT48ZGVmcyBpZD0iZGVmczEwOTg4Ii8+JiN4YTs8ZmlsdGVyIGlkPSJmaWx0ZXJfMiI+JiN4YTsJPGZlR2F1c3NpYW5CbHVyIGlkPSJmZUdhdXNzaWFuQmx1cjYwOTIwIiBzdGREZXZpYXRpb249IjIiLz4mI3hhOzwvZmlsdGVyPiYjeGE7PHNvZGlwb2RpOm5hbWVkdmlldyBib3JkZXJjb2xvcj0iIzY2NjY2NiIgYm9yZGVyb3BhY2l0eT0iMSIgZml0LW1hcmdpbi1ib3R0b209IjAiIGZpdC1tYXJnaW4tbGVmdD0iMCIgZml0LW1hcmdpbi1yaWdodD0iMCIgZml0LW1hcmdpbi10b3A9IjAiIGdyaWR0b2xlcmFuY2U9IjEwIiBndWlkZXRvbGVyYW5jZT0iMTAiIGlkPSJuYW1lZHZpZXc2MTAxMyIgaW5rc2NhcGU6Y3VycmVudC1sYXllcj0ic3ZnNjEwMTEiIGlua3NjYXBlOmN4PSItMzMuMTQzMzAzIiBpbmtzY2FwZTpjeT0iMjQuNjk2NTQ0IiBpbmtzY2FwZTpwYWdlb3BhY2l0eT0iMCIgaW5rc2NhcGU6cGFnZXNoYWRvdz0iMiIgaW5rc2NhcGU6d2luZG93LWhlaWdodD0iMTAxNyIgaW5rc2NhcGU6d2luZG93LW1heGltaXplZD0iMSIgaW5rc2NhcGU6d2luZG93LXdpZHRoPSIxOTIwIiBpbmtzY2FwZTp3aW5kb3cteD0iLTgiIGlua3NjYXBlOndpbmRvdy15PSItOCIgaW5rc2NhcGU6em9vbT0iNS45MTg3NzA5IiBvYmplY3R0b2xlcmFuY2U9IjEwIiBwYWdlY29sb3I9IiNmZmZmZmYiIHNob3dncmlkPSJmYWxzZSI+JiN4YTsJPC9zb2RpcG9kaTpuYW1lZHZpZXc+JiN4YTsmI3hhOzxwYXRoIGlkPSJwYXRoNjA5MzMiIGlua3NjYXBlOmNvbm5lY3Rvci1jdXJ2YXR1cmU9IjAiIHN0eWxlPSJmaWxsOiM3YTdhN2EiIGQ9Ik0gMzcuMzksNDIuMTIgSCAzNi4wMSAyMi40MiAyMS43MSBjIDEuODgsNi42NSAtMC42NSw3LjYgLTExLjczLDcuNiB2IDMuNDggaCAxNC4xIDEwLjI5IDEzLjMgdiAtMy40OCBjIC0xMS4wOCwwIC0xMi4xNywtMC45NSAtMTAuMjgsLTcuNiB6Ii8+JiN4YTsmI3hhOzxwYXRoIGlkPSJwYXRoNjA5NDEiIGlua3NjYXBlOmNvbm5lY3Rvci1jdXJ2YXR1cmU9IjAiIHN0eWxlPSJmaWxsOiNhMGExYTIiIGQ9Ik0gNTQuMTYsMCBIIDMuMTMgQyAxLjQsMCAwLDEuNTUgMCwzLjI4IHYgMzUuNTkgYyAwLDEuNzIgMS40LDMuMjUgMy4xMywzLjI1IGggNTEuMDMgYyAxLjczLDAgMy40OCwtMS41MyAzLjQ4LC0zLjI1IFYgMy4yOCBDIDU3LjY0LDEuNTUgNTUuODksMCA1NC4xNiwwIFoiLz4mI3hhOyYjeGE7PHBhdGggaWQ9InBhdGg2MDk0OSIgaW5rc2NhcGU6Y29ubmVjdG9yLWN1cnZhdHVyZT0iMCIgc3R5bGU9ImZpbGw6I2ZmZmZmZjtmaWxsLW9wYWNpdHk6MC4yIiBkPSJNIDU0LjIsMCBDIDU0LjE5LDAgNTQuMTcsMCA1NC4xNiwwIEggMy4xMyBDIDEuNCwwIDAsMS41NSAwLDMuMjggdiAzNS41OSBjIDAsMS43MiAxLjQsMy4yNSAzLjEzLDMuMjUgaCAxLjIyIHoiLz4mI3hhOyYjeGE7PHJlY3QgaWQ9InJlY3Q2MDk1NyIgeD0iNC4zNjk5OTUxIiB5PSI0LjQ0MDAwMDEiIHN0eWxlPSJmaWxsOiM1OWI0ZDkiIHdpZHRoPSI0OC43Nzk5OTkiIGhlaWdodD0iMzMuMjUiLz4mI3hhOyYjeGE7JiN4YTsmI3hhOzxyZWN0IGlkPSJyZWN0NjA5NzMiIHg9IjkuOTc5OTk1NyIgeT0iNDkuNzIwMDAxIiBzdHlsZT0iZmlsbDojYTBhMWEyIiB3aWR0aD0iMzcuNjg5OTk5IiBoZWlnaHQ9IjMuNDgiLz4mI3hhOyYjeGE7PHBhdGggaWQ9InBhdGg2MDk4MSIgaW5rc2NhcGU6Y29ubmVjdG9yLWN1cnZhdHVyZT0iMCIgc3R5bGU9ImZpbGw6I2I4ZDQzMiIgZD0ibSAyOS40MiwyLjQyIGMgMCwwLjQ1IC0wLjM3LDAuODEgLTAuODIsMC44MSAtMC40NiwwIC0wLjgyLC0wLjM2IC0wLjgyLC0wLjgxIDAsLTAuNDYgMC4zNiwtMC44MiAwLjgyLC0wLjgyIDAuNDUsMCAwLjgyLDAuMzYgMC44MiwwLjgyIHoiLz4mI3hhOyYjeGE7PHBhdGggaWQ9InBhdGg2MDk4OSIgaW5rc2NhcGU6Y29ubmVjdG9yLWN1cnZhdHVyZT0iMCIgc3R5bGU9ImZpbGw6I2ZmZmZmZiIgZD0ibSAyOS40NSwyMC4wNSBjIC0wLjA2LDAgLTAuMTEsLTAuMDEgLTAuMTYsLTAuMDQgTCAxOS4xNCwxNC4xNSBjIC0wLjA5LC0wLjA1IC0wLjE1LC0wLjE2IC0wLjE1LC0wLjI2IDAsLTAuMTEgMC4wNiwtMC4yMiAwLjE1LC0wLjI3IEwgMjkuMjMsNy44IGMgMC4xLC0wLjA1IDAuMjEsLTAuMDUgMC4zLDAgbCAxMC4xNiw1Ljg2IGMgMC4wOSwwLjA1IDAuMTUsMC4xNiAwLjE1LDAuMjcgMCwwLjExIC0wLjA2LDAuMjEgLTAuMTUsMC4yNiBMIDI5LjYsMjAuMDEgYyAtMC4wNSwwLjAzIC0wLjEsMC4wNCAtMC4xNSwwLjA0IHoiLz4mI3hhOyYjeGE7PHBhdGggaWQ9InBhdGg2MDk5NyIgaW5rc2NhcGU6Y29ubmVjdG9yLWN1cnZhdHVyZT0iMCIgc3R5bGU9ImZpbGw6I2ZmZmZmZjtmaWxsLW9wYWNpdHk6MC43IiBkPSJtIDI3Ljk5LDM0LjI5IGMgLTAuMDYsMCAtMC4xMSwtMC4wMSAtMC4xNSwtMC4wNCBMIDE3LjcyLDI4LjQxIGMgLTAuMSwtMC4wNSAtMC4xNiwtMC4xNSAtMC4xNiwtMC4yNiBWIDE2LjQzIGMgMCwtMC4xMSAwLjA2LC0wLjIyIDAuMTYsLTAuMjcgMC4wOSwtMC4wNiAwLjIxLC0wLjA2IDAuMzEsMCBMIDI4LjE0LDIyIGMgMC4wOSwwLjA2IDAuMTUsMC4xNiAwLjE1LDAuMjcgdiAxMS43MiBjIDAsMC4xMSAtMC4wNiwwLjIxIC0wLjE1LDAuMjYgLTAuMDUsMC4wMyAtMC4xLDAuMDQgLTAuMTUsMC4wNCB6Ii8+JiN4YTsmI3hhOzxwYXRoIGlkPSJwYXRoNjEwMDUiIGlua3NjYXBlOmNvbm5lY3Rvci1jdXJ2YXR1cmU9IjAiIHN0eWxlPSJmaWxsOiNmZmZmZmY7ZmlsbC1vcGFjaXR5OjAuNCIgZD0iTSAzMC44NiwzNC4yOSBDIDMwLjgsMzQuMjkgMzAuNzUsMzQuMjggMzAuNywzNC4yNSAzMC42MSwzNC4yIDMwLjU1LDM0LjEgMzAuNTUsMzMuOTkgViAyMi4zNCBjIDAsLTAuMTEgMC4wNiwtMC4yMSAwLjE1LC0wLjI3IGwgMTAuMTIsLTUuODMgYyAwLjA5LC0wLjA2IDAuMjEsLTAuMDYgMC4zLDAgMC4xLDAuMDUgMC4xNiwwLjE1IDAuMTYsMC4yNiB2IDExLjY1IGMgMCwwLjExIC0wLjA2LDAuMjEgLTAuMTYsMC4yNiBsIC0xMC4xMSw1Ljg0IGMgLTAuMDQsMC4wMyAtMC4xLDAuMDQgLTAuMTUsMC4wNCB6Ii8+JiN4YTs8L3N2Zz4=;" vertex="1" parent="1">
          <mxGeometry x="189.0000000000001" y="357.2" width="58" height="53" as="geometry" />
        </mxCell>
        <mxCell id="RSznJ-GNL0sqVoyYkRlf-19" value="NL-Farmer-Prod" style="text;html=1;align=center;verticalAlign=middle;resizable=0;points=[];autosize=1;strokeColor=none;fillColor=none;fontStyle=1;fontSize=14;" vertex="1" parent="1">
          <mxGeometry x="87.5" y="80" width="120" height="20" as="geometry" />
        </mxCell>
        <mxCell id="RSznJ-GNL0sqVoyYkRlf-20" value="NL-Farmer-Test" style="text;html=1;align=center;verticalAlign=middle;resizable=0;points=[];autosize=1;strokeColor=none;fillColor=none;fontStyle=1;fontSize=14;" vertex="1" parent="1">
          <mxGeometry x="593.76" y="80" width="120" height="20" as="geometry" />
        </mxCell>
        <mxCell id="RSznJ-GNL0sqVoyYkRlf-21" value="Network Elements" style="text;html=1;align=center;verticalAlign=middle;resizable=0;points=[];autosize=1;strokeColor=none;fillColor=none;fontSize=14;fontStyle=1" vertex="1" parent="1">
          <mxGeometry x="343.76" y="80" width="140" height="20" as="geometry" />
        </mxCell>
        <mxCell id="RSznJ-GNL0sqVoyYkRlf-56" style="edgeStyle=none;shape=link;rounded=0;orthogonalLoop=1;jettySize=auto;html=1;exitX=0;exitY=0.5;exitDx=0;exitDy=0;fontSize=11;" edge="1" parent="1" source="RSznJ-GNL0sqVoyYkRlf-25">
          <mxGeometry relative="1" as="geometry">
            <mxPoint x="280" y="270" as="targetPoint" />
          </mxGeometry>
        </mxCell>
        <mxCell id="RSznJ-GNL0sqVoyYkRlf-25" value="" style="shape=image;verticalLabelPosition=bottom;labelBackgroundColor=#ffffff;verticalAlign=top;aspect=fixed;imageAspect=0;image=data:image/svg+xml,PHN2ZyB4bWxuczpkYz0iaHR0cDovL3B1cmwub3JnL2RjL2VsZW1lbnRzLzEuMS8iIHhtbG5zOmNjPSJodHRwOi8vY3JlYXRpdmVjb21tb25zLm9yZy9ucyMiIHhtbG5zOnJkZj0iaHR0cDovL3d3dy53My5vcmcvMTk5OS8wMi8yMi1yZGYtc3ludGF4LW5zIyIgeG1sbnM6c3ZnPSJodHRwOi8vd3d3LnczLm9yZy8yMDAwL3N2ZyIgeG1sbnM9Imh0dHA6Ly93d3cudzMub3JnLzIwMDAvc3ZnIiB4bWxuczpzb2RpcG9kaT0iaHR0cDovL3NvZGlwb2RpLnNvdXJjZWZvcmdlLm5ldC9EVEQvc29kaXBvZGktMC5kdGQiIHhtbG5zOmlua3NjYXBlPSJodHRwOi8vd3d3Lmlua3NjYXBlLm9yZy9uYW1lc3BhY2VzL2lua3NjYXBlIiB2ZXJzaW9uPSIxLjEiIGlkPSJzdmcxMDEzMjkiIGlua3NjYXBlOnZlcnNpb249IjAuOTIuMyAoMjQwNTU0NiwgMjAxOC0wMy0xMSkiIHNvZGlwb2RpOmRvY25hbWU9InZpcnR1YWxfbmV0d29ya192bmV0LnN2ZyIgeD0iMHB4IiB5PSIwcHgiIHZpZXdCb3g9IjAgMCAxNDguMTExMyA4NC45MzA2NDgiIHhtbDpzcGFjZT0icHJlc2VydmUiIHdpZHRoPSIxNDguMTExMyIgaGVpZ2h0PSI4NC45MzA2NDkiPjxtZXRhZGF0YSBpZD0ibWV0YWRhdGE0MTk0Ij48cmRmOlJERj48Y2M6V29yayByZGY6YWJvdXQ9IiI+PGRjOmZvcm1hdD5pbWFnZS9zdmcreG1sPC9kYzpmb3JtYXQ+PGRjOnR5cGUgcmRmOnJlc291cmNlPSJodHRwOi8vcHVybC5vcmcvZGMvZGNtaXR5cGUvU3RpbGxJbWFnZSIvPjxkYzp0aXRsZS8+PC9jYzpXb3JrPjwvcmRmOlJERj48L21ldGFkYXRhPjxkZWZzIGlkPSJkZWZzNDE5MiI+JiN4YTsJJiN4YTsmI3hhOwkmI3hhOyYjeGE7CSYjeGE7JiN4YTsJJiN4YTsmI3hhOwkmI3hhOyYjeGE7CQkmI3hhOwkmI3hhOwkJJiN4YTsJJiN4YTsJCSYjeGE7CSYjeGE7CQkmI3hhOwkmI3hhOwkJJiN4YTsJPC9kZWZzPiYjeGE7PGZpbHRlciBpZD0iZmlsdGVyXzIiPiYjeGE7CTxmZUdhdXNzaWFuQmx1ciBpZD0iZmVHYXVzc2lhbkJsdXIxMDEyNzgiIHN0ZERldmlhdGlvbj0iMiIvPiYjeGE7PC9maWx0ZXI+JiN4YTs8c29kaXBvZGk6bmFtZWR2aWV3IGJvcmRlcmNvbG9yPSIjNjY2NjY2IiBib3JkZXJvcGFjaXR5PSIxIiBmaXQtbWFyZ2luLWJvdHRvbT0iMCIgZml0LW1hcmdpbi1sZWZ0PSIwIiBmaXQtbWFyZ2luLXJpZ2h0PSIwIiBmaXQtbWFyZ2luLXRvcD0iMCIgZ3JpZHRvbGVyYW5jZT0iMTAiIGd1aWRldG9sZXJhbmNlPSIxMCIgaWQ9Im5hbWVkdmlldzEwMTMzMSIgaW5rc2NhcGU6Y3VycmVudC1sYXllcj0ic3ZnMTAxMzI5IiBpbmtzY2FwZTpjeD0iNDAuMTgyNTg3IiBpbmtzY2FwZTpjeT0iMTguNTU3ODYzIiBpbmtzY2FwZTpwYWdlb3BhY2l0eT0iMCIgaW5rc2NhcGU6cGFnZXNoYWRvdz0iMiIgaW5rc2NhcGU6d2luZG93LWhlaWdodD0iMTAxNyIgaW5rc2NhcGU6d2luZG93LW1heGltaXplZD0iMSIgaW5rc2NhcGU6d2luZG93LXdpZHRoPSIxOTIwIiBpbmtzY2FwZTp3aW5kb3cteD0iLTgiIGlua3NjYXBlOndpbmRvdy15PSItOCIgaW5rc2NhcGU6em9vbT0iMi45NzE3MDUzIiBvYmplY3R0b2xlcmFuY2U9IjEwIiBwYWdlY29sb3I9IiNmZmZmZmYiIHNob3dncmlkPSJmYWxzZSI+JiN4YTsJPC9zb2RpcG9kaTpuYW1lZHZpZXc+JiN4YTsmI3hhOzxwYXRoIGlkPSJwYXRoMTAxMjkxIiBpbmtzY2FwZTpjb25uZWN0b3ItY3VydmF0dXJlPSIwIiBzdHlsZT0iZmlsbDojMzk5OWM2IiBkPSJtIDE0Ny4xMTA2NSw0NC41OSBjIDEuNDgsLTEuNDggMS4xOCwtMy44NCAwLC01LjMyIGwgLTcuMSwtNy4xIC0zMS45NCwtMzEuMDYgYyAtMS40OCwtMS40OCAtMy41NSwtMS40OCAtNS4wMywwIC0xLjQ4LDEuNDggLTEuNzcsMy44NSAwLDUuMzMgbCAzMy40MiwzMi44MyBjIDEuNDgsMS40OCAxLjQ4LDMuODQgMCw1LjMyIGwgLTM0LjAxLDM0LjAxIGMgLTEuNDgsMS40OCAtMS40OCwzLjg1IDAsNS4zMyAxLjQ4LDEuNDggMy44NCwxLjE4IDUuMDMsMCBsIDMxLjY0LC0zMS4zNSBjIDAsMCAwLDAgMC4zLC0wLjMgeiIvPiYjeGE7JiN4YTs8cGF0aCBpZD0icGF0aDEwMTI5OSIgaW5rc2NhcGU6Y29ubmVjdG9yLWN1cnZhdHVyZT0iMCIgc3R5bGU9ImZpbGw6IzM5OTljNiIgZD0ibSAxLjAwMDY1MjEsNDQuNTkgYyAtMS40OCwtMS40OCAtMS4xOCwtMy44NCAwLC01LjMyIGwgNy4xLC03LjEgTCA0MC4wNDA2NTIsMS4xMSBjIDEuNDgsLTEuNDggMy41NSwtMS40OCA1LjAzLDAgMS40OCwxLjQ4IDEuNzcsMy44NSAwLDUuMzMgbCAtMzIuODMsMzIuODMgYyAtMS40OCwxLjQ4IC0xLjQ4LDMuODQgMCw1LjMyIGwgMzMuNDIsMzQuMDEgYyAxLjQ4LDEuNDggMS40OCwzLjg1IDAsNS4zMyAtMS40OCwxLjQ4IC0zLjg0LDEuMTggLTUuMDMsMCBMIDguMzkwNjUyMSw1Mi44NyBjIDAsMCAwLDAgLTAuMjksLTAuMjkgeiIvPiYjeGE7JiN4YTs8cGF0aCBpZD0icGF0aDEwMTMwNyIgaW5rc2NhcGU6Y29ubmVjdG9yLWN1cnZhdHVyZT0iMCIgc3R5bGU9ImZpbGw6IzdmYmEwMCIgZD0ibSA1My45NDA2NTIsNDEuOTMgYyAwLDUuNjIgLTQuNzMsOS43NiAtOS43Niw5Ljc2IC01LjAzLDAgLTEwLjM1LC00Ljc0IC0xMC4zNSwtOS43NiAwLC01LjAzIDQuMTQsLTkuNzYgMTAuMzUsLTkuNzYgNS45MiwwIDkuNzYsNC43MyA5Ljc2LDkuNzYgeiIvPiYjeGE7JiN4YTs8cGF0aCBpZD0icGF0aDEwMTMxNSIgaW5rc2NhcGU6Y29ubmVjdG9yLWN1cnZhdHVyZT0iMCIgc3R5bGU9ImZpbGw6IzdmYmEwMCIgZD0ibSA4My44MTA2NTIsNDEuOTMgYyAwLDUuNjIgLTQuNzMsOS43NiAtOS43Niw5Ljc2IC01LjAzLDAgLTEwLjM1LC00Ljc0IC0xMC4zNSwtOS43NiAwLC01LjAzIDQuNzMsLTkuNzYgMTAuMzUsLTkuNzYgNS42MiwwIDkuNzYsNC43MyA5Ljc2LDkuNzYgeiIvPiYjeGE7JiN4YTs8Y2lyY2xlIGlkPSJlbGxpcHNlMTAxMzIzIiBzdHlsZT0iZmlsbDojN2ZiYTAwIiBjeD0iMTA0LjIyMDY1IiBjeT0iNDEuOTMiIHI9IjkuNzYwMDAwMiIvPiYjeGE7PC9zdmc+;fontSize=14;" vertex="1" parent="1">
          <mxGeometry x="378.93" y="250" width="69.65" height="40" as="geometry" />
        </mxCell>
        <mxCell id="RSznJ-GNL0sqVoyYkRlf-57" style="edgeStyle=none;shape=link;rounded=0;orthogonalLoop=1;jettySize=auto;html=1;exitX=1;exitY=0.5;exitDx=0;exitDy=0;fontSize=11;entryX=0.418;entryY=0.031;entryDx=0;entryDy=0;entryPerimeter=0;" edge="1" parent="1" source="RSznJ-GNL0sqVoyYkRlf-26" target="RSznJ-GNL0sqVoyYkRlf-66">
          <mxGeometry relative="1" as="geometry">
            <mxPoint x="520" y="377" as="targetPoint" />
          </mxGeometry>
        </mxCell>
        <mxCell id="RSznJ-GNL0sqVoyYkRlf-26" value="" style="shape=image;verticalLabelPosition=bottom;labelBackgroundColor=#ffffff;verticalAlign=top;aspect=fixed;imageAspect=0;image=data:image/svg+xml,PHN2ZyB4bWxuczpkYz0iaHR0cDovL3B1cmwub3JnL2RjL2VsZW1lbnRzLzEuMS8iIHhtbG5zOmNjPSJodHRwOi8vY3JlYXRpdmVjb21tb25zLm9yZy9ucyMiIHhtbG5zOnJkZj0iaHR0cDovL3d3dy53My5vcmcvMTk5OS8wMi8yMi1yZGYtc3ludGF4LW5zIyIgeG1sbnM6c3ZnPSJodHRwOi8vd3d3LnczLm9yZy8yMDAwL3N2ZyIgeG1sbnM9Imh0dHA6Ly93d3cudzMub3JnLzIwMDAvc3ZnIiB4bWxuczpzb2RpcG9kaT0iaHR0cDovL3NvZGlwb2RpLnNvdXJjZWZvcmdlLm5ldC9EVEQvc29kaXBvZGktMC5kdGQiIHhtbG5zOmlua3NjYXBlPSJodHRwOi8vd3d3Lmlua3NjYXBlLm9yZy9uYW1lc3BhY2VzL2lua3NjYXBlIiB2ZXJzaW9uPSIxLjEiIGlkPSJzdmcxMDEzMjkiIGlua3NjYXBlOnZlcnNpb249IjAuOTIuMyAoMjQwNTU0NiwgMjAxOC0wMy0xMSkiIHNvZGlwb2RpOmRvY25hbWU9InZpcnR1YWxfbmV0d29ya192bmV0LnN2ZyIgeD0iMHB4IiB5PSIwcHgiIHZpZXdCb3g9IjAgMCAxNDguMTExMyA4NC45MzA2NDgiIHhtbDpzcGFjZT0icHJlc2VydmUiIHdpZHRoPSIxNDguMTExMyIgaGVpZ2h0PSI4NC45MzA2NDkiPjxtZXRhZGF0YSBpZD0ibWV0YWRhdGE0MTk0Ij48cmRmOlJERj48Y2M6V29yayByZGY6YWJvdXQ9IiI+PGRjOmZvcm1hdD5pbWFnZS9zdmcreG1sPC9kYzpmb3JtYXQ+PGRjOnR5cGUgcmRmOnJlc291cmNlPSJodHRwOi8vcHVybC5vcmcvZGMvZGNtaXR5cGUvU3RpbGxJbWFnZSIvPjxkYzp0aXRsZS8+PC9jYzpXb3JrPjwvcmRmOlJERj48L21ldGFkYXRhPjxkZWZzIGlkPSJkZWZzNDE5MiI+JiN4YTsJJiN4YTsmI3hhOwkmI3hhOyYjeGE7CSYjeGE7JiN4YTsJJiN4YTsmI3hhOwkmI3hhOyYjeGE7CQkmI3hhOwkmI3hhOwkJJiN4YTsJJiN4YTsJCSYjeGE7CSYjeGE7CQkmI3hhOwkmI3hhOwkJJiN4YTsJPC9kZWZzPiYjeGE7PGZpbHRlciBpZD0iZmlsdGVyXzIiPiYjeGE7CTxmZUdhdXNzaWFuQmx1ciBpZD0iZmVHYXVzc2lhbkJsdXIxMDEyNzgiIHN0ZERldmlhdGlvbj0iMiIvPiYjeGE7PC9maWx0ZXI+JiN4YTs8c29kaXBvZGk6bmFtZWR2aWV3IGJvcmRlcmNvbG9yPSIjNjY2NjY2IiBib3JkZXJvcGFjaXR5PSIxIiBmaXQtbWFyZ2luLWJvdHRvbT0iMCIgZml0LW1hcmdpbi1sZWZ0PSIwIiBmaXQtbWFyZ2luLXJpZ2h0PSIwIiBmaXQtbWFyZ2luLXRvcD0iMCIgZ3JpZHRvbGVyYW5jZT0iMTAiIGd1aWRldG9sZXJhbmNlPSIxMCIgaWQ9Im5hbWVkdmlldzEwMTMzMSIgaW5rc2NhcGU6Y3VycmVudC1sYXllcj0ic3ZnMTAxMzI5IiBpbmtzY2FwZTpjeD0iNDAuMTgyNTg3IiBpbmtzY2FwZTpjeT0iMTguNTU3ODYzIiBpbmtzY2FwZTpwYWdlb3BhY2l0eT0iMCIgaW5rc2NhcGU6cGFnZXNoYWRvdz0iMiIgaW5rc2NhcGU6d2luZG93LWhlaWdodD0iMTAxNyIgaW5rc2NhcGU6d2luZG93LW1heGltaXplZD0iMSIgaW5rc2NhcGU6d2luZG93LXdpZHRoPSIxOTIwIiBpbmtzY2FwZTp3aW5kb3cteD0iLTgiIGlua3NjYXBlOndpbmRvdy15PSItOCIgaW5rc2NhcGU6em9vbT0iMi45NzE3MDUzIiBvYmplY3R0b2xlcmFuY2U9IjEwIiBwYWdlY29sb3I9IiNmZmZmZmYiIHNob3dncmlkPSJmYWxzZSI+JiN4YTsJPC9zb2RpcG9kaTpuYW1lZHZpZXc+JiN4YTsmI3hhOzxwYXRoIGlkPSJwYXRoMTAxMjkxIiBpbmtzY2FwZTpjb25uZWN0b3ItY3VydmF0dXJlPSIwIiBzdHlsZT0iZmlsbDojMzk5OWM2IiBkPSJtIDE0Ny4xMTA2NSw0NC41OSBjIDEuNDgsLTEuNDggMS4xOCwtMy44NCAwLC01LjMyIGwgLTcuMSwtNy4xIC0zMS45NCwtMzEuMDYgYyAtMS40OCwtMS40OCAtMy41NSwtMS40OCAtNS4wMywwIC0xLjQ4LDEuNDggLTEuNzcsMy44NSAwLDUuMzMgbCAzMy40MiwzMi44MyBjIDEuNDgsMS40OCAxLjQ4LDMuODQgMCw1LjMyIGwgLTM0LjAxLDM0LjAxIGMgLTEuNDgsMS40OCAtMS40OCwzLjg1IDAsNS4zMyAxLjQ4LDEuNDggMy44NCwxLjE4IDUuMDMsMCBsIDMxLjY0LC0zMS4zNSBjIDAsMCAwLDAgMC4zLC0wLjMgeiIvPiYjeGE7JiN4YTs8cGF0aCBpZD0icGF0aDEwMTI5OSIgaW5rc2NhcGU6Y29ubmVjdG9yLWN1cnZhdHVyZT0iMCIgc3R5bGU9ImZpbGw6IzM5OTljNiIgZD0ibSAxLjAwMDY1MjEsNDQuNTkgYyAtMS40OCwtMS40OCAtMS4xOCwtMy44NCAwLC01LjMyIGwgNy4xLC03LjEgTCA0MC4wNDA2NTIsMS4xMSBjIDEuNDgsLTEuNDggMy41NSwtMS40OCA1LjAzLDAgMS40OCwxLjQ4IDEuNzcsMy44NSAwLDUuMzMgbCAtMzIuODMsMzIuODMgYyAtMS40OCwxLjQ4IC0xLjQ4LDMuODQgMCw1LjMyIGwgMzMuNDIsMzQuMDEgYyAxLjQ4LDEuNDggMS40OCwzLjg1IDAsNS4zMyAtMS40OCwxLjQ4IC0zLjg0LDEuMTggLTUuMDMsMCBMIDguMzkwNjUyMSw1Mi44NyBjIDAsMCAwLDAgLTAuMjksLTAuMjkgeiIvPiYjeGE7JiN4YTs8cGF0aCBpZD0icGF0aDEwMTMwNyIgaW5rc2NhcGU6Y29ubmVjdG9yLWN1cnZhdHVyZT0iMCIgc3R5bGU9ImZpbGw6IzdmYmEwMCIgZD0ibSA1My45NDA2NTIsNDEuOTMgYyAwLDUuNjIgLTQuNzMsOS43NiAtOS43Niw5Ljc2IC01LjAzLDAgLTEwLjM1LC00Ljc0IC0xMC4zNSwtOS43NiAwLC01LjAzIDQuMTQsLTkuNzYgMTAuMzUsLTkuNzYgNS45MiwwIDkuNzYsNC43MyA5Ljc2LDkuNzYgeiIvPiYjeGE7JiN4YTs8cGF0aCBpZD0icGF0aDEwMTMxNSIgaW5rc2NhcGU6Y29ubmVjdG9yLWN1cnZhdHVyZT0iMCIgc3R5bGU9ImZpbGw6IzdmYmEwMCIgZD0ibSA4My44MTA2NTIsNDEuOTMgYyAwLDUuNjIgLTQuNzMsOS43NiAtOS43Niw5Ljc2IC01LjAzLDAgLTEwLjM1LC00Ljc0IC0xMC4zNSwtOS43NiAwLC01LjAzIDQuNzMsLTkuNzYgMTAuMzUsLTkuNzYgNS42MiwwIDkuNzYsNC43MyA5Ljc2LDkuNzYgeiIvPiYjeGE7JiN4YTs8Y2lyY2xlIGlkPSJlbGxpcHNlMTAxMzIzIiBzdHlsZT0iZmlsbDojN2ZiYTAwIiBjeD0iMTA0LjIyMDY1IiBjeT0iNDEuOTMiIHI9IjkuNzYwMDAwMiIvPiYjeGE7PC9zdmc+;fontSize=14;" vertex="1" parent="1">
          <mxGeometry x="378.93" y="357.2" width="69.65" height="40" as="geometry" />
        </mxCell>
        <mxCell id="RSznJ-GNL0sqVoyYkRlf-50" style="edgeStyle=none;shape=link;rounded=0;orthogonalLoop=1;jettySize=auto;html=1;exitX=0.5;exitY=0;exitDx=0;exitDy=0;entryX=0;entryY=0.75;entryDx=0;entryDy=0;fontSize=11;" edge="1" parent="1" source="RSznJ-GNL0sqVoyYkRlf-29" target="RSznJ-GNL0sqVoyYkRlf-5">
          <mxGeometry relative="1" as="geometry" />
        </mxCell>
        <mxCell id="RSznJ-GNL0sqVoyYkRlf-29" value="" style="shape=image;verticalLabelPosition=bottom;labelBackgroundColor=#ffffff;verticalAlign=top;aspect=fixed;imageAspect=0;image=data:image/svg+xml,PHN2ZyB4bWxuczpjYz0iaHR0cDovL2NyZWF0aXZlY29tbW9ucy5vcmcvbnMjIiB4bWxuczpkYz0iaHR0cDovL3B1cmwub3JnL2RjL2VsZW1lbnRzLzEuMS8iIHhtbG5zOmlua3NjYXBlPSJodHRwOi8vd3d3Lmlua3NjYXBlLm9yZy9uYW1lc3BhY2VzL2lua3NjYXBlIiB4bWxuczpyZGY9Imh0dHA6Ly93d3cudzMub3JnLzE5OTkvMDIvMjItcmRmLXN5bnRheC1ucyMiIHhtbG5zOnNvZGlwb2RpPSJodHRwOi8vc29kaXBvZGkuc291cmNlZm9yZ2UubmV0L0RURC9zb2RpcG9kaS0wLmR0ZCIgeG1sbnM6c3ZnPSJodHRwOi8vd3d3LnczLm9yZy8yMDAwL3N2ZyIgeG1sbnM9Imh0dHA6Ly93d3cudzMub3JnLzIwMDAvc3ZnIiB4bWxuczp4bGluaz0iaHR0cDovL3d3dy53My5vcmcvMTk5OS94bGluayIgdmVyc2lvbj0iMS4xIiBpZD0ic3ZnODc0MzQiIGlua3NjYXBlOnZlcnNpb249IjAuOTIuMyAoMjQwNTU0NiwgMjAxOC0wMy0xMSkiIHNvZGlwb2RpOmRvY25hbWU9Im5ldHdvcmtfaW50ZXJmYWNlLnN2ZyIgeD0iMHB4IiB5PSIwcHgiIHZpZXdCb3g9IjAgMCAzMy44OCAzNy44OSIgc3R5bGU9ImVuYWJsZS1iYWNrZ3JvdW5kOm5ldyAwIDAgMzMuODggMzcuODk7IiB4bWw6c3BhY2U9InByZXNlcnZlIj4mI3hhOzxzb2RpcG9kaTpuYW1lZHZpZXcgYm9yZGVyY29sb3I9IiM2NjY2NjYiIGJvcmRlcm9wYWNpdHk9IjEiIGZpdC1tYXJnaW4tYm90dG9tPSIwIiBmaXQtbWFyZ2luLWxlZnQ9IjAiIGZpdC1tYXJnaW4tcmlnaHQ9IjAiIGZpdC1tYXJnaW4tdG9wPSIwIiBncmlkdG9sZXJhbmNlPSIxMCIgZ3VpZGV0b2xlcmFuY2U9IjEwIiBpZD0ibmFtZWR2aWV3ODc0MzYiIGlua3NjYXBlOmN1cnJlbnQtbGF5ZXI9InN2Zzg3NDM0IiBpbmtzY2FwZTpjeD0iMTMuMTgxMzciIGlua3NjYXBlOmN5PSIyMC4yOTk0NTQiIGlua3NjYXBlOnBhZ2VvcGFjaXR5PSIwIiBpbmtzY2FwZTpwYWdlc2hhZG93PSIyIiBpbmtzY2FwZTp3aW5kb3ctaGVpZ2h0PSIxMDE3IiBpbmtzY2FwZTp3aW5kb3ctbWF4aW1pemVkPSIxIiBpbmtzY2FwZTp3aW5kb3ctd2lkdGg9IjE5MjAiIGlua3NjYXBlOndpbmRvdy14PSItOCIgaW5rc2NhcGU6d2luZG93LXk9Ii04IiBpbmtzY2FwZTp6b29tPSIxMi4xMzQ5MTIiIG9iamVjdHRvbGVyYW5jZT0iMTAiIHBhZ2Vjb2xvcj0iI2ZmZmZmZiIgc2hvd2dyaWQ9ImZhbHNlIj4mI3hhOwk8L3NvZGlwb2RpOm5hbWVkdmlldz4mI3hhOzxnIGlkPSJnODc0MzIiIHRyYW5zZm9ybT0idHJhbnNsYXRlKC0yLjQ5Mzc1NjFlLTUpIj4mI3hhOwk8dGl0bGUgaWQ9InRpdGxlODczMzciPlBhZ2UtMTwvdGl0bGU+JiN4YTsJPGcgaWQ9Imdyb3VwNDY5MC0xIj4mI3hhOwkJPHRpdGxlIGlkPSJ0aXRsZTg3MzM5Ij5OZXR3b3JrIEludGVyZmFjZTwvdGl0bGU+JiN4YTsJCTxnIGlkPSJzaGFwZTQ2OTEtMiI+JiN4YTsJCQk8dGl0bGUgaWQ9InRpdGxlODczNDEiPlNoZWV0LjQ2OTE8L3RpdGxlPiYjeGE7CQkJPHBhdGggaWQ9InBhdGg4NzM0MyIgaW5rc2NhcGU6Y29ubmVjdG9yLWN1cnZhdHVyZT0iMCIgc3R5bGU9ImZpbGw6IzdGQkEwMDsiIGQ9Ik0wLDB2MzcuODloMzAuMzVWMEgweiIvPiYjeGE7CQk8L2c+JiN4YTsJCTxnIGlkPSJzaGFwZTQ2OTItNCIgdHJhbnNmb3JtPSJ0cmFuc2xhdGUoMzAuMzQ3NCwtMjguMjI2KSI+JiN4YTsJCQk8dGl0bGUgaWQ9InRpdGxlODczNDYiPlNoZWV0LjQ2OTI8L3RpdGxlPiYjeGE7CQkJPHBhdGggaWQ9InBhdGg4NzM0OCIgaW5rc2NhcGU6Y29ubmVjdG9yLWN1cnZhdHVyZT0iMCIgc3R5bGU9ImZpbGw6I0ZDRDExNjsiIGQ9Ik0wLDMwLjk5djYuOWgzLjUzdi02LjlIMHoiLz4mI3hhOwkJPC9nPiYjeGE7CQk8ZyBpZD0ic2hhcGU0NjkzLTYiIHRyYW5zZm9ybT0idHJhbnNsYXRlKDMwLjM0NzQsLTguNDM3MTMpIj4mI3hhOwkJCTx0aXRsZSBpZD0idGl0bGU4NzM1MSI+U2hlZXQuNDY5MzwvdGl0bGU+JiN4YTsJCQk8cGF0aCBpZD0icGF0aDg3MzUzIiBpbmtzY2FwZTpjb25uZWN0b3ItY3VydmF0dXJlPSIwIiBzdHlsZT0iZmlsbDojRkNEMTE2OyIgZD0iTTAsMjAuNHYxNy40OWgzLjUzVjIwLjRIMHoiLz4mI3hhOwkJPC9nPiYjeGE7CQk8ZyBpZD0ic2hhcGU0Njk0LTgiIHRyYW5zZm9ybT0idHJhbnNsYXRlKDEyLjEwODMsLTI1LjE1OCkiPiYjeGE7CQkJPHRpdGxlIGlkPSJ0aXRsZTg3MzU2Ij5TaGVldC40Njk0PC90aXRsZT4mI3hhOwkJCTxwYXRoIGlkPSJwYXRoODczNTgiIGlua3NjYXBlOmNvbm5lY3Rvci1jdXJ2YXR1cmU9IjAiIHN0eWxlPSJmaWxsOiMyRDMyMzk7IiBkPSJNMCwyOC44NHY5LjA1aDE0LjQxdi05LjA1SDB6Ii8+JiN4YTsJCTwvZz4mI3hhOwkJPGcgaWQ9InNoYXBlNDY5NS0xMCIgdHJhbnNmb3JtPSJ0cmFuc2xhdGUoOS41MDI3MywtMy41MjgyNSkiPiYjeGE7CQkJPHRpdGxlIGlkPSJ0aXRsZTg3MzYxIj5TaGVldC40Njk1PC90aXRsZT4mI3hhOwkJCTxwYXRoIGlkPSJwYXRoODczNjMiIGlua3NjYXBlOmNvbm5lY3Rvci1jdXJ2YXR1cmU9IjAiIHN0eWxlPSJmaWxsOiMyRDMyMzk7IiBkPSJNMCwyNy42MXYxMC4yOGgyLjNWMjcuNjFIMHoiLz4mI3hhOwkJPC9nPiYjeGE7CQk8ZyBpZD0ic2hhcGU0Njk2LTEyIiB0cmFuc2Zvcm09InRyYW5zbGF0ZSgxMy40ODc3LC0zLjUyODI1KSI+JiN4YTsJCQk8dGl0bGUgaWQ9InRpdGxlODczNjYiPlNoZWV0LjQ2OTY8L3RpdGxlPiYjeGE7CQkJPHBhdGggaWQ9InBhdGg4NzM2OCIgaW5rc2NhcGU6Y29ubmVjdG9yLWN1cnZhdHVyZT0iMCIgc3R5bGU9ImZpbGw6IzJEMzIzOTsiIGQ9Ik0wLDI3LjYxdjEwLjI4aDIuNDVWMjcuNjFIMHoiLz4mI3hhOwkJPC9nPiYjeGE7CQk8ZyBpZD0ic2hhcGU0Njk3LTE0IiB0cmFuc2Zvcm09InRyYW5zbGF0ZSgyMi4zNzc0LC0zLjk4ODQ2KSI+JiN4YTsJCQk8dGl0bGUgaWQ9InRpdGxlODczNzEiPlNoZWV0LjQ2OTc8L3RpdGxlPiYjeGE7CQkJPHBhdGggaWQ9InBhdGg4NzM3MyIgaW5rc2NhcGU6Y29ubmVjdG9yLWN1cnZhdHVyZT0iMCIgc3R5bGU9ImZpbGw6I0U1RTVFNTsiIGQ9Ik0wLDI4LjUzdjkuMzZoMy41M3YtOS4zNkwwLDI4LjUzeiIvPiYjeGE7CQk8L2c+JiN4YTsJCTxnIGlkPSJzaGFwZTQ2OTgtMTYiIHRyYW5zZm9ybT0idHJhbnNsYXRlKDExLjM0MiwtMTcuNjQxMykiPiYjeGE7CQkJPHRpdGxlIGlkPSJ0aXRsZTg3Mzc2Ij5TaGVldC40Njk4PC90aXRsZT4mI3hhOwkJCTxwYXRoIGlkPSJwYXRoODczNzgiIGlua3NjYXBlOmNvbm5lY3Rvci1jdXJ2YXR1cmU9IjAiIHN0eWxlPSJmaWxsOiNFNUU1RTU7IiBkPSJNMCwzNS45N2MwLTEuMDUsMC44Mi0xLjkxLDEuODQtMS45MSAgICAgczEuODQsMC44NiwxLjg0LDEuOTFjMCwxLjA3LTAuODIsMS45Mi0xLjg0LDEuOTJTMCwzNy4wNCwwLDM1Ljk3eiIvPiYjeGE7CQk8L2c+JiN4YTsJCTxnIGlkPSJzaGFwZTQ2OTktMTgiIHRyYW5zZm9ybT0idHJhbnNsYXRlKDIxLjc2NDMsLTE5LjAyMTkpIj4mI3hhOwkJCTx0aXRsZSBpZD0idGl0bGU4NzM4MSI+U2hlZXQuNDY5OTwvdGl0bGU+JiN4YTsJCQk8cGF0aCBpZD0icGF0aDg3MzgzIiBpbmtzY2FwZTpjb25uZWN0b3ItY3VydmF0dXJlPSIwIiBzdHlsZT0iZmlsbDojNkU5RTBCOyIgZD0iTTAsMzEuNzV2Ni4xNGgxLjUzdi02LjE0SDB6Ii8+JiN4YTsJCTwvZz4mI3hhOwkJPGcgaWQ9InNoYXBlNDcwMC0yMCIgdHJhbnNmb3JtPSJ0cmFuc2xhdGUoMTguMjM5MSwtNy41MTY3MikiPiYjeGE7CQkJPHRpdGxlIGlkPSJ0aXRsZTg3Mzg2Ij5TaGVldC40NzAwPC90aXRsZT4mI3hhOwkJCTxwYXRoIGlkPSJwYXRoODczODgiIGlua3NjYXBlOmNvbm5lY3Rvci1jdXJ2YXR1cmU9IjAiIHN0eWxlPSJmaWxsOiM2RTlFMEI7IiBkPSJNMCwyNS4xMnYxMi43N2gxLjUzVjI1LjEySDB6Ii8+JiN4YTsJCTwvZz4mI3hhOwkJPGcgaWQ9InNoYXBlNDcwMS0yMiIgdHJhbnNmb3JtPSJ0cmFuc2xhdGUoNi4yODQwNiwtOS4zNTc1NCkiPiYjeGE7CQkJPHRpdGxlIGlkPSJ0aXRsZTg3MzkxIj5TaGVldC40NzAxPC90aXRsZT4mI3hhOwkJCTxwYXRoIGlkPSJwYXRoODczOTMiIGlua3NjYXBlOmNvbm5lY3Rvci1jdXJ2YXR1cmU9IjAiIHN0eWxlPSJmaWxsOiM2RTlFMEI7IiBkPSJNMCwxOC41NnYxOS4zM2gxLjUzVjE4LjU2SDB6Ii8+JiN4YTsJCTwvZz4mI3hhOwkJPGcgaWQ9InNoYXBlNDcwMi0yNCIgdHJhbnNmb3JtPSJ0cmFuc2xhdGUoMy4wNjU0LC01LjgyOTI5KSI+JiN4YTsJCQk8dGl0bGUgaWQ9InRpdGxlODczOTYiPlNoZWV0LjQ3MDI8L3RpdGxlPiYjeGE7CQkJPHBhdGggaWQ9InBhdGg4NzM5OCIgaW5rc2NhcGU6Y29ubmVjdG9yLWN1cnZhdHVyZT0iMCIgc3R5bGU9ImZpbGw6IzZFOUUwQjsiIGQ9Ik0wLDExLjgxdjI2LjA4aDEuNjlWMTEuODFIMHoiLz4mI3hhOwkJPC9nPiYjeGE7CQk8ZyBpZD0ic2hhcGU0NzAzLTI2IiB0cmFuc2Zvcm09InRyYW5zbGF0ZSgxOC4yMzkxLC0xOS4wMjE5KSI+JiN4YTsJCQk8dGl0bGUgaWQ9InRpdGxlODc0MDEiPlNoZWV0LjQ3MDM8L3RpdGxlPiYjeGE7CQkJPHBhdGggaWQ9InBhdGg4NzQwMyIgaW5rc2NhcGU6Y29ubmVjdG9yLWN1cnZhdHVyZT0iMCIgc3R5bGU9ImZpbGw6IzZFOUUwQjsiIGQ9Ik01LjA2LDM2LjM2djEuNTNIMHYtMS41M0g1LjA2eiIvPiYjeGE7CQk8L2c+JiN4YTsJCTxnIGlkPSJzaGFwZTQ3MDQtMjgiIHRyYW5zZm9ybT0idHJhbnNsYXRlKDE4LjM0NDMsLTcuNTE2NzIpIj4mI3hhOwkJCTx0aXRsZSBpZD0idGl0bGU4NzQwNiI+U2hlZXQuNDcwNDwvdGl0bGU+JiN4YTsJCQk8cGF0aCBpZD0icGF0aDg3NDA4IiBpbmtzY2FwZTpjb25uZWN0b3ItY3VydmF0dXJlPSIwIiBzdHlsZT0iZmlsbDojNkU5RTBCOyIgZD0iTTQuMDMsMzYuMzZ2MS41M0gwdi0xLjUzSDQuMDN6Ii8+JiN4YTsJCTwvZz4mI3hhOwkJPGcgaWQ9InNoYXBlNDcwNS0zMCIgdHJhbnNmb3JtPSJ0cmFuc2xhdGUoMy4wNjU0LC01LjgyOTI5KSI+JiN4YTsJCQk8dGl0bGUgaWQ9InRpdGxlODc0MTEiPlNoZWV0LjQ3MDU8L3RpdGxlPiYjeGE7CQkJPHBhdGggaWQ9InBhdGg4NzQxMyIgaW5rc2NhcGU6Y29ubmVjdG9yLWN1cnZhdHVyZT0iMCIgc3R5bGU9ImZpbGw6IzZFOUUwQjsiIGQ9Ik02LjQ0LDM2LjJ2MS42OUgwVjM2LjJINi40NHoiLz4mI3hhOwkJPC9nPiYjeGE7CQk8ZyBpZD0ic2hhcGU0NzA2LTMyIiB0cmFuc2Zvcm09InRyYW5zbGF0ZSg2LjI4NDA2LC05LjM1NzU0KSI+JiN4YTsJCQk8dGl0bGUgaWQ9InRpdGxlODc0MTYiPlNoZWV0LjQ3MDY8L3RpdGxlPiYjeGE7CQkJPHBhdGggaWQ9InBhdGg4NzQxOCIgaW5rc2NhcGU6Y29ubmVjdG9yLWN1cnZhdHVyZT0iMCIgc3R5bGU9ImZpbGw6IzZFOUUwQjsiIGQ9Ik0zLjIyLDM2LjJ2MS42OUgwVjM2LjJIMy4yMnoiLz4mI3hhOwkJPC9nPiYjeGE7CQk8ZyBpZD0ic2hhcGU0NzA3LTM0IiB0cmFuc2Zvcm09InRyYW5zbGF0ZSgzLjA2NTQsLTMwLjM3MzcpIj4mI3hhOwkJCTx0aXRsZSBpZD0idGl0bGU4NzQyMSI+U2hlZXQuNDcwNzwvdGl0bGU+JiN4YTsJCQk8cGF0aCBpZD0icGF0aDg3NDIzIiBpbmtzY2FwZTpjb25uZWN0b3ItY3VydmF0dXJlPSIwIiBzdHlsZT0iZmlsbDojNkU5RTBCOyIgZD0iTTkuMDQsMzYuMnYxLjY5SDBWMzYuMkg5LjA0eiIvPiYjeGE7CQk8L2c+JiN4YTsJCTxnIGlkPSJzaGFwZTQ3MDgtMzYiIHRyYW5zZm9ybT0idHJhbnNsYXRlKDYuMjg0MDYsLTI3LjE1MjIpIj4mI3hhOwkJCTx0aXRsZSBpZD0idGl0bGU4NzQyNiI+U2hlZXQuNDcwODwvdGl0bGU+JiN4YTsJCQk8cGF0aCBpZD0icGF0aDg3NDI4IiBpbmtzY2FwZTpjb25uZWN0b3ItY3VydmF0dXJlPSIwIiBzdHlsZT0iZmlsbDojNkU5RTBCOyIgZD0iTTUuODIsMzYuMzZ2MS41M0gwdi0xLjUzSDUuODJ6Ii8+JiN4YTsJCTwvZz4mI3hhOwk8L2c+JiN4YTs8L2c+JiN4YTs8L3N2Zz4=;fontSize=14;" vertex="1" parent="1">
          <mxGeometry x="81.25999999999999" y="270" width="34" height="38" as="geometry" />
        </mxCell>
        <mxCell id="RSznJ-GNL0sqVoyYkRlf-52" style="edgeStyle=none;shape=link;rounded=0;orthogonalLoop=1;jettySize=auto;html=1;exitX=0.25;exitY=0;exitDx=0;exitDy=0;fontSize=11;" edge="1" parent="1" source="RSznJ-GNL0sqVoyYkRlf-30" target="RSznJ-GNL0sqVoyYkRlf-7">
          <mxGeometry relative="1" as="geometry" />
        </mxCell>
        <mxCell id="RSznJ-GNL0sqVoyYkRlf-30" value="" style="shape=image;verticalLabelPosition=bottom;labelBackgroundColor=#ffffff;verticalAlign=top;aspect=fixed;imageAspect=0;image=data:image/svg+xml,PHN2ZyB4bWxuczpjYz0iaHR0cDovL2NyZWF0aXZlY29tbW9ucy5vcmcvbnMjIiB4bWxuczpkYz0iaHR0cDovL3B1cmwub3JnL2RjL2VsZW1lbnRzLzEuMS8iIHhtbG5zOmlua3NjYXBlPSJodHRwOi8vd3d3Lmlua3NjYXBlLm9yZy9uYW1lc3BhY2VzL2lua3NjYXBlIiB4bWxuczpyZGY9Imh0dHA6Ly93d3cudzMub3JnLzE5OTkvMDIvMjItcmRmLXN5bnRheC1ucyMiIHhtbG5zOnNvZGlwb2RpPSJodHRwOi8vc29kaXBvZGkuc291cmNlZm9yZ2UubmV0L0RURC9zb2RpcG9kaS0wLmR0ZCIgeG1sbnM6c3ZnPSJodHRwOi8vd3d3LnczLm9yZy8yMDAwL3N2ZyIgeG1sbnM9Imh0dHA6Ly93d3cudzMub3JnLzIwMDAvc3ZnIiB4bWxuczp4bGluaz0iaHR0cDovL3d3dy53My5vcmcvMTk5OS94bGluayIgdmVyc2lvbj0iMS4xIiBpZD0ic3ZnODc0MzQiIGlua3NjYXBlOnZlcnNpb249IjAuOTIuMyAoMjQwNTU0NiwgMjAxOC0wMy0xMSkiIHNvZGlwb2RpOmRvY25hbWU9Im5ldHdvcmtfaW50ZXJmYWNlLnN2ZyIgeD0iMHB4IiB5PSIwcHgiIHZpZXdCb3g9IjAgMCAzMy44OCAzNy44OSIgc3R5bGU9ImVuYWJsZS1iYWNrZ3JvdW5kOm5ldyAwIDAgMzMuODggMzcuODk7IiB4bWw6c3BhY2U9InByZXNlcnZlIj4mI3hhOzxzb2RpcG9kaTpuYW1lZHZpZXcgYm9yZGVyY29sb3I9IiM2NjY2NjYiIGJvcmRlcm9wYWNpdHk9IjEiIGZpdC1tYXJnaW4tYm90dG9tPSIwIiBmaXQtbWFyZ2luLWxlZnQ9IjAiIGZpdC1tYXJnaW4tcmlnaHQ9IjAiIGZpdC1tYXJnaW4tdG9wPSIwIiBncmlkdG9sZXJhbmNlPSIxMCIgZ3VpZGV0b2xlcmFuY2U9IjEwIiBpZD0ibmFtZWR2aWV3ODc0MzYiIGlua3NjYXBlOmN1cnJlbnQtbGF5ZXI9InN2Zzg3NDM0IiBpbmtzY2FwZTpjeD0iMTMuMTgxMzciIGlua3NjYXBlOmN5PSIyMC4yOTk0NTQiIGlua3NjYXBlOnBhZ2VvcGFjaXR5PSIwIiBpbmtzY2FwZTpwYWdlc2hhZG93PSIyIiBpbmtzY2FwZTp3aW5kb3ctaGVpZ2h0PSIxMDE3IiBpbmtzY2FwZTp3aW5kb3ctbWF4aW1pemVkPSIxIiBpbmtzY2FwZTp3aW5kb3ctd2lkdGg9IjE5MjAiIGlua3NjYXBlOndpbmRvdy14PSItOCIgaW5rc2NhcGU6d2luZG93LXk9Ii04IiBpbmtzY2FwZTp6b29tPSIxMi4xMzQ5MTIiIG9iamVjdHRvbGVyYW5jZT0iMTAiIHBhZ2Vjb2xvcj0iI2ZmZmZmZiIgc2hvd2dyaWQ9ImZhbHNlIj4mI3hhOwk8L3NvZGlwb2RpOm5hbWVkdmlldz4mI3hhOzxnIGlkPSJnODc0MzIiIHRyYW5zZm9ybT0idHJhbnNsYXRlKC0yLjQ5Mzc1NjFlLTUpIj4mI3hhOwk8dGl0bGUgaWQ9InRpdGxlODczMzciPlBhZ2UtMTwvdGl0bGU+JiN4YTsJPGcgaWQ9Imdyb3VwNDY5MC0xIj4mI3hhOwkJPHRpdGxlIGlkPSJ0aXRsZTg3MzM5Ij5OZXR3b3JrIEludGVyZmFjZTwvdGl0bGU+JiN4YTsJCTxnIGlkPSJzaGFwZTQ2OTEtMiI+JiN4YTsJCQk8dGl0bGUgaWQ9InRpdGxlODczNDEiPlNoZWV0LjQ2OTE8L3RpdGxlPiYjeGE7CQkJPHBhdGggaWQ9InBhdGg4NzM0MyIgaW5rc2NhcGU6Y29ubmVjdG9yLWN1cnZhdHVyZT0iMCIgc3R5bGU9ImZpbGw6IzdGQkEwMDsiIGQ9Ik0wLDB2MzcuODloMzAuMzVWMEgweiIvPiYjeGE7CQk8L2c+JiN4YTsJCTxnIGlkPSJzaGFwZTQ2OTItNCIgdHJhbnNmb3JtPSJ0cmFuc2xhdGUoMzAuMzQ3NCwtMjguMjI2KSI+JiN4YTsJCQk8dGl0bGUgaWQ9InRpdGxlODczNDYiPlNoZWV0LjQ2OTI8L3RpdGxlPiYjeGE7CQkJPHBhdGggaWQ9InBhdGg4NzM0OCIgaW5rc2NhcGU6Y29ubmVjdG9yLWN1cnZhdHVyZT0iMCIgc3R5bGU9ImZpbGw6I0ZDRDExNjsiIGQ9Ik0wLDMwLjk5djYuOWgzLjUzdi02LjlIMHoiLz4mI3hhOwkJPC9nPiYjeGE7CQk8ZyBpZD0ic2hhcGU0NjkzLTYiIHRyYW5zZm9ybT0idHJhbnNsYXRlKDMwLjM0NzQsLTguNDM3MTMpIj4mI3hhOwkJCTx0aXRsZSBpZD0idGl0bGU4NzM1MSI+U2hlZXQuNDY5MzwvdGl0bGU+JiN4YTsJCQk8cGF0aCBpZD0icGF0aDg3MzUzIiBpbmtzY2FwZTpjb25uZWN0b3ItY3VydmF0dXJlPSIwIiBzdHlsZT0iZmlsbDojRkNEMTE2OyIgZD0iTTAsMjAuNHYxNy40OWgzLjUzVjIwLjRIMHoiLz4mI3hhOwkJPC9nPiYjeGE7CQk8ZyBpZD0ic2hhcGU0Njk0LTgiIHRyYW5zZm9ybT0idHJhbnNsYXRlKDEyLjEwODMsLTI1LjE1OCkiPiYjeGE7CQkJPHRpdGxlIGlkPSJ0aXRsZTg3MzU2Ij5TaGVldC40Njk0PC90aXRsZT4mI3hhOwkJCTxwYXRoIGlkPSJwYXRoODczNTgiIGlua3NjYXBlOmNvbm5lY3Rvci1jdXJ2YXR1cmU9IjAiIHN0eWxlPSJmaWxsOiMyRDMyMzk7IiBkPSJNMCwyOC44NHY5LjA1aDE0LjQxdi05LjA1SDB6Ii8+JiN4YTsJCTwvZz4mI3hhOwkJPGcgaWQ9InNoYXBlNDY5NS0xMCIgdHJhbnNmb3JtPSJ0cmFuc2xhdGUoOS41MDI3MywtMy41MjgyNSkiPiYjeGE7CQkJPHRpdGxlIGlkPSJ0aXRsZTg3MzYxIj5TaGVldC40Njk1PC90aXRsZT4mI3hhOwkJCTxwYXRoIGlkPSJwYXRoODczNjMiIGlua3NjYXBlOmNvbm5lY3Rvci1jdXJ2YXR1cmU9IjAiIHN0eWxlPSJmaWxsOiMyRDMyMzk7IiBkPSJNMCwyNy42MXYxMC4yOGgyLjNWMjcuNjFIMHoiLz4mI3hhOwkJPC9nPiYjeGE7CQk8ZyBpZD0ic2hhcGU0Njk2LTEyIiB0cmFuc2Zvcm09InRyYW5zbGF0ZSgxMy40ODc3LC0zLjUyODI1KSI+JiN4YTsJCQk8dGl0bGUgaWQ9InRpdGxlODczNjYiPlNoZWV0LjQ2OTY8L3RpdGxlPiYjeGE7CQkJPHBhdGggaWQ9InBhdGg4NzM2OCIgaW5rc2NhcGU6Y29ubmVjdG9yLWN1cnZhdHVyZT0iMCIgc3R5bGU9ImZpbGw6IzJEMzIzOTsiIGQ9Ik0wLDI3LjYxdjEwLjI4aDIuNDVWMjcuNjFIMHoiLz4mI3hhOwkJPC9nPiYjeGE7CQk8ZyBpZD0ic2hhcGU0Njk3LTE0IiB0cmFuc2Zvcm09InRyYW5zbGF0ZSgyMi4zNzc0LC0zLjk4ODQ2KSI+JiN4YTsJCQk8dGl0bGUgaWQ9InRpdGxlODczNzEiPlNoZWV0LjQ2OTc8L3RpdGxlPiYjeGE7CQkJPHBhdGggaWQ9InBhdGg4NzM3MyIgaW5rc2NhcGU6Y29ubmVjdG9yLWN1cnZhdHVyZT0iMCIgc3R5bGU9ImZpbGw6I0U1RTVFNTsiIGQ9Ik0wLDI4LjUzdjkuMzZoMy41M3YtOS4zNkwwLDI4LjUzeiIvPiYjeGE7CQk8L2c+JiN4YTsJCTxnIGlkPSJzaGFwZTQ2OTgtMTYiIHRyYW5zZm9ybT0idHJhbnNsYXRlKDExLjM0MiwtMTcuNjQxMykiPiYjeGE7CQkJPHRpdGxlIGlkPSJ0aXRsZTg3Mzc2Ij5TaGVldC40Njk4PC90aXRsZT4mI3hhOwkJCTxwYXRoIGlkPSJwYXRoODczNzgiIGlua3NjYXBlOmNvbm5lY3Rvci1jdXJ2YXR1cmU9IjAiIHN0eWxlPSJmaWxsOiNFNUU1RTU7IiBkPSJNMCwzNS45N2MwLTEuMDUsMC44Mi0xLjkxLDEuODQtMS45MSAgICAgczEuODQsMC44NiwxLjg0LDEuOTFjMCwxLjA3LTAuODIsMS45Mi0xLjg0LDEuOTJTMCwzNy4wNCwwLDM1Ljk3eiIvPiYjeGE7CQk8L2c+JiN4YTsJCTxnIGlkPSJzaGFwZTQ2OTktMTgiIHRyYW5zZm9ybT0idHJhbnNsYXRlKDIxLjc2NDMsLTE5LjAyMTkpIj4mI3hhOwkJCTx0aXRsZSBpZD0idGl0bGU4NzM4MSI+U2hlZXQuNDY5OTwvdGl0bGU+JiN4YTsJCQk8cGF0aCBpZD0icGF0aDg3MzgzIiBpbmtzY2FwZTpjb25uZWN0b3ItY3VydmF0dXJlPSIwIiBzdHlsZT0iZmlsbDojNkU5RTBCOyIgZD0iTTAsMzEuNzV2Ni4xNGgxLjUzdi02LjE0SDB6Ii8+JiN4YTsJCTwvZz4mI3hhOwkJPGcgaWQ9InNoYXBlNDcwMC0yMCIgdHJhbnNmb3JtPSJ0cmFuc2xhdGUoMTguMjM5MSwtNy41MTY3MikiPiYjeGE7CQkJPHRpdGxlIGlkPSJ0aXRsZTg3Mzg2Ij5TaGVldC40NzAwPC90aXRsZT4mI3hhOwkJCTxwYXRoIGlkPSJwYXRoODczODgiIGlua3NjYXBlOmNvbm5lY3Rvci1jdXJ2YXR1cmU9IjAiIHN0eWxlPSJmaWxsOiM2RTlFMEI7IiBkPSJNMCwyNS4xMnYxMi43N2gxLjUzVjI1LjEySDB6Ii8+JiN4YTsJCTwvZz4mI3hhOwkJPGcgaWQ9InNoYXBlNDcwMS0yMiIgdHJhbnNmb3JtPSJ0cmFuc2xhdGUoNi4yODQwNiwtOS4zNTc1NCkiPiYjeGE7CQkJPHRpdGxlIGlkPSJ0aXRsZTg3MzkxIj5TaGVldC40NzAxPC90aXRsZT4mI3hhOwkJCTxwYXRoIGlkPSJwYXRoODczOTMiIGlua3NjYXBlOmNvbm5lY3Rvci1jdXJ2YXR1cmU9IjAiIHN0eWxlPSJmaWxsOiM2RTlFMEI7IiBkPSJNMCwxOC41NnYxOS4zM2gxLjUzVjE4LjU2SDB6Ii8+JiN4YTsJCTwvZz4mI3hhOwkJPGcgaWQ9InNoYXBlNDcwMi0yNCIgdHJhbnNmb3JtPSJ0cmFuc2xhdGUoMy4wNjU0LC01LjgyOTI5KSI+JiN4YTsJCQk8dGl0bGUgaWQ9InRpdGxlODczOTYiPlNoZWV0LjQ3MDI8L3RpdGxlPiYjeGE7CQkJPHBhdGggaWQ9InBhdGg4NzM5OCIgaW5rc2NhcGU6Y29ubmVjdG9yLWN1cnZhdHVyZT0iMCIgc3R5bGU9ImZpbGw6IzZFOUUwQjsiIGQ9Ik0wLDExLjgxdjI2LjA4aDEuNjlWMTEuODFIMHoiLz4mI3hhOwkJPC9nPiYjeGE7CQk8ZyBpZD0ic2hhcGU0NzAzLTI2IiB0cmFuc2Zvcm09InRyYW5zbGF0ZSgxOC4yMzkxLC0xOS4wMjE5KSI+JiN4YTsJCQk8dGl0bGUgaWQ9InRpdGxlODc0MDEiPlNoZWV0LjQ3MDM8L3RpdGxlPiYjeGE7CQkJPHBhdGggaWQ9InBhdGg4NzQwMyIgaW5rc2NhcGU6Y29ubmVjdG9yLWN1cnZhdHVyZT0iMCIgc3R5bGU9ImZpbGw6IzZFOUUwQjsiIGQ9Ik01LjA2LDM2LjM2djEuNTNIMHYtMS41M0g1LjA2eiIvPiYjeGE7CQk8L2c+JiN4YTsJCTxnIGlkPSJzaGFwZTQ3MDQtMjgiIHRyYW5zZm9ybT0idHJhbnNsYXRlKDE4LjM0NDMsLTcuNTE2NzIpIj4mI3hhOwkJCTx0aXRsZSBpZD0idGl0bGU4NzQwNiI+U2hlZXQuNDcwNDwvdGl0bGU+JiN4YTsJCQk8cGF0aCBpZD0icGF0aDg3NDA4IiBpbmtzY2FwZTpjb25uZWN0b3ItY3VydmF0dXJlPSIwIiBzdHlsZT0iZmlsbDojNkU5RTBCOyIgZD0iTTQuMDMsMzYuMzZ2MS41M0gwdi0xLjUzSDQuMDN6Ii8+JiN4YTsJCTwvZz4mI3hhOwkJPGcgaWQ9InNoYXBlNDcwNS0zMCIgdHJhbnNmb3JtPSJ0cmFuc2xhdGUoMy4wNjU0LC01LjgyOTI5KSI+JiN4YTsJCQk8dGl0bGUgaWQ9InRpdGxlODc0MTEiPlNoZWV0LjQ3MDU8L3RpdGxlPiYjeGE7CQkJPHBhdGggaWQ9InBhdGg4NzQxMyIgaW5rc2NhcGU6Y29ubmVjdG9yLWN1cnZhdHVyZT0iMCIgc3R5bGU9ImZpbGw6IzZFOUUwQjsiIGQ9Ik02LjQ0LDM2LjJ2MS42OUgwVjM2LjJINi40NHoiLz4mI3hhOwkJPC9nPiYjeGE7CQk8ZyBpZD0ic2hhcGU0NzA2LTMyIiB0cmFuc2Zvcm09InRyYW5zbGF0ZSg2LjI4NDA2LC05LjM1NzU0KSI+JiN4YTsJCQk8dGl0bGUgaWQ9InRpdGxlODc0MTYiPlNoZWV0LjQ3MDY8L3RpdGxlPiYjeGE7CQkJPHBhdGggaWQ9InBhdGg4NzQxOCIgaW5rc2NhcGU6Y29ubmVjdG9yLWN1cnZhdHVyZT0iMCIgc3R5bGU9ImZpbGw6IzZFOUUwQjsiIGQ9Ik0zLjIyLDM2LjJ2MS42OUgwVjM2LjJIMy4yMnoiLz4mI3hhOwkJPC9nPiYjeGE7CQk8ZyBpZD0ic2hhcGU0NzA3LTM0IiB0cmFuc2Zvcm09InRyYW5zbGF0ZSgzLjA2NTQsLTMwLjM3MzcpIj4mI3hhOwkJCTx0aXRsZSBpZD0idGl0bGU4NzQyMSI+U2hlZXQuNDcwNzwvdGl0bGU+JiN4YTsJCQk8cGF0aCBpZD0icGF0aDg3NDIzIiBpbmtzY2FwZTpjb25uZWN0b3ItY3VydmF0dXJlPSIwIiBzdHlsZT0iZmlsbDojNkU5RTBCOyIgZD0iTTkuMDQsMzYuMnYxLjY5SDBWMzYuMkg5LjA0eiIvPiYjeGE7CQk8L2c+JiN4YTsJCTxnIGlkPSJzaGFwZTQ3MDgtMzYiIHRyYW5zZm9ybT0idHJhbnNsYXRlKDYuMjg0MDYsLTI3LjE1MjIpIj4mI3hhOwkJCTx0aXRsZSBpZD0idGl0bGU4NzQyNiI+U2hlZXQuNDcwODwvdGl0bGU+JiN4YTsJCQk8cGF0aCBpZD0icGF0aDg3NDI4IiBpbmtzY2FwZTpjb25uZWN0b3ItY3VydmF0dXJlPSIwIiBzdHlsZT0iZmlsbDojNkU5RTBCOyIgZD0iTTUuODIsMzYuMzZ2MS41M0gwdi0xLjUzSDUuODJ6Ii8+JiN4YTsJCTwvZz4mI3hhOwk8L2c+JiN4YTs8L2c+JiN4YTs8L3N2Zz4=;fontSize=14;" vertex="1" parent="1">
          <mxGeometry x="48" y="434.4" width="34" height="38" as="geometry" />
        </mxCell>
        <mxCell id="RSznJ-GNL0sqVoyYkRlf-54" style="edgeStyle=none;shape=link;rounded=0;orthogonalLoop=1;jettySize=auto;html=1;exitX=0.25;exitY=0;exitDx=0;exitDy=0;fontSize=11;" edge="1" parent="1" source="RSznJ-GNL0sqVoyYkRlf-31" target="RSznJ-GNL0sqVoyYkRlf-8">
          <mxGeometry relative="1" as="geometry" />
        </mxCell>
        <mxCell id="RSznJ-GNL0sqVoyYkRlf-31" value="" style="shape=image;verticalLabelPosition=bottom;labelBackgroundColor=#ffffff;verticalAlign=top;aspect=fixed;imageAspect=0;image=data:image/svg+xml,PHN2ZyB4bWxuczpjYz0iaHR0cDovL2NyZWF0aXZlY29tbW9ucy5vcmcvbnMjIiB4bWxuczpkYz0iaHR0cDovL3B1cmwub3JnL2RjL2VsZW1lbnRzLzEuMS8iIHhtbG5zOmlua3NjYXBlPSJodHRwOi8vd3d3Lmlua3NjYXBlLm9yZy9uYW1lc3BhY2VzL2lua3NjYXBlIiB4bWxuczpyZGY9Imh0dHA6Ly93d3cudzMub3JnLzE5OTkvMDIvMjItcmRmLXN5bnRheC1ucyMiIHhtbG5zOnNvZGlwb2RpPSJodHRwOi8vc29kaXBvZGkuc291cmNlZm9yZ2UubmV0L0RURC9zb2RpcG9kaS0wLmR0ZCIgeG1sbnM6c3ZnPSJodHRwOi8vd3d3LnczLm9yZy8yMDAwL3N2ZyIgeG1sbnM9Imh0dHA6Ly93d3cudzMub3JnLzIwMDAvc3ZnIiB4bWxuczp4bGluaz0iaHR0cDovL3d3dy53My5vcmcvMTk5OS94bGluayIgdmVyc2lvbj0iMS4xIiBpZD0ic3ZnODc0MzQiIGlua3NjYXBlOnZlcnNpb249IjAuOTIuMyAoMjQwNTU0NiwgMjAxOC0wMy0xMSkiIHNvZGlwb2RpOmRvY25hbWU9Im5ldHdvcmtfaW50ZXJmYWNlLnN2ZyIgeD0iMHB4IiB5PSIwcHgiIHZpZXdCb3g9IjAgMCAzMy44OCAzNy44OSIgc3R5bGU9ImVuYWJsZS1iYWNrZ3JvdW5kOm5ldyAwIDAgMzMuODggMzcuODk7IiB4bWw6c3BhY2U9InByZXNlcnZlIj4mI3hhOzxzb2RpcG9kaTpuYW1lZHZpZXcgYm9yZGVyY29sb3I9IiM2NjY2NjYiIGJvcmRlcm9wYWNpdHk9IjEiIGZpdC1tYXJnaW4tYm90dG9tPSIwIiBmaXQtbWFyZ2luLWxlZnQ9IjAiIGZpdC1tYXJnaW4tcmlnaHQ9IjAiIGZpdC1tYXJnaW4tdG9wPSIwIiBncmlkdG9sZXJhbmNlPSIxMCIgZ3VpZGV0b2xlcmFuY2U9IjEwIiBpZD0ibmFtZWR2aWV3ODc0MzYiIGlua3NjYXBlOmN1cnJlbnQtbGF5ZXI9InN2Zzg3NDM0IiBpbmtzY2FwZTpjeD0iMTMuMTgxMzciIGlua3NjYXBlOmN5PSIyMC4yOTk0NTQiIGlua3NjYXBlOnBhZ2VvcGFjaXR5PSIwIiBpbmtzY2FwZTpwYWdlc2hhZG93PSIyIiBpbmtzY2FwZTp3aW5kb3ctaGVpZ2h0PSIxMDE3IiBpbmtzY2FwZTp3aW5kb3ctbWF4aW1pemVkPSIxIiBpbmtzY2FwZTp3aW5kb3ctd2lkdGg9IjE5MjAiIGlua3NjYXBlOndpbmRvdy14PSItOCIgaW5rc2NhcGU6d2luZG93LXk9Ii04IiBpbmtzY2FwZTp6b29tPSIxMi4xMzQ5MTIiIG9iamVjdHRvbGVyYW5jZT0iMTAiIHBhZ2Vjb2xvcj0iI2ZmZmZmZiIgc2hvd2dyaWQ9ImZhbHNlIj4mI3hhOwk8L3NvZGlwb2RpOm5hbWVkdmlldz4mI3hhOzxnIGlkPSJnODc0MzIiIHRyYW5zZm9ybT0idHJhbnNsYXRlKC0yLjQ5Mzc1NjFlLTUpIj4mI3hhOwk8dGl0bGUgaWQ9InRpdGxlODczMzciPlBhZ2UtMTwvdGl0bGU+JiN4YTsJPGcgaWQ9Imdyb3VwNDY5MC0xIj4mI3hhOwkJPHRpdGxlIGlkPSJ0aXRsZTg3MzM5Ij5OZXR3b3JrIEludGVyZmFjZTwvdGl0bGU+JiN4YTsJCTxnIGlkPSJzaGFwZTQ2OTEtMiI+JiN4YTsJCQk8dGl0bGUgaWQ9InRpdGxlODczNDEiPlNoZWV0LjQ2OTE8L3RpdGxlPiYjeGE7CQkJPHBhdGggaWQ9InBhdGg4NzM0MyIgaW5rc2NhcGU6Y29ubmVjdG9yLWN1cnZhdHVyZT0iMCIgc3R5bGU9ImZpbGw6IzdGQkEwMDsiIGQ9Ik0wLDB2MzcuODloMzAuMzVWMEgweiIvPiYjeGE7CQk8L2c+JiN4YTsJCTxnIGlkPSJzaGFwZTQ2OTItNCIgdHJhbnNmb3JtPSJ0cmFuc2xhdGUoMzAuMzQ3NCwtMjguMjI2KSI+JiN4YTsJCQk8dGl0bGUgaWQ9InRpdGxlODczNDYiPlNoZWV0LjQ2OTI8L3RpdGxlPiYjeGE7CQkJPHBhdGggaWQ9InBhdGg4NzM0OCIgaW5rc2NhcGU6Y29ubmVjdG9yLWN1cnZhdHVyZT0iMCIgc3R5bGU9ImZpbGw6I0ZDRDExNjsiIGQ9Ik0wLDMwLjk5djYuOWgzLjUzdi02LjlIMHoiLz4mI3hhOwkJPC9nPiYjeGE7CQk8ZyBpZD0ic2hhcGU0NjkzLTYiIHRyYW5zZm9ybT0idHJhbnNsYXRlKDMwLjM0NzQsLTguNDM3MTMpIj4mI3hhOwkJCTx0aXRsZSBpZD0idGl0bGU4NzM1MSI+U2hlZXQuNDY5MzwvdGl0bGU+JiN4YTsJCQk8cGF0aCBpZD0icGF0aDg3MzUzIiBpbmtzY2FwZTpjb25uZWN0b3ItY3VydmF0dXJlPSIwIiBzdHlsZT0iZmlsbDojRkNEMTE2OyIgZD0iTTAsMjAuNHYxNy40OWgzLjUzVjIwLjRIMHoiLz4mI3hhOwkJPC9nPiYjeGE7CQk8ZyBpZD0ic2hhcGU0Njk0LTgiIHRyYW5zZm9ybT0idHJhbnNsYXRlKDEyLjEwODMsLTI1LjE1OCkiPiYjeGE7CQkJPHRpdGxlIGlkPSJ0aXRsZTg3MzU2Ij5TaGVldC40Njk0PC90aXRsZT4mI3hhOwkJCTxwYXRoIGlkPSJwYXRoODczNTgiIGlua3NjYXBlOmNvbm5lY3Rvci1jdXJ2YXR1cmU9IjAiIHN0eWxlPSJmaWxsOiMyRDMyMzk7IiBkPSJNMCwyOC44NHY5LjA1aDE0LjQxdi05LjA1SDB6Ii8+JiN4YTsJCTwvZz4mI3hhOwkJPGcgaWQ9InNoYXBlNDY5NS0xMCIgdHJhbnNmb3JtPSJ0cmFuc2xhdGUoOS41MDI3MywtMy41MjgyNSkiPiYjeGE7CQkJPHRpdGxlIGlkPSJ0aXRsZTg3MzYxIj5TaGVldC40Njk1PC90aXRsZT4mI3hhOwkJCTxwYXRoIGlkPSJwYXRoODczNjMiIGlua3NjYXBlOmNvbm5lY3Rvci1jdXJ2YXR1cmU9IjAiIHN0eWxlPSJmaWxsOiMyRDMyMzk7IiBkPSJNMCwyNy42MXYxMC4yOGgyLjNWMjcuNjFIMHoiLz4mI3hhOwkJPC9nPiYjeGE7CQk8ZyBpZD0ic2hhcGU0Njk2LTEyIiB0cmFuc2Zvcm09InRyYW5zbGF0ZSgxMy40ODc3LC0zLjUyODI1KSI+JiN4YTsJCQk8dGl0bGUgaWQ9InRpdGxlODczNjYiPlNoZWV0LjQ2OTY8L3RpdGxlPiYjeGE7CQkJPHBhdGggaWQ9InBhdGg4NzM2OCIgaW5rc2NhcGU6Y29ubmVjdG9yLWN1cnZhdHVyZT0iMCIgc3R5bGU9ImZpbGw6IzJEMzIzOTsiIGQ9Ik0wLDI3LjYxdjEwLjI4aDIuNDVWMjcuNjFIMHoiLz4mI3hhOwkJPC9nPiYjeGE7CQk8ZyBpZD0ic2hhcGU0Njk3LTE0IiB0cmFuc2Zvcm09InRyYW5zbGF0ZSgyMi4zNzc0LC0zLjk4ODQ2KSI+JiN4YTsJCQk8dGl0bGUgaWQ9InRpdGxlODczNzEiPlNoZWV0LjQ2OTc8L3RpdGxlPiYjeGE7CQkJPHBhdGggaWQ9InBhdGg4NzM3MyIgaW5rc2NhcGU6Y29ubmVjdG9yLWN1cnZhdHVyZT0iMCIgc3R5bGU9ImZpbGw6I0U1RTVFNTsiIGQ9Ik0wLDI4LjUzdjkuMzZoMy41M3YtOS4zNkwwLDI4LjUzeiIvPiYjeGE7CQk8L2c+JiN4YTsJCTxnIGlkPSJzaGFwZTQ2OTgtMTYiIHRyYW5zZm9ybT0idHJhbnNsYXRlKDExLjM0MiwtMTcuNjQxMykiPiYjeGE7CQkJPHRpdGxlIGlkPSJ0aXRsZTg3Mzc2Ij5TaGVldC40Njk4PC90aXRsZT4mI3hhOwkJCTxwYXRoIGlkPSJwYXRoODczNzgiIGlua3NjYXBlOmNvbm5lY3Rvci1jdXJ2YXR1cmU9IjAiIHN0eWxlPSJmaWxsOiNFNUU1RTU7IiBkPSJNMCwzNS45N2MwLTEuMDUsMC44Mi0xLjkxLDEuODQtMS45MSAgICAgczEuODQsMC44NiwxLjg0LDEuOTFjMCwxLjA3LTAuODIsMS45Mi0xLjg0LDEuOTJTMCwzNy4wNCwwLDM1Ljk3eiIvPiYjeGE7CQk8L2c+JiN4YTsJCTxnIGlkPSJzaGFwZTQ2OTktMTgiIHRyYW5zZm9ybT0idHJhbnNsYXRlKDIxLjc2NDMsLTE5LjAyMTkpIj4mI3hhOwkJCTx0aXRsZSBpZD0idGl0bGU4NzM4MSI+U2hlZXQuNDY5OTwvdGl0bGU+JiN4YTsJCQk8cGF0aCBpZD0icGF0aDg3MzgzIiBpbmtzY2FwZTpjb25uZWN0b3ItY3VydmF0dXJlPSIwIiBzdHlsZT0iZmlsbDojNkU5RTBCOyIgZD0iTTAsMzEuNzV2Ni4xNGgxLjUzdi02LjE0SDB6Ii8+JiN4YTsJCTwvZz4mI3hhOwkJPGcgaWQ9InNoYXBlNDcwMC0yMCIgdHJhbnNmb3JtPSJ0cmFuc2xhdGUoMTguMjM5MSwtNy41MTY3MikiPiYjeGE7CQkJPHRpdGxlIGlkPSJ0aXRsZTg3Mzg2Ij5TaGVldC40NzAwPC90aXRsZT4mI3hhOwkJCTxwYXRoIGlkPSJwYXRoODczODgiIGlua3NjYXBlOmNvbm5lY3Rvci1jdXJ2YXR1cmU9IjAiIHN0eWxlPSJmaWxsOiM2RTlFMEI7IiBkPSJNMCwyNS4xMnYxMi43N2gxLjUzVjI1LjEySDB6Ii8+JiN4YTsJCTwvZz4mI3hhOwkJPGcgaWQ9InNoYXBlNDcwMS0yMiIgdHJhbnNmb3JtPSJ0cmFuc2xhdGUoNi4yODQwNiwtOS4zNTc1NCkiPiYjeGE7CQkJPHRpdGxlIGlkPSJ0aXRsZTg3MzkxIj5TaGVldC40NzAxPC90aXRsZT4mI3hhOwkJCTxwYXRoIGlkPSJwYXRoODczOTMiIGlua3NjYXBlOmNvbm5lY3Rvci1jdXJ2YXR1cmU9IjAiIHN0eWxlPSJmaWxsOiM2RTlFMEI7IiBkPSJNMCwxOC41NnYxOS4zM2gxLjUzVjE4LjU2SDB6Ii8+JiN4YTsJCTwvZz4mI3hhOwkJPGcgaWQ9InNoYXBlNDcwMi0yNCIgdHJhbnNmb3JtPSJ0cmFuc2xhdGUoMy4wNjU0LC01LjgyOTI5KSI+JiN4YTsJCQk8dGl0bGUgaWQ9InRpdGxlODczOTYiPlNoZWV0LjQ3MDI8L3RpdGxlPiYjeGE7CQkJPHBhdGggaWQ9InBhdGg4NzM5OCIgaW5rc2NhcGU6Y29ubmVjdG9yLWN1cnZhdHVyZT0iMCIgc3R5bGU9ImZpbGw6IzZFOUUwQjsiIGQ9Ik0wLDExLjgxdjI2LjA4aDEuNjlWMTEuODFIMHoiLz4mI3hhOwkJPC9nPiYjeGE7CQk8ZyBpZD0ic2hhcGU0NzAzLTI2IiB0cmFuc2Zvcm09InRyYW5zbGF0ZSgxOC4yMzkxLC0xOS4wMjE5KSI+JiN4YTsJCQk8dGl0bGUgaWQ9InRpdGxlODc0MDEiPlNoZWV0LjQ3MDM8L3RpdGxlPiYjeGE7CQkJPHBhdGggaWQ9InBhdGg4NzQwMyIgaW5rc2NhcGU6Y29ubmVjdG9yLWN1cnZhdHVyZT0iMCIgc3R5bGU9ImZpbGw6IzZFOUUwQjsiIGQ9Ik01LjA2LDM2LjM2djEuNTNIMHYtMS41M0g1LjA2eiIvPiYjeGE7CQk8L2c+JiN4YTsJCTxnIGlkPSJzaGFwZTQ3MDQtMjgiIHRyYW5zZm9ybT0idHJhbnNsYXRlKDE4LjM0NDMsLTcuNTE2NzIpIj4mI3hhOwkJCTx0aXRsZSBpZD0idGl0bGU4NzQwNiI+U2hlZXQuNDcwNDwvdGl0bGU+JiN4YTsJCQk8cGF0aCBpZD0icGF0aDg3NDA4IiBpbmtzY2FwZTpjb25uZWN0b3ItY3VydmF0dXJlPSIwIiBzdHlsZT0iZmlsbDojNkU5RTBCOyIgZD0iTTQuMDMsMzYuMzZ2MS41M0gwdi0xLjUzSDQuMDN6Ii8+JiN4YTsJCTwvZz4mI3hhOwkJPGcgaWQ9InNoYXBlNDcwNS0zMCIgdHJhbnNmb3JtPSJ0cmFuc2xhdGUoMy4wNjU0LC01LjgyOTI5KSI+JiN4YTsJCQk8dGl0bGUgaWQ9InRpdGxlODc0MTEiPlNoZWV0LjQ3MDU8L3RpdGxlPiYjeGE7CQkJPHBhdGggaWQ9InBhdGg4NzQxMyIgaW5rc2NhcGU6Y29ubmVjdG9yLWN1cnZhdHVyZT0iMCIgc3R5bGU9ImZpbGw6IzZFOUUwQjsiIGQ9Ik02LjQ0LDM2LjJ2MS42OUgwVjM2LjJINi40NHoiLz4mI3hhOwkJPC9nPiYjeGE7CQk8ZyBpZD0ic2hhcGU0NzA2LTMyIiB0cmFuc2Zvcm09InRyYW5zbGF0ZSg2LjI4NDA2LC05LjM1NzU0KSI+JiN4YTsJCQk8dGl0bGUgaWQ9InRpdGxlODc0MTYiPlNoZWV0LjQ3MDY8L3RpdGxlPiYjeGE7CQkJPHBhdGggaWQ9InBhdGg4NzQxOCIgaW5rc2NhcGU6Y29ubmVjdG9yLWN1cnZhdHVyZT0iMCIgc3R5bGU9ImZpbGw6IzZFOUUwQjsiIGQ9Ik0zLjIyLDM2LjJ2MS42OUgwVjM2LjJIMy4yMnoiLz4mI3hhOwkJPC9nPiYjeGE7CQk8ZyBpZD0ic2hhcGU0NzA3LTM0IiB0cmFuc2Zvcm09InRyYW5zbGF0ZSgzLjA2NTQsLTMwLjM3MzcpIj4mI3hhOwkJCTx0aXRsZSBpZD0idGl0bGU4NzQyMSI+U2hlZXQuNDcwNzwvdGl0bGU+JiN4YTsJCQk8cGF0aCBpZD0icGF0aDg3NDIzIiBpbmtzY2FwZTpjb25uZWN0b3ItY3VydmF0dXJlPSIwIiBzdHlsZT0iZmlsbDojNkU5RTBCOyIgZD0iTTkuMDQsMzYuMnYxLjY5SDBWMzYuMkg5LjA0eiIvPiYjeGE7CQk8L2c+JiN4YTsJCTxnIGlkPSJzaGFwZTQ3MDgtMzYiIHRyYW5zZm9ybT0idHJhbnNsYXRlKDYuMjg0MDYsLTI3LjE1MjIpIj4mI3hhOwkJCTx0aXRsZSBpZD0idGl0bGU4NzQyNiI+U2hlZXQuNDcwODwvdGl0bGU+JiN4YTsJCQk8cGF0aCBpZD0icGF0aDg3NDI4IiBpbmtzY2FwZTpjb25uZWN0b3ItY3VydmF0dXJlPSIwIiBzdHlsZT0iZmlsbDojNkU5RTBCOyIgZD0iTTUuODIsMzYuMzZ2MS41M0gwdi0xLjUzSDUuODJ6Ii8+JiN4YTsJCTwvZz4mI3hhOwk8L2c+JiN4YTs8L2c+JiN4YTs8L3N2Zz4=;fontSize=14;" vertex="1" parent="1">
          <mxGeometry x="189" y="434.4" width="34" height="38" as="geometry" />
        </mxCell>
        <mxCell id="RSznJ-GNL0sqVoyYkRlf-51" style="edgeStyle=none;shape=link;rounded=0;orthogonalLoop=1;jettySize=auto;html=1;exitX=0.25;exitY=0;exitDx=0;exitDy=0;entryX=1;entryY=0.75;entryDx=0;entryDy=0;fontSize=11;" edge="1" parent="1" source="RSznJ-GNL0sqVoyYkRlf-32" target="RSznJ-GNL0sqVoyYkRlf-5">
          <mxGeometry relative="1" as="geometry" />
        </mxCell>
        <mxCell id="RSznJ-GNL0sqVoyYkRlf-32" value="" style="shape=image;verticalLabelPosition=bottom;labelBackgroundColor=#ffffff;verticalAlign=top;aspect=fixed;imageAspect=0;image=data:image/svg+xml,PHN2ZyB4bWxuczpkYz0iaHR0cDovL3B1cmwub3JnL2RjL2VsZW1lbnRzLzEuMS8iIHhtbG5zOmNjPSJodHRwOi8vY3JlYXRpdmVjb21tb25zLm9yZy9ucyMiIHhtbG5zOnJkZj0iaHR0cDovL3d3dy53My5vcmcvMTk5OS8wMi8yMi1yZGYtc3ludGF4LW5zIyIgeG1sbnM6c3ZnPSJodHRwOi8vd3d3LnczLm9yZy8yMDAwL3N2ZyIgeG1sbnM9Imh0dHA6Ly93d3cudzMub3JnLzIwMDAvc3ZnIiB4bWxuczp4bGluaz0iaHR0cDovL3d3dy53My5vcmcvMTk5OS94bGluayIgeG1sbnM6c29kaXBvZGk9Imh0dHA6Ly9zb2RpcG9kaS5zb3VyY2Vmb3JnZS5uZXQvRFREL3NvZGlwb2RpLTAuZHRkIiB4bWxuczppbmtzY2FwZT0iaHR0cDovL3d3dy5pbmtzY2FwZS5vcmcvbmFtZXNwYWNlcy9pbmtzY2FwZSIgdmVyc2lvbj0iMS4xIiBpZD0iTGF5ZXJfMSIgeD0iMHB4IiB5PSIwcHgiIHZpZXdCb3g9IjAgMCAxNy45Mzk5OTkgMTYuNDM5OTk5IiB4bWw6c3BhY2U9InByZXNlcnZlIiBzb2RpcG9kaTpkb2NuYW1lPSJkaXNrc19zdG9yYWdlLnN2ZyIgd2lkdGg9IjE3LjkzOTk5OSIgaGVpZ2h0PSIxNi40Mzk5OTkiIGlua3NjYXBlOnZlcnNpb249IjAuOTIuMyAoMjQwNTU0NiwgMjAxOC0wMy0xMSkiPjxtZXRhZGF0YSBpZD0ibWV0YWRhdGEzMTA3NSI+PHJkZjpSREY+PGNjOldvcmsgcmRmOmFib3V0PSIiPjxkYzpmb3JtYXQ+aW1hZ2Uvc3ZnK3htbDwvZGM6Zm9ybWF0PjxkYzp0eXBlIHJkZjpyZXNvdXJjZT0iaHR0cDovL3B1cmwub3JnL2RjL2RjbWl0eXBlL1N0aWxsSW1hZ2UiLz48ZGM6dGl0bGUvPjwvY2M6V29yaz48L3JkZjpSREY+PC9tZXRhZGF0YT48ZGVmcyBpZD0iZGVmczMxMDczIi8+PHNvZGlwb2RpOm5hbWVkdmlldyBwYWdlY29sb3I9IiNmZmZmZmYiIGJvcmRlcmNvbG9yPSIjNjY2NjY2IiBib3JkZXJvcGFjaXR5PSIxIiBvYmplY3R0b2xlcmFuY2U9IjEwIiBncmlkdG9sZXJhbmNlPSIxMCIgZ3VpZGV0b2xlcmFuY2U9IjEwIiBpbmtzY2FwZTpwYWdlb3BhY2l0eT0iMCIgaW5rc2NhcGU6cGFnZXNoYWRvdz0iMiIgaW5rc2NhcGU6d2luZG93LXdpZHRoPSIxOTIwIiBpbmtzY2FwZTp3aW5kb3ctaGVpZ2h0PSIxMDE3IiBpZD0ibmFtZWR2aWV3MzEwNzEiIHNob3dncmlkPSJmYWxzZSIgZml0LW1hcmdpbi10b3A9IjAiIGZpdC1tYXJnaW4tbGVmdD0iMCIgZml0LW1hcmdpbi1yaWdodD0iMCIgZml0LW1hcmdpbi1ib3R0b209IjAiIGlua3NjYXBlOnpvb209IjguMjQyNDI0MiIgaW5rc2NhcGU6Y3g9IjM0LjkzMjczNCIgaW5rc2NhcGU6Y3k9Ii01Ljg3NTA0NTgiIGlua3NjYXBlOndpbmRvdy14PSItOCIgaW5rc2NhcGU6d2luZG93LXk9Ii04IiBpbmtzY2FwZTp3aW5kb3ctbWF4aW1pemVkPSIxIiBpbmtzY2FwZTpjdXJyZW50LWxheWVyPSJMYXllcl8xIi8+JiN4YTsmI3hhOzxnIGlkPSJnMzEwNjgiIHRyYW5zZm9ybT0idHJhbnNsYXRlKC01NS44NjAwMDEsLTIwNi4xMSkiPiYjeGE7CTxkZWZzIGlkPSJkZWZzMzEwMzUiPiYjeGE7CQk8cmVjdCBpZD0iU1ZHSURfM18iIHg9IjU1Ljg2MDAwMSIgeT0iMjA2LjExIiB3aWR0aD0iMTkuODA5OTk5IiBoZWlnaHQ9IjE2Ljk4Ii8+JiN4YTsJPC9kZWZzPiYjeGE7CTxjbGlwUGF0aCBpZD0iU1ZHSURfNF8iPiYjeGE7CQk8dXNlIHhsaW5rOmhyZWY9IiNTVkdJRF8zXyIgc3R5bGU9Im92ZXJmbG93OnZpc2libGUiIGlkPSJ1c2UzMTAzNyIgeD0iMCIgeT0iMCIgd2lkdGg9IjEwMCUiIGhlaWdodD0iMTAwJSIvPiYjeGE7CTwvY2xpcFBhdGg+JiN4YTsJPGcgY2xpcC1wYXRoPSJ1cmwoI1NWR0lEXzRfKSIgaWQ9ImczMTA2NiI+JiN4YTsJCTxkZWZzIGlkPSJkZWZzMzEwNDEiPiYjeGE7CQkJPHJlY3QgaWQ9IlNWR0lEXzVfIiB4PSI1NS44NjAwMDEiIHk9IjIwNi4xMSIgd2lkdGg9IjE5LjgwOTk5OSIgaGVpZ2h0PSIxNi45OCIvPiYjeGE7CQk8L2RlZnM+JiN4YTsJCTxjbGlwUGF0aCBpZD0iU1ZHSURfNl8iPiYjeGE7CQkJPHVzZSB4bGluazpocmVmPSIjU1ZHSURfNV8iIHN0eWxlPSJvdmVyZmxvdzp2aXNpYmxlIiBpZD0idXNlMzEwNDMiIHg9IjAiIHk9IjAiIHdpZHRoPSIxMDAlIiBoZWlnaHQ9IjEwMCUiLz4mI3hhOwkJPC9jbGlwUGF0aD4mI3hhOwkJPHBhdGggc3R5bGU9ImZpbGw6IzRhOWY0OSIgZD0ibSA3My44LDIxOS4yIGMgMCwxLjg1IC00LjAxLDMuMzUgLTguOTcsMy4zNSAtNC45NiwwIC04Ljk3LC0xLjQ5IC04Ljk3LC0zLjM1IHYgLTIuMjcgSCA3My44IFoiIGNsaXAtcGF0aD0idXJsKCNTVkdJRF82XykiIGlkPSJwYXRoMzEwNDYiIGlua3NjYXBlOmNvbm5lY3Rvci1jdXJ2YXR1cmU9IjAiLz4mI3hhOwkJPHBhdGggc3R5bGU9ImZpbGw6I2FkYzgwYiIgZD0ibSA3My44LDIxNi45MyBjIDAsMS44NSAtNC4wMSwzLjQxIC04Ljk3LDMuNDEgLTQuOTYsMCAtOC45NywtMS41NSAtOC45NywtMy40MSAwLC0xLjg1IDQuMDEsLTMuMzUgOC45NywtMy4zNSA0Ljk2LDAgOC45NywxLjUgOC45NywzLjM1IHoiIGNsaXAtcGF0aD0idXJsKCNTVkdJRF82XykiIGlkPSJwYXRoMzEwNDgiIGlua3NjYXBlOmNvbm5lY3Rvci1jdXJ2YXR1cmU9IjAiLz4mI3hhOwkJPHBhdGggc3R5bGU9ImZpbGw6I2NiZTIzOCIgZD0ibSA2My42MywyMTMuNTggYyAtMS41LDAuMDYgLTIuOTksMC4zIC00LjQzLDAuNzggbCA0LjA3LDEuODUgYyAwLjQyLC0wLjEyIDAuNzgsLTAuMTggMS4yLC0wLjE4IHoiIGNsaXAtcGF0aD0idXJsKCNTVkdJRF82XykiIGlkPSJwYXRoMzEwNTAiIGlua3NjYXBlOmNvbm5lY3Rvci1jdXJ2YXR1cmU9IjAiLz4mI3hhOwkJPHBhdGggc3R5bGU9ImZpbGw6I2NiZTIzOCIgZD0ibSA3MC40NSwyMTkuNTYgLTQuMDcsLTEuOTEgYyAtMC40MiwwLjEyIC0wLjg0LDAuMTggLTEuMiwwLjI0IGwgMC44NCwyLjQ1IGMgMS41LC0wLjEyIDMsLTAuMzYgNC40MywtMC43OCB6IiBjbGlwLXBhdGg9InVybCgjU1ZHSURfNl8pIiBpZD0icGF0aDMxMDUyIiBpbmtzY2FwZTpjb25uZWN0b3ItY3VydmF0dXJlPSIwIi8+JiN4YTsJCTxwYXRoIHN0eWxlPSJmaWxsOiMwODdlMDYiIGQ9Im0gNjcuMjgsMjE2LjkzIGMgMCwwLjU0IC0xLjE0LDAuOTYgLTIuNDUsMC45NiAtMS4zMSwwIC0yLjQ1LC0wLjQyIC0yLjQ1LC0wLjk2IDAsLTAuNDggMS4xNCwtMC45IDIuNDUsLTAuOSAxLjMxLDAgMi40NSwwLjQyIDIuNDUsMC45IHoiIGNsaXAtcGF0aD0idXJsKCNTVkdJRF82XykiIGlkPSJwYXRoMzEwNTQiIGlua3NjYXBlOmNvbm5lY3Rvci1jdXJ2YXR1cmU9IjAiLz4mI3hhOwkJPHBhdGggc3R5bGU9ImZpbGw6IzA4NzlkYSIgZD0ibSA3My44LDIxMS43MyBjIDAsMS44NSAtNC4wMSwzLjM1IC04Ljk3LDMuMzUgLTQuOTYsMCAtOC45NywtMS40OSAtOC45NywtMy4zNSB2IC0yLjI3IEggNzMuOCBaIiBjbGlwLXBhdGg9InVybCgjU1ZHSURfNl8pIiBpZD0icGF0aDMxMDU2IiBpbmtzY2FwZTpjb25uZWN0b3ItY3VydmF0dXJlPSIwIi8+JiN4YTsJCTxwYXRoIHN0eWxlPSJmaWxsOiMxMWJkZjUiIGQ9Im0gNzMuOCwyMDkuNDYgYyAwLDEuODUgLTQuMDEsMy40MSAtOC45NywzLjQxIC00Ljk2LDAgLTguOTcsLTEuNTUgLTguOTcsLTMuNDEgMCwtMS44NSA0LjAxLC0zLjM1IDguOTcsLTMuMzUgNC45NiwwIDguOTcsMS41IDguOTcsMy4zNSB6IiBjbGlwLXBhdGg9InVybCgjU1ZHSURfNl8pIiBpZD0icGF0aDMxMDU4IiBpbmtzY2FwZTpjb25uZWN0b3ItY3VydmF0dXJlPSIwIi8+JiN4YTsJCTxwYXRoIHN0eWxlPSJmaWxsOiMzOWNlZjciIGQ9Im0gNjMuNjMsMjA2LjExIGMgLTEuNSwwLjA2IC0yLjk5LDAuMyAtNC40MywwLjc4IGwgNC4wNywxLjg1IGMgMC40MiwtMC4xMiAwLjg0LC0wLjE4IDEuMiwtMC4xOCB6IiBjbGlwLXBhdGg9InVybCgjU1ZHSURfNl8pIiBpZD0icGF0aDMxMDYwIiBpbmtzY2FwZTpjb25uZWN0b3ItY3VydmF0dXJlPSIwIi8+JiN4YTsJCTxwYXRoIHN0eWxlPSJmaWxsOiMzOWNlZjciIGQ9Im0gNzAuNDUsMjEyLjA5IC00LjA3LC0xLjkxIGMgLTAuNDIsMC4xMiAtMC44NCwwLjE4IC0xLjIsMC4yNCBsIDAuODQsMi40NSBjIDEuNSwtMC4xMiAzLC0wLjM2IDQuNDMsLTAuNzggeiIgY2xpcC1wYXRoPSJ1cmwoI1NWR0lEXzZfKSIgaWQ9InBhdGgzMTA2MiIgaW5rc2NhcGU6Y29ubmVjdG9yLWN1cnZhdHVyZT0iMCIvPiYjeGE7CQk8cGF0aCBzdHlsZT0iZmlsbDojMDM1MjkzIiBkPSJtIDY3LjI4LDIwOS40NiBjIDAsMC41NCAtMS4xNCwwLjk2IC0yLjQ1LDAuOTYgLTEuMzEsMCAtMi40NSwtMC40MiAtMi40NSwtMC45NiAwLC0wLjQ4IDEuMTQsLTAuOSAyLjQ1LC0wLjkgMS4zMSwwIDIuNDUsMC40MiAyLjQ1LDAuOSB6IiBjbGlwLXBhdGg9InVybCgjU1ZHSURfNl8pIiBpZD0icGF0aDMxMDY0IiBpbmtzY2FwZTpjb25uZWN0b3ItY3VydmF0dXJlPSIwIi8+JiN4YTsJPC9nPiYjeGE7PC9nPiYjeGE7PC9zdmc+;fontSize=14;" vertex="1" parent="1">
          <mxGeometry x="172.76" y="278" width="33.75" height="30" as="geometry" />
        </mxCell>
        <mxCell id="RSznJ-GNL0sqVoyYkRlf-53" style="edgeStyle=none;shape=link;rounded=0;orthogonalLoop=1;jettySize=auto;html=1;exitX=0.5;exitY=0;exitDx=0;exitDy=0;fontSize=11;" edge="1" parent="1" source="RSznJ-GNL0sqVoyYkRlf-33" target="RSznJ-GNL0sqVoyYkRlf-7">
          <mxGeometry relative="1" as="geometry" />
        </mxCell>
        <mxCell id="RSznJ-GNL0sqVoyYkRlf-33" value="" style="shape=image;verticalLabelPosition=bottom;labelBackgroundColor=#ffffff;verticalAlign=top;aspect=fixed;imageAspect=0;image=data:image/svg+xml,PHN2ZyB4bWxuczpkYz0iaHR0cDovL3B1cmwub3JnL2RjL2VsZW1lbnRzLzEuMS8iIHhtbG5zOmNjPSJodHRwOi8vY3JlYXRpdmVjb21tb25zLm9yZy9ucyMiIHhtbG5zOnJkZj0iaHR0cDovL3d3dy53My5vcmcvMTk5OS8wMi8yMi1yZGYtc3ludGF4LW5zIyIgeG1sbnM6c3ZnPSJodHRwOi8vd3d3LnczLm9yZy8yMDAwL3N2ZyIgeG1sbnM9Imh0dHA6Ly93d3cudzMub3JnLzIwMDAvc3ZnIiB4bWxuczp4bGluaz0iaHR0cDovL3d3dy53My5vcmcvMTk5OS94bGluayIgeG1sbnM6c29kaXBvZGk9Imh0dHA6Ly9zb2RpcG9kaS5zb3VyY2Vmb3JnZS5uZXQvRFREL3NvZGlwb2RpLTAuZHRkIiB4bWxuczppbmtzY2FwZT0iaHR0cDovL3d3dy5pbmtzY2FwZS5vcmcvbmFtZXNwYWNlcy9pbmtzY2FwZSIgdmVyc2lvbj0iMS4xIiBpZD0iTGF5ZXJfMSIgeD0iMHB4IiB5PSIwcHgiIHZpZXdCb3g9IjAgMCAxNy45Mzk5OTkgMTYuNDM5OTk5IiB4bWw6c3BhY2U9InByZXNlcnZlIiBzb2RpcG9kaTpkb2NuYW1lPSJkaXNrc19zdG9yYWdlLnN2ZyIgd2lkdGg9IjE3LjkzOTk5OSIgaGVpZ2h0PSIxNi40Mzk5OTkiIGlua3NjYXBlOnZlcnNpb249IjAuOTIuMyAoMjQwNTU0NiwgMjAxOC0wMy0xMSkiPjxtZXRhZGF0YSBpZD0ibWV0YWRhdGEzMTA3NSI+PHJkZjpSREY+PGNjOldvcmsgcmRmOmFib3V0PSIiPjxkYzpmb3JtYXQ+aW1hZ2Uvc3ZnK3htbDwvZGM6Zm9ybWF0PjxkYzp0eXBlIHJkZjpyZXNvdXJjZT0iaHR0cDovL3B1cmwub3JnL2RjL2RjbWl0eXBlL1N0aWxsSW1hZ2UiLz48ZGM6dGl0bGUvPjwvY2M6V29yaz48L3JkZjpSREY+PC9tZXRhZGF0YT48ZGVmcyBpZD0iZGVmczMxMDczIi8+PHNvZGlwb2RpOm5hbWVkdmlldyBwYWdlY29sb3I9IiNmZmZmZmYiIGJvcmRlcmNvbG9yPSIjNjY2NjY2IiBib3JkZXJvcGFjaXR5PSIxIiBvYmplY3R0b2xlcmFuY2U9IjEwIiBncmlkdG9sZXJhbmNlPSIxMCIgZ3VpZGV0b2xlcmFuY2U9IjEwIiBpbmtzY2FwZTpwYWdlb3BhY2l0eT0iMCIgaW5rc2NhcGU6cGFnZXNoYWRvdz0iMiIgaW5rc2NhcGU6d2luZG93LXdpZHRoPSIxOTIwIiBpbmtzY2FwZTp3aW5kb3ctaGVpZ2h0PSIxMDE3IiBpZD0ibmFtZWR2aWV3MzEwNzEiIHNob3dncmlkPSJmYWxzZSIgZml0LW1hcmdpbi10b3A9IjAiIGZpdC1tYXJnaW4tbGVmdD0iMCIgZml0LW1hcmdpbi1yaWdodD0iMCIgZml0LW1hcmdpbi1ib3R0b209IjAiIGlua3NjYXBlOnpvb209IjguMjQyNDI0MiIgaW5rc2NhcGU6Y3g9IjM0LjkzMjczNCIgaW5rc2NhcGU6Y3k9Ii01Ljg3NTA0NTgiIGlua3NjYXBlOndpbmRvdy14PSItOCIgaW5rc2NhcGU6d2luZG93LXk9Ii04IiBpbmtzY2FwZTp3aW5kb3ctbWF4aW1pemVkPSIxIiBpbmtzY2FwZTpjdXJyZW50LWxheWVyPSJMYXllcl8xIi8+JiN4YTsmI3hhOzxnIGlkPSJnMzEwNjgiIHRyYW5zZm9ybT0idHJhbnNsYXRlKC01NS44NjAwMDEsLTIwNi4xMSkiPiYjeGE7CTxkZWZzIGlkPSJkZWZzMzEwMzUiPiYjeGE7CQk8cmVjdCBpZD0iU1ZHSURfM18iIHg9IjU1Ljg2MDAwMSIgeT0iMjA2LjExIiB3aWR0aD0iMTkuODA5OTk5IiBoZWlnaHQ9IjE2Ljk4Ii8+JiN4YTsJPC9kZWZzPiYjeGE7CTxjbGlwUGF0aCBpZD0iU1ZHSURfNF8iPiYjeGE7CQk8dXNlIHhsaW5rOmhyZWY9IiNTVkdJRF8zXyIgc3R5bGU9Im92ZXJmbG93OnZpc2libGUiIGlkPSJ1c2UzMTAzNyIgeD0iMCIgeT0iMCIgd2lkdGg9IjEwMCUiIGhlaWdodD0iMTAwJSIvPiYjeGE7CTwvY2xpcFBhdGg+JiN4YTsJPGcgY2xpcC1wYXRoPSJ1cmwoI1NWR0lEXzRfKSIgaWQ9ImczMTA2NiI+JiN4YTsJCTxkZWZzIGlkPSJkZWZzMzEwNDEiPiYjeGE7CQkJPHJlY3QgaWQ9IlNWR0lEXzVfIiB4PSI1NS44NjAwMDEiIHk9IjIwNi4xMSIgd2lkdGg9IjE5LjgwOTk5OSIgaGVpZ2h0PSIxNi45OCIvPiYjeGE7CQk8L2RlZnM+JiN4YTsJCTxjbGlwUGF0aCBpZD0iU1ZHSURfNl8iPiYjeGE7CQkJPHVzZSB4bGluazpocmVmPSIjU1ZHSURfNV8iIHN0eWxlPSJvdmVyZmxvdzp2aXNpYmxlIiBpZD0idXNlMzEwNDMiIHg9IjAiIHk9IjAiIHdpZHRoPSIxMDAlIiBoZWlnaHQ9IjEwMCUiLz4mI3hhOwkJPC9jbGlwUGF0aD4mI3hhOwkJPHBhdGggc3R5bGU9ImZpbGw6IzRhOWY0OSIgZD0ibSA3My44LDIxOS4yIGMgMCwxLjg1IC00LjAxLDMuMzUgLTguOTcsMy4zNSAtNC45NiwwIC04Ljk3LC0xLjQ5IC04Ljk3LC0zLjM1IHYgLTIuMjcgSCA3My44IFoiIGNsaXAtcGF0aD0idXJsKCNTVkdJRF82XykiIGlkPSJwYXRoMzEwNDYiIGlua3NjYXBlOmNvbm5lY3Rvci1jdXJ2YXR1cmU9IjAiLz4mI3hhOwkJPHBhdGggc3R5bGU9ImZpbGw6I2FkYzgwYiIgZD0ibSA3My44LDIxNi45MyBjIDAsMS44NSAtNC4wMSwzLjQxIC04Ljk3LDMuNDEgLTQuOTYsMCAtOC45NywtMS41NSAtOC45NywtMy40MSAwLC0xLjg1IDQuMDEsLTMuMzUgOC45NywtMy4zNSA0Ljk2LDAgOC45NywxLjUgOC45NywzLjM1IHoiIGNsaXAtcGF0aD0idXJsKCNTVkdJRF82XykiIGlkPSJwYXRoMzEwNDgiIGlua3NjYXBlOmNvbm5lY3Rvci1jdXJ2YXR1cmU9IjAiLz4mI3hhOwkJPHBhdGggc3R5bGU9ImZpbGw6I2NiZTIzOCIgZD0ibSA2My42MywyMTMuNTggYyAtMS41LDAuMDYgLTIuOTksMC4zIC00LjQzLDAuNzggbCA0LjA3LDEuODUgYyAwLjQyLC0wLjEyIDAuNzgsLTAuMTggMS4yLC0wLjE4IHoiIGNsaXAtcGF0aD0idXJsKCNTVkdJRF82XykiIGlkPSJwYXRoMzEwNTAiIGlua3NjYXBlOmNvbm5lY3Rvci1jdXJ2YXR1cmU9IjAiLz4mI3hhOwkJPHBhdGggc3R5bGU9ImZpbGw6I2NiZTIzOCIgZD0ibSA3MC40NSwyMTkuNTYgLTQuMDcsLTEuOTEgYyAtMC40MiwwLjEyIC0wLjg0LDAuMTggLTEuMiwwLjI0IGwgMC44NCwyLjQ1IGMgMS41LC0wLjEyIDMsLTAuMzYgNC40MywtMC43OCB6IiBjbGlwLXBhdGg9InVybCgjU1ZHSURfNl8pIiBpZD0icGF0aDMxMDUyIiBpbmtzY2FwZTpjb25uZWN0b3ItY3VydmF0dXJlPSIwIi8+JiN4YTsJCTxwYXRoIHN0eWxlPSJmaWxsOiMwODdlMDYiIGQ9Im0gNjcuMjgsMjE2LjkzIGMgMCwwLjU0IC0xLjE0LDAuOTYgLTIuNDUsMC45NiAtMS4zMSwwIC0yLjQ1LC0wLjQyIC0yLjQ1LC0wLjk2IDAsLTAuNDggMS4xNCwtMC45IDIuNDUsLTAuOSAxLjMxLDAgMi40NSwwLjQyIDIuNDUsMC45IHoiIGNsaXAtcGF0aD0idXJsKCNTVkdJRF82XykiIGlkPSJwYXRoMzEwNTQiIGlua3NjYXBlOmNvbm5lY3Rvci1jdXJ2YXR1cmU9IjAiLz4mI3hhOwkJPHBhdGggc3R5bGU9ImZpbGw6IzA4NzlkYSIgZD0ibSA3My44LDIxMS43MyBjIDAsMS44NSAtNC4wMSwzLjM1IC04Ljk3LDMuMzUgLTQuOTYsMCAtOC45NywtMS40OSAtOC45NywtMy4zNSB2IC0yLjI3IEggNzMuOCBaIiBjbGlwLXBhdGg9InVybCgjU1ZHSURfNl8pIiBpZD0icGF0aDMxMDU2IiBpbmtzY2FwZTpjb25uZWN0b3ItY3VydmF0dXJlPSIwIi8+JiN4YTsJCTxwYXRoIHN0eWxlPSJmaWxsOiMxMWJkZjUiIGQ9Im0gNzMuOCwyMDkuNDYgYyAwLDEuODUgLTQuMDEsMy40MSAtOC45NywzLjQxIC00Ljk2LDAgLTguOTcsLTEuNTUgLTguOTcsLTMuNDEgMCwtMS44NSA0LjAxLC0zLjM1IDguOTcsLTMuMzUgNC45NiwwIDguOTcsMS41IDguOTcsMy4zNSB6IiBjbGlwLXBhdGg9InVybCgjU1ZHSURfNl8pIiBpZD0icGF0aDMxMDU4IiBpbmtzY2FwZTpjb25uZWN0b3ItY3VydmF0dXJlPSIwIi8+JiN4YTsJCTxwYXRoIHN0eWxlPSJmaWxsOiMzOWNlZjciIGQ9Im0gNjMuNjMsMjA2LjExIGMgLTEuNSwwLjA2IC0yLjk5LDAuMyAtNC40MywwLjc4IGwgNC4wNywxLjg1IGMgMC40MiwtMC4xMiAwLjg0LC0wLjE4IDEuMiwtMC4xOCB6IiBjbGlwLXBhdGg9InVybCgjU1ZHSURfNl8pIiBpZD0icGF0aDMxMDYwIiBpbmtzY2FwZTpjb25uZWN0b3ItY3VydmF0dXJlPSIwIi8+JiN4YTsJCTxwYXRoIHN0eWxlPSJmaWxsOiMzOWNlZjciIGQ9Im0gNzAuNDUsMjEyLjA5IC00LjA3LC0xLjkxIGMgLTAuNDIsMC4xMiAtMC44NCwwLjE4IC0xLjIsMC4yNCBsIDAuODQsMi40NSBjIDEuNSwtMC4xMiAzLC0wLjM2IDQuNDMsLTAuNzggeiIgY2xpcC1wYXRoPSJ1cmwoI1NWR0lEXzZfKSIgaWQ9InBhdGgzMTA2MiIgaW5rc2NhcGU6Y29ubmVjdG9yLWN1cnZhdHVyZT0iMCIvPiYjeGE7CQk8cGF0aCBzdHlsZT0iZmlsbDojMDM1MjkzIiBkPSJtIDY3LjI4LDIwOS40NiBjIDAsMC41NCAtMS4xNCwwLjk2IC0yLjQ1LDAuOTYgLTEuMzEsMCAtMi40NSwtMC40MiAtMi40NSwtMC45NiAwLC0wLjQ4IDEuMTQsLTAuOSAyLjQ1LC0wLjkgMS4zMSwwIDIuNDUsMC40MiAyLjQ1LDAuOSB6IiBjbGlwLXBhdGg9InVybCgjU1ZHSURfNl8pIiBpZD0icGF0aDMxMDY0IiBpbmtzY2FwZTpjb25uZWN0b3ItY3VydmF0dXJlPSIwIi8+JiN4YTsJPC9nPiYjeGE7PC9nPiYjeGE7PC9zdmc+;fontSize=14;" vertex="1" parent="1">
          <mxGeometry x="108.25999999999999" y="438.4" width="33.75" height="30" as="geometry" />
        </mxCell>
        <mxCell id="RSznJ-GNL0sqVoyYkRlf-55" style="edgeStyle=none;shape=link;rounded=0;orthogonalLoop=1;jettySize=auto;html=1;exitX=0.5;exitY=0;exitDx=0;exitDy=0;fontSize=11;" edge="1" parent="1" source="RSznJ-GNL0sqVoyYkRlf-34" target="RSznJ-GNL0sqVoyYkRlf-8">
          <mxGeometry relative="1" as="geometry" />
        </mxCell>
        <mxCell id="RSznJ-GNL0sqVoyYkRlf-34" value="" style="shape=image;verticalLabelPosition=bottom;labelBackgroundColor=#ffffff;verticalAlign=top;aspect=fixed;imageAspect=0;image=data:image/svg+xml,PHN2ZyB4bWxuczpkYz0iaHR0cDovL3B1cmwub3JnL2RjL2VsZW1lbnRzLzEuMS8iIHhtbG5zOmNjPSJodHRwOi8vY3JlYXRpdmVjb21tb25zLm9yZy9ucyMiIHhtbG5zOnJkZj0iaHR0cDovL3d3dy53My5vcmcvMTk5OS8wMi8yMi1yZGYtc3ludGF4LW5zIyIgeG1sbnM6c3ZnPSJodHRwOi8vd3d3LnczLm9yZy8yMDAwL3N2ZyIgeG1sbnM9Imh0dHA6Ly93d3cudzMub3JnLzIwMDAvc3ZnIiB4bWxuczp4bGluaz0iaHR0cDovL3d3dy53My5vcmcvMTk5OS94bGluayIgeG1sbnM6c29kaXBvZGk9Imh0dHA6Ly9zb2RpcG9kaS5zb3VyY2Vmb3JnZS5uZXQvRFREL3NvZGlwb2RpLTAuZHRkIiB4bWxuczppbmtzY2FwZT0iaHR0cDovL3d3dy5pbmtzY2FwZS5vcmcvbmFtZXNwYWNlcy9pbmtzY2FwZSIgdmVyc2lvbj0iMS4xIiBpZD0iTGF5ZXJfMSIgeD0iMHB4IiB5PSIwcHgiIHZpZXdCb3g9IjAgMCAxNy45Mzk5OTkgMTYuNDM5OTk5IiB4bWw6c3BhY2U9InByZXNlcnZlIiBzb2RpcG9kaTpkb2NuYW1lPSJkaXNrc19zdG9yYWdlLnN2ZyIgd2lkdGg9IjE3LjkzOTk5OSIgaGVpZ2h0PSIxNi40Mzk5OTkiIGlua3NjYXBlOnZlcnNpb249IjAuOTIuMyAoMjQwNTU0NiwgMjAxOC0wMy0xMSkiPjxtZXRhZGF0YSBpZD0ibWV0YWRhdGEzMTA3NSI+PHJkZjpSREY+PGNjOldvcmsgcmRmOmFib3V0PSIiPjxkYzpmb3JtYXQ+aW1hZ2Uvc3ZnK3htbDwvZGM6Zm9ybWF0PjxkYzp0eXBlIHJkZjpyZXNvdXJjZT0iaHR0cDovL3B1cmwub3JnL2RjL2RjbWl0eXBlL1N0aWxsSW1hZ2UiLz48ZGM6dGl0bGUvPjwvY2M6V29yaz48L3JkZjpSREY+PC9tZXRhZGF0YT48ZGVmcyBpZD0iZGVmczMxMDczIi8+PHNvZGlwb2RpOm5hbWVkdmlldyBwYWdlY29sb3I9IiNmZmZmZmYiIGJvcmRlcmNvbG9yPSIjNjY2NjY2IiBib3JkZXJvcGFjaXR5PSIxIiBvYmplY3R0b2xlcmFuY2U9IjEwIiBncmlkdG9sZXJhbmNlPSIxMCIgZ3VpZGV0b2xlcmFuY2U9IjEwIiBpbmtzY2FwZTpwYWdlb3BhY2l0eT0iMCIgaW5rc2NhcGU6cGFnZXNoYWRvdz0iMiIgaW5rc2NhcGU6d2luZG93LXdpZHRoPSIxOTIwIiBpbmtzY2FwZTp3aW5kb3ctaGVpZ2h0PSIxMDE3IiBpZD0ibmFtZWR2aWV3MzEwNzEiIHNob3dncmlkPSJmYWxzZSIgZml0LW1hcmdpbi10b3A9IjAiIGZpdC1tYXJnaW4tbGVmdD0iMCIgZml0LW1hcmdpbi1yaWdodD0iMCIgZml0LW1hcmdpbi1ib3R0b209IjAiIGlua3NjYXBlOnpvb209IjguMjQyNDI0MiIgaW5rc2NhcGU6Y3g9IjM0LjkzMjczNCIgaW5rc2NhcGU6Y3k9Ii01Ljg3NTA0NTgiIGlua3NjYXBlOndpbmRvdy14PSItOCIgaW5rc2NhcGU6d2luZG93LXk9Ii04IiBpbmtzY2FwZTp3aW5kb3ctbWF4aW1pemVkPSIxIiBpbmtzY2FwZTpjdXJyZW50LWxheWVyPSJMYXllcl8xIi8+JiN4YTsmI3hhOzxnIGlkPSJnMzEwNjgiIHRyYW5zZm9ybT0idHJhbnNsYXRlKC01NS44NjAwMDEsLTIwNi4xMSkiPiYjeGE7CTxkZWZzIGlkPSJkZWZzMzEwMzUiPiYjeGE7CQk8cmVjdCBpZD0iU1ZHSURfM18iIHg9IjU1Ljg2MDAwMSIgeT0iMjA2LjExIiB3aWR0aD0iMTkuODA5OTk5IiBoZWlnaHQ9IjE2Ljk4Ii8+JiN4YTsJPC9kZWZzPiYjeGE7CTxjbGlwUGF0aCBpZD0iU1ZHSURfNF8iPiYjeGE7CQk8dXNlIHhsaW5rOmhyZWY9IiNTVkdJRF8zXyIgc3R5bGU9Im92ZXJmbG93OnZpc2libGUiIGlkPSJ1c2UzMTAzNyIgeD0iMCIgeT0iMCIgd2lkdGg9IjEwMCUiIGhlaWdodD0iMTAwJSIvPiYjeGE7CTwvY2xpcFBhdGg+JiN4YTsJPGcgY2xpcC1wYXRoPSJ1cmwoI1NWR0lEXzRfKSIgaWQ9ImczMTA2NiI+JiN4YTsJCTxkZWZzIGlkPSJkZWZzMzEwNDEiPiYjeGE7CQkJPHJlY3QgaWQ9IlNWR0lEXzVfIiB4PSI1NS44NjAwMDEiIHk9IjIwNi4xMSIgd2lkdGg9IjE5LjgwOTk5OSIgaGVpZ2h0PSIxNi45OCIvPiYjeGE7CQk8L2RlZnM+JiN4YTsJCTxjbGlwUGF0aCBpZD0iU1ZHSURfNl8iPiYjeGE7CQkJPHVzZSB4bGluazpocmVmPSIjU1ZHSURfNV8iIHN0eWxlPSJvdmVyZmxvdzp2aXNpYmxlIiBpZD0idXNlMzEwNDMiIHg9IjAiIHk9IjAiIHdpZHRoPSIxMDAlIiBoZWlnaHQ9IjEwMCUiLz4mI3hhOwkJPC9jbGlwUGF0aD4mI3hhOwkJPHBhdGggc3R5bGU9ImZpbGw6IzRhOWY0OSIgZD0ibSA3My44LDIxOS4yIGMgMCwxLjg1IC00LjAxLDMuMzUgLTguOTcsMy4zNSAtNC45NiwwIC04Ljk3LC0xLjQ5IC04Ljk3LC0zLjM1IHYgLTIuMjcgSCA3My44IFoiIGNsaXAtcGF0aD0idXJsKCNTVkdJRF82XykiIGlkPSJwYXRoMzEwNDYiIGlua3NjYXBlOmNvbm5lY3Rvci1jdXJ2YXR1cmU9IjAiLz4mI3hhOwkJPHBhdGggc3R5bGU9ImZpbGw6I2FkYzgwYiIgZD0ibSA3My44LDIxNi45MyBjIDAsMS44NSAtNC4wMSwzLjQxIC04Ljk3LDMuNDEgLTQuOTYsMCAtOC45NywtMS41NSAtOC45NywtMy40MSAwLC0xLjg1IDQuMDEsLTMuMzUgOC45NywtMy4zNSA0Ljk2LDAgOC45NywxLjUgOC45NywzLjM1IHoiIGNsaXAtcGF0aD0idXJsKCNTVkdJRF82XykiIGlkPSJwYXRoMzEwNDgiIGlua3NjYXBlOmNvbm5lY3Rvci1jdXJ2YXR1cmU9IjAiLz4mI3hhOwkJPHBhdGggc3R5bGU9ImZpbGw6I2NiZTIzOCIgZD0ibSA2My42MywyMTMuNTggYyAtMS41LDAuMDYgLTIuOTksMC4zIC00LjQzLDAuNzggbCA0LjA3LDEuODUgYyAwLjQyLC0wLjEyIDAuNzgsLTAuMTggMS4yLC0wLjE4IHoiIGNsaXAtcGF0aD0idXJsKCNTVkdJRF82XykiIGlkPSJwYXRoMzEwNTAiIGlua3NjYXBlOmNvbm5lY3Rvci1jdXJ2YXR1cmU9IjAiLz4mI3hhOwkJPHBhdGggc3R5bGU9ImZpbGw6I2NiZTIzOCIgZD0ibSA3MC40NSwyMTkuNTYgLTQuMDcsLTEuOTEgYyAtMC40MiwwLjEyIC0wLjg0LDAuMTggLTEuMiwwLjI0IGwgMC44NCwyLjQ1IGMgMS41LC0wLjEyIDMsLTAuMzYgNC40MywtMC43OCB6IiBjbGlwLXBhdGg9InVybCgjU1ZHSURfNl8pIiBpZD0icGF0aDMxMDUyIiBpbmtzY2FwZTpjb25uZWN0b3ItY3VydmF0dXJlPSIwIi8+JiN4YTsJCTxwYXRoIHN0eWxlPSJmaWxsOiMwODdlMDYiIGQ9Im0gNjcuMjgsMjE2LjkzIGMgMCwwLjU0IC0xLjE0LDAuOTYgLTIuNDUsMC45NiAtMS4zMSwwIC0yLjQ1LC0wLjQyIC0yLjQ1LC0wLjk2IDAsLTAuNDggMS4xNCwtMC45IDIuNDUsLTAuOSAxLjMxLDAgMi40NSwwLjQyIDIuNDUsMC45IHoiIGNsaXAtcGF0aD0idXJsKCNTVkdJRF82XykiIGlkPSJwYXRoMzEwNTQiIGlua3NjYXBlOmNvbm5lY3Rvci1jdXJ2YXR1cmU9IjAiLz4mI3hhOwkJPHBhdGggc3R5bGU9ImZpbGw6IzA4NzlkYSIgZD0ibSA3My44LDIxMS43MyBjIDAsMS44NSAtNC4wMSwzLjM1IC04Ljk3LDMuMzUgLTQuOTYsMCAtOC45NywtMS40OSAtOC45NywtMy4zNSB2IC0yLjI3IEggNzMuOCBaIiBjbGlwLXBhdGg9InVybCgjU1ZHSURfNl8pIiBpZD0icGF0aDMxMDU2IiBpbmtzY2FwZTpjb25uZWN0b3ItY3VydmF0dXJlPSIwIi8+JiN4YTsJCTxwYXRoIHN0eWxlPSJmaWxsOiMxMWJkZjUiIGQ9Im0gNzMuOCwyMDkuNDYgYyAwLDEuODUgLTQuMDEsMy40MSAtOC45NywzLjQxIC00Ljk2LDAgLTguOTcsLTEuNTUgLTguOTcsLTMuNDEgMCwtMS44NSA0LjAxLC0zLjM1IDguOTcsLTMuMzUgNC45NiwwIDguOTcsMS41IDguOTcsMy4zNSB6IiBjbGlwLXBhdGg9InVybCgjU1ZHSURfNl8pIiBpZD0icGF0aDMxMDU4IiBpbmtzY2FwZTpjb25uZWN0b3ItY3VydmF0dXJlPSIwIi8+JiN4YTsJCTxwYXRoIHN0eWxlPSJmaWxsOiMzOWNlZjciIGQ9Im0gNjMuNjMsMjA2LjExIGMgLTEuNSwwLjA2IC0yLjk5LDAuMyAtNC40MywwLjc4IGwgNC4wNywxLjg1IGMgMC40MiwtMC4xMiAwLjg0LC0wLjE4IDEuMiwtMC4xOCB6IiBjbGlwLXBhdGg9InVybCgjU1ZHSURfNl8pIiBpZD0icGF0aDMxMDYwIiBpbmtzY2FwZTpjb25uZWN0b3ItY3VydmF0dXJlPSIwIi8+JiN4YTsJCTxwYXRoIHN0eWxlPSJmaWxsOiMzOWNlZjciIGQ9Im0gNzAuNDUsMjEyLjA5IC00LjA3LC0xLjkxIGMgLTAuNDIsMC4xMiAtMC44NCwwLjE4IC0xLjIsMC4yNCBsIDAuODQsMi40NSBjIDEuNSwtMC4xMiAzLC0wLjM2IDQuNDMsLTAuNzggeiIgY2xpcC1wYXRoPSJ1cmwoI1NWR0lEXzZfKSIgaWQ9InBhdGgzMTA2MiIgaW5rc2NhcGU6Y29ubmVjdG9yLWN1cnZhdHVyZT0iMCIvPiYjeGE7CQk8cGF0aCBzdHlsZT0iZmlsbDojMDM1MjkzIiBkPSJtIDY3LjI4LDIwOS40NiBjIDAsMC41NCAtMS4xNCwwLjk2IC0yLjQ1LDAuOTYgLTEuMzEsMCAtMi40NSwtMC40MiAtMi40NSwtMC45NiAwLC0wLjQ4IDEuMTQsLTAuOSAyLjQ1LC0wLjkgMS4zMSwwIDIuNDUsMC40MiAyLjQ1LDAuOSB6IiBjbGlwLXBhdGg9InVybCgjU1ZHSURfNl8pIiBpZD0icGF0aDMxMDY0IiBpbmtzY2FwZTpjb25uZWN0b3ItY3VydmF0dXJlPSIwIi8+JiN4YTsJPC9nPiYjeGE7PC9nPiYjeGE7PC9zdmc+;fontSize=14;" vertex="1" parent="1">
          <mxGeometry x="247" y="438.4" width="33.75" height="30" as="geometry" />
        </mxCell>
        <mxCell id="RSznJ-GNL0sqVoyYkRlf-35" value="" style="shape=image;verticalLabelPosition=bottom;labelBackgroundColor=#ffffff;verticalAlign=top;aspect=fixed;imageAspect=0;image=data:image/svg+xml,PHN2ZyB4bWxuczpkYz0iaHR0cDovL3B1cmwub3JnL2RjL2VsZW1lbnRzLzEuMS8iIHhtbG5zOmNjPSJodHRwOi8vY3JlYXRpdmVjb21tb25zLm9yZy9ucyMiIHhtbG5zOnJkZj0iaHR0cDovL3d3dy53My5vcmcvMTk5OS8wMi8yMi1yZGYtc3ludGF4LW5zIyIgeG1sbnM6c3ZnPSJodHRwOi8vd3d3LnczLm9yZy8yMDAwL3N2ZyIgeG1sbnM9Imh0dHA6Ly93d3cudzMub3JnLzIwMDAvc3ZnIiB4bWxuczpzb2RpcG9kaT0iaHR0cDovL3NvZGlwb2RpLnNvdXJjZWZvcmdlLm5ldC9EVEQvc29kaXBvZGktMC5kdGQiIHhtbG5zOmlua3NjYXBlPSJodHRwOi8vd3d3Lmlua3NjYXBlLm9yZy9uYW1lc3BhY2VzL2lua3NjYXBlIiB2ZXJzaW9uPSIxLjEiIGlkPSJzdmc2MTAxMSIgaW5rc2NhcGU6dmVyc2lvbj0iMC45Mi4zICgyNDA1NTQ2LCAyMDE4LTAzLTExKSIgc29kaXBvZGk6ZG9jbmFtZT0iYXp1cmVfcG9ydGFsX3ZpcnR1YWxfbWFjaGluZXMuc3ZnIiB4PSIwcHgiIHk9IjBweCIgdmlld0JveD0iMCAwIDU3LjY0IDUzLjIwMDAwMiIgeG1sOnNwYWNlPSJwcmVzZXJ2ZSIgd2lkdGg9IjU3LjYzOTk5OSIgaGVpZ2h0PSI1My4yMDAwMDEiPjxtZXRhZGF0YSBpZD0ibWV0YWRhdGExMDk5MCI+PHJkZjpSREY+PGNjOldvcmsgcmRmOmFib3V0PSIiPjxkYzpmb3JtYXQ+aW1hZ2Uvc3ZnK3htbDwvZGM6Zm9ybWF0PjxkYzp0eXBlIHJkZjpyZXNvdXJjZT0iaHR0cDovL3B1cmwub3JnL2RjL2RjbWl0eXBlL1N0aWxsSW1hZ2UiLz48ZGM6dGl0bGUvPjwvY2M6V29yaz48L3JkZjpSREY+PC9tZXRhZGF0YT48ZGVmcyBpZD0iZGVmczEwOTg4Ii8+JiN4YTs8ZmlsdGVyIGlkPSJmaWx0ZXJfMiI+JiN4YTsJPGZlR2F1c3NpYW5CbHVyIGlkPSJmZUdhdXNzaWFuQmx1cjYwOTIwIiBzdGREZXZpYXRpb249IjIiLz4mI3hhOzwvZmlsdGVyPiYjeGE7PHNvZGlwb2RpOm5hbWVkdmlldyBib3JkZXJjb2xvcj0iIzY2NjY2NiIgYm9yZGVyb3BhY2l0eT0iMSIgZml0LW1hcmdpbi1ib3R0b209IjAiIGZpdC1tYXJnaW4tbGVmdD0iMCIgZml0LW1hcmdpbi1yaWdodD0iMCIgZml0LW1hcmdpbi10b3A9IjAiIGdyaWR0b2xlcmFuY2U9IjEwIiBndWlkZXRvbGVyYW5jZT0iMTAiIGlkPSJuYW1lZHZpZXc2MTAxMyIgaW5rc2NhcGU6Y3VycmVudC1sYXllcj0ic3ZnNjEwMTEiIGlua3NjYXBlOmN4PSItMzMuMTQzMzAzIiBpbmtzY2FwZTpjeT0iMjQuNjk2NTQ0IiBpbmtzY2FwZTpwYWdlb3BhY2l0eT0iMCIgaW5rc2NhcGU6cGFnZXNoYWRvdz0iMiIgaW5rc2NhcGU6d2luZG93LWhlaWdodD0iMTAxNyIgaW5rc2NhcGU6d2luZG93LW1heGltaXplZD0iMSIgaW5rc2NhcGU6d2luZG93LXdpZHRoPSIxOTIwIiBpbmtzY2FwZTp3aW5kb3cteD0iLTgiIGlua3NjYXBlOndpbmRvdy15PSItOCIgaW5rc2NhcGU6em9vbT0iNS45MTg3NzA5IiBvYmplY3R0b2xlcmFuY2U9IjEwIiBwYWdlY29sb3I9IiNmZmZmZmYiIHNob3dncmlkPSJmYWxzZSI+JiN4YTsJPC9zb2RpcG9kaTpuYW1lZHZpZXc+JiN4YTsmI3hhOzxwYXRoIGlkPSJwYXRoNjA5MzMiIGlua3NjYXBlOmNvbm5lY3Rvci1jdXJ2YXR1cmU9IjAiIHN0eWxlPSJmaWxsOiM3YTdhN2EiIGQ9Ik0gMzcuMzksNDIuMTIgSCAzNi4wMSAyMi40MiAyMS43MSBjIDEuODgsNi42NSAtMC42NSw3LjYgLTExLjczLDcuNiB2IDMuNDggaCAxNC4xIDEwLjI5IDEzLjMgdiAtMy40OCBjIC0xMS4wOCwwIC0xMi4xNywtMC45NSAtMTAuMjgsLTcuNiB6Ii8+JiN4YTsmI3hhOzxwYXRoIGlkPSJwYXRoNjA5NDEiIGlua3NjYXBlOmNvbm5lY3Rvci1jdXJ2YXR1cmU9IjAiIHN0eWxlPSJmaWxsOiNhMGExYTIiIGQ9Ik0gNTQuMTYsMCBIIDMuMTMgQyAxLjQsMCAwLDEuNTUgMCwzLjI4IHYgMzUuNTkgYyAwLDEuNzIgMS40LDMuMjUgMy4xMywzLjI1IGggNTEuMDMgYyAxLjczLDAgMy40OCwtMS41MyAzLjQ4LC0zLjI1IFYgMy4yOCBDIDU3LjY0LDEuNTUgNTUuODksMCA1NC4xNiwwIFoiLz4mI3hhOyYjeGE7PHBhdGggaWQ9InBhdGg2MDk0OSIgaW5rc2NhcGU6Y29ubmVjdG9yLWN1cnZhdHVyZT0iMCIgc3R5bGU9ImZpbGw6I2ZmZmZmZjtmaWxsLW9wYWNpdHk6MC4yIiBkPSJNIDU0LjIsMCBDIDU0LjE5LDAgNTQuMTcsMCA1NC4xNiwwIEggMy4xMyBDIDEuNCwwIDAsMS41NSAwLDMuMjggdiAzNS41OSBjIDAsMS43MiAxLjQsMy4yNSAzLjEzLDMuMjUgaCAxLjIyIHoiLz4mI3hhOyYjeGE7PHJlY3QgaWQ9InJlY3Q2MDk1NyIgeD0iNC4zNjk5OTUxIiB5PSI0LjQ0MDAwMDEiIHN0eWxlPSJmaWxsOiM1OWI0ZDkiIHdpZHRoPSI0OC43Nzk5OTkiIGhlaWdodD0iMzMuMjUiLz4mI3hhOyYjeGE7JiN4YTsmI3hhOzxyZWN0IGlkPSJyZWN0NjA5NzMiIHg9IjkuOTc5OTk1NyIgeT0iNDkuNzIwMDAxIiBzdHlsZT0iZmlsbDojYTBhMWEyIiB3aWR0aD0iMzcuNjg5OTk5IiBoZWlnaHQ9IjMuNDgiLz4mI3hhOyYjeGE7PHBhdGggaWQ9InBhdGg2MDk4MSIgaW5rc2NhcGU6Y29ubmVjdG9yLWN1cnZhdHVyZT0iMCIgc3R5bGU9ImZpbGw6I2I4ZDQzMiIgZD0ibSAyOS40MiwyLjQyIGMgMCwwLjQ1IC0wLjM3LDAuODEgLTAuODIsMC44MSAtMC40NiwwIC0wLjgyLC0wLjM2IC0wLjgyLC0wLjgxIDAsLTAuNDYgMC4zNiwtMC44MiAwLjgyLC0wLjgyIDAuNDUsMCAwLjgyLDAuMzYgMC44MiwwLjgyIHoiLz4mI3hhOyYjeGE7PHBhdGggaWQ9InBhdGg2MDk4OSIgaW5rc2NhcGU6Y29ubmVjdG9yLWN1cnZhdHVyZT0iMCIgc3R5bGU9ImZpbGw6I2ZmZmZmZiIgZD0ibSAyOS40NSwyMC4wNSBjIC0wLjA2LDAgLTAuMTEsLTAuMDEgLTAuMTYsLTAuMDQgTCAxOS4xNCwxNC4xNSBjIC0wLjA5LC0wLjA1IC0wLjE1LC0wLjE2IC0wLjE1LC0wLjI2IDAsLTAuMTEgMC4wNiwtMC4yMiAwLjE1LC0wLjI3IEwgMjkuMjMsNy44IGMgMC4xLC0wLjA1IDAuMjEsLTAuMDUgMC4zLDAgbCAxMC4xNiw1Ljg2IGMgMC4wOSwwLjA1IDAuMTUsMC4xNiAwLjE1LDAuMjcgMCwwLjExIC0wLjA2LDAuMjEgLTAuMTUsMC4yNiBMIDI5LjYsMjAuMDEgYyAtMC4wNSwwLjAzIC0wLjEsMC4wNCAtMC4xNSwwLjA0IHoiLz4mI3hhOyYjeGE7PHBhdGggaWQ9InBhdGg2MDk5NyIgaW5rc2NhcGU6Y29ubmVjdG9yLWN1cnZhdHVyZT0iMCIgc3R5bGU9ImZpbGw6I2ZmZmZmZjtmaWxsLW9wYWNpdHk6MC43IiBkPSJtIDI3Ljk5LDM0LjI5IGMgLTAuMDYsMCAtMC4xMSwtMC4wMSAtMC4xNSwtMC4wNCBMIDE3LjcyLDI4LjQxIGMgLTAuMSwtMC4wNSAtMC4xNiwtMC4xNSAtMC4xNiwtMC4yNiBWIDE2LjQzIGMgMCwtMC4xMSAwLjA2LC0wLjIyIDAuMTYsLTAuMjcgMC4wOSwtMC4wNiAwLjIxLC0wLjA2IDAuMzEsMCBMIDI4LjE0LDIyIGMgMC4wOSwwLjA2IDAuMTUsMC4xNiAwLjE1LDAuMjcgdiAxMS43MiBjIDAsMC4xMSAtMC4wNiwwLjIxIC0wLjE1LDAuMjYgLTAuMDUsMC4wMyAtMC4xLDAuMDQgLTAuMTUsMC4wNCB6Ii8+JiN4YTsmI3hhOzxwYXRoIGlkPSJwYXRoNjEwMDUiIGlua3NjYXBlOmNvbm5lY3Rvci1jdXJ2YXR1cmU9IjAiIHN0eWxlPSJmaWxsOiNmZmZmZmY7ZmlsbC1vcGFjaXR5OjAuNCIgZD0iTSAzMC44NiwzNC4yOSBDIDMwLjgsMzQuMjkgMzAuNzUsMzQuMjggMzAuNywzNC4yNSAzMC42MSwzNC4yIDMwLjU1LDM0LjEgMzAuNTUsMzMuOTkgViAyMi4zNCBjIDAsLTAuMTEgMC4wNiwtMC4yMSAwLjE1LC0wLjI3IGwgMTAuMTIsLTUuODMgYyAwLjA5LC0wLjA2IDAuMjEsLTAuMDYgMC4zLDAgMC4xLDAuMDUgMC4xNiwwLjE1IDAuMTYsMC4yNiB2IDExLjY1IGMgMCwwLjExIC0wLjA2LDAuMjEgLTAuMTYsMC4yNiBsIC0xMC4xMSw1Ljg0IGMgLTAuMDQsMC4wMyAtMC4xLDAuMDQgLTAuMTUsMC4wNCB6Ii8+JiN4YTs8L3N2Zz4=;" vertex="1" parent="1">
          <mxGeometry x="635.0200000000001" y="202.7" width="58" height="53" as="geometry" />
        </mxCell>
        <mxCell id="RSznJ-GNL0sqVoyYkRlf-36" value="" style="shape=image;verticalLabelPosition=bottom;labelBackgroundColor=#ffffff;verticalAlign=top;aspect=fixed;imageAspect=0;image=data:image/svg+xml,PHN2ZyB4bWxuczpkYz0iaHR0cDovL3B1cmwub3JnL2RjL2VsZW1lbnRzLzEuMS8iIHhtbG5zOmNjPSJodHRwOi8vY3JlYXRpdmVjb21tb25zLm9yZy9ucyMiIHhtbG5zOnJkZj0iaHR0cDovL3d3dy53My5vcmcvMTk5OS8wMi8yMi1yZGYtc3ludGF4LW5zIyIgeG1sbnM6c3ZnPSJodHRwOi8vd3d3LnczLm9yZy8yMDAwL3N2ZyIgeG1sbnM9Imh0dHA6Ly93d3cudzMub3JnLzIwMDAvc3ZnIiB4bWxuczpzb2RpcG9kaT0iaHR0cDovL3NvZGlwb2RpLnNvdXJjZWZvcmdlLm5ldC9EVEQvc29kaXBvZGktMC5kdGQiIHhtbG5zOmlua3NjYXBlPSJodHRwOi8vd3d3Lmlua3NjYXBlLm9yZy9uYW1lc3BhY2VzL2lua3NjYXBlIiB2ZXJzaW9uPSIxLjEiIGlkPSJzdmc2MTAxMSIgaW5rc2NhcGU6dmVyc2lvbj0iMC45Mi4zICgyNDA1NTQ2LCAyMDE4LTAzLTExKSIgc29kaXBvZGk6ZG9jbmFtZT0iYXp1cmVfcG9ydGFsX3ZpcnR1YWxfbWFjaGluZXMuc3ZnIiB4PSIwcHgiIHk9IjBweCIgdmlld0JveD0iMCAwIDU3LjY0IDUzLjIwMDAwMiIgeG1sOnNwYWNlPSJwcmVzZXJ2ZSIgd2lkdGg9IjU3LjYzOTk5OSIgaGVpZ2h0PSI1My4yMDAwMDEiPjxtZXRhZGF0YSBpZD0ibWV0YWRhdGExMDk5MCI+PHJkZjpSREY+PGNjOldvcmsgcmRmOmFib3V0PSIiPjxkYzpmb3JtYXQ+aW1hZ2Uvc3ZnK3htbDwvZGM6Zm9ybWF0PjxkYzp0eXBlIHJkZjpyZXNvdXJjZT0iaHR0cDovL3B1cmwub3JnL2RjL2RjbWl0eXBlL1N0aWxsSW1hZ2UiLz48ZGM6dGl0bGUvPjwvY2M6V29yaz48L3JkZjpSREY+PC9tZXRhZGF0YT48ZGVmcyBpZD0iZGVmczEwOTg4Ii8+JiN4YTs8ZmlsdGVyIGlkPSJmaWx0ZXJfMiI+JiN4YTsJPGZlR2F1c3NpYW5CbHVyIGlkPSJmZUdhdXNzaWFuQmx1cjYwOTIwIiBzdGREZXZpYXRpb249IjIiLz4mI3hhOzwvZmlsdGVyPiYjeGE7PHNvZGlwb2RpOm5hbWVkdmlldyBib3JkZXJjb2xvcj0iIzY2NjY2NiIgYm9yZGVyb3BhY2l0eT0iMSIgZml0LW1hcmdpbi1ib3R0b209IjAiIGZpdC1tYXJnaW4tbGVmdD0iMCIgZml0LW1hcmdpbi1yaWdodD0iMCIgZml0LW1hcmdpbi10b3A9IjAiIGdyaWR0b2xlcmFuY2U9IjEwIiBndWlkZXRvbGVyYW5jZT0iMTAiIGlkPSJuYW1lZHZpZXc2MTAxMyIgaW5rc2NhcGU6Y3VycmVudC1sYXllcj0ic3ZnNjEwMTEiIGlua3NjYXBlOmN4PSItMzMuMTQzMzAzIiBpbmtzY2FwZTpjeT0iMjQuNjk2NTQ0IiBpbmtzY2FwZTpwYWdlb3BhY2l0eT0iMCIgaW5rc2NhcGU6cGFnZXNoYWRvdz0iMiIgaW5rc2NhcGU6d2luZG93LWhlaWdodD0iMTAxNyIgaW5rc2NhcGU6d2luZG93LW1heGltaXplZD0iMSIgaW5rc2NhcGU6d2luZG93LXdpZHRoPSIxOTIwIiBpbmtzY2FwZTp3aW5kb3cteD0iLTgiIGlua3NjYXBlOndpbmRvdy15PSItOCIgaW5rc2NhcGU6em9vbT0iNS45MTg3NzA5IiBvYmplY3R0b2xlcmFuY2U9IjEwIiBwYWdlY29sb3I9IiNmZmZmZmYiIHNob3dncmlkPSJmYWxzZSI+JiN4YTsJPC9zb2RpcG9kaTpuYW1lZHZpZXc+JiN4YTsmI3hhOzxwYXRoIGlkPSJwYXRoNjA5MzMiIGlua3NjYXBlOmNvbm5lY3Rvci1jdXJ2YXR1cmU9IjAiIHN0eWxlPSJmaWxsOiM3YTdhN2EiIGQ9Ik0gMzcuMzksNDIuMTIgSCAzNi4wMSAyMi40MiAyMS43MSBjIDEuODgsNi42NSAtMC42NSw3LjYgLTExLjczLDcuNiB2IDMuNDggaCAxNC4xIDEwLjI5IDEzLjMgdiAtMy40OCBjIC0xMS4wOCwwIC0xMi4xNywtMC45NSAtMTAuMjgsLTcuNiB6Ii8+JiN4YTsmI3hhOzxwYXRoIGlkPSJwYXRoNjA5NDEiIGlua3NjYXBlOmNvbm5lY3Rvci1jdXJ2YXR1cmU9IjAiIHN0eWxlPSJmaWxsOiNhMGExYTIiIGQ9Ik0gNTQuMTYsMCBIIDMuMTMgQyAxLjQsMCAwLDEuNTUgMCwzLjI4IHYgMzUuNTkgYyAwLDEuNzIgMS40LDMuMjUgMy4xMywzLjI1IGggNTEuMDMgYyAxLjczLDAgMy40OCwtMS41MyAzLjQ4LC0zLjI1IFYgMy4yOCBDIDU3LjY0LDEuNTUgNTUuODksMCA1NC4xNiwwIFoiLz4mI3hhOyYjeGE7PHBhdGggaWQ9InBhdGg2MDk0OSIgaW5rc2NhcGU6Y29ubmVjdG9yLWN1cnZhdHVyZT0iMCIgc3R5bGU9ImZpbGw6I2ZmZmZmZjtmaWxsLW9wYWNpdHk6MC4yIiBkPSJNIDU0LjIsMCBDIDU0LjE5LDAgNTQuMTcsMCA1NC4xNiwwIEggMy4xMyBDIDEuNCwwIDAsMS41NSAwLDMuMjggdiAzNS41OSBjIDAsMS43MiAxLjQsMy4yNSAzLjEzLDMuMjUgaCAxLjIyIHoiLz4mI3hhOyYjeGE7PHJlY3QgaWQ9InJlY3Q2MDk1NyIgeD0iNC4zNjk5OTUxIiB5PSI0LjQ0MDAwMDEiIHN0eWxlPSJmaWxsOiM1OWI0ZDkiIHdpZHRoPSI0OC43Nzk5OTkiIGhlaWdodD0iMzMuMjUiLz4mI3hhOyYjeGE7JiN4YTsmI3hhOzxyZWN0IGlkPSJyZWN0NjA5NzMiIHg9IjkuOTc5OTk1NyIgeT0iNDkuNzIwMDAxIiBzdHlsZT0iZmlsbDojYTBhMWEyIiB3aWR0aD0iMzcuNjg5OTk5IiBoZWlnaHQ9IjMuNDgiLz4mI3hhOyYjeGE7PHBhdGggaWQ9InBhdGg2MDk4MSIgaW5rc2NhcGU6Y29ubmVjdG9yLWN1cnZhdHVyZT0iMCIgc3R5bGU9ImZpbGw6I2I4ZDQzMiIgZD0ibSAyOS40MiwyLjQyIGMgMCwwLjQ1IC0wLjM3LDAuODEgLTAuODIsMC44MSAtMC40NiwwIC0wLjgyLC0wLjM2IC0wLjgyLC0wLjgxIDAsLTAuNDYgMC4zNiwtMC44MiAwLjgyLC0wLjgyIDAuNDUsMCAwLjgyLDAuMzYgMC44MiwwLjgyIHoiLz4mI3hhOyYjeGE7PHBhdGggaWQ9InBhdGg2MDk4OSIgaW5rc2NhcGU6Y29ubmVjdG9yLWN1cnZhdHVyZT0iMCIgc3R5bGU9ImZpbGw6I2ZmZmZmZiIgZD0ibSAyOS40NSwyMC4wNSBjIC0wLjA2LDAgLTAuMTEsLTAuMDEgLTAuMTYsLTAuMDQgTCAxOS4xNCwxNC4xNSBjIC0wLjA5LC0wLjA1IC0wLjE1LC0wLjE2IC0wLjE1LC0wLjI2IDAsLTAuMTEgMC4wNiwtMC4yMiAwLjE1LC0wLjI3IEwgMjkuMjMsNy44IGMgMC4xLC0wLjA1IDAuMjEsLTAuMDUgMC4zLDAgbCAxMC4xNiw1Ljg2IGMgMC4wOSwwLjA1IDAuMTUsMC4xNiAwLjE1LDAuMjcgMCwwLjExIC0wLjA2LDAuMjEgLTAuMTUsMC4yNiBMIDI5LjYsMjAuMDEgYyAtMC4wNSwwLjAzIC0wLjEsMC4wNCAtMC4xNSwwLjA0IHoiLz4mI3hhOyYjeGE7PHBhdGggaWQ9InBhdGg2MDk5NyIgaW5rc2NhcGU6Y29ubmVjdG9yLWN1cnZhdHVyZT0iMCIgc3R5bGU9ImZpbGw6I2ZmZmZmZjtmaWxsLW9wYWNpdHk6MC43IiBkPSJtIDI3Ljk5LDM0LjI5IGMgLTAuMDYsMCAtMC4xMSwtMC4wMSAtMC4xNSwtMC4wNCBMIDE3LjcyLDI4LjQxIGMgLTAuMSwtMC4wNSAtMC4xNiwtMC4xNSAtMC4xNiwtMC4yNiBWIDE2LjQzIGMgMCwtMC4xMSAwLjA2LC0wLjIyIDAuMTYsLTAuMjcgMC4wOSwtMC4wNiAwLjIxLC0wLjA2IDAuMzEsMCBMIDI4LjE0LDIyIGMgMC4wOSwwLjA2IDAuMTUsMC4xNiAwLjE1LDAuMjcgdiAxMS43MiBjIDAsMC4xMSAtMC4wNiwwLjIxIC0wLjE1LDAuMjYgLTAuMDUsMC4wMyAtMC4xLDAuMDQgLTAuMTUsMC4wNCB6Ii8+JiN4YTsmI3hhOzxwYXRoIGlkPSJwYXRoNjEwMDUiIGlua3NjYXBlOmNvbm5lY3Rvci1jdXJ2YXR1cmU9IjAiIHN0eWxlPSJmaWxsOiNmZmZmZmY7ZmlsbC1vcGFjaXR5OjAuNCIgZD0iTSAzMC44NiwzNC4yOSBDIDMwLjgsMzQuMjkgMzAuNzUsMzQuMjggMzAuNywzNC4yNSAzMC42MSwzNC4yIDMwLjU1LDM0LjEgMzAuNTUsMzMuOTkgViAyMi4zNCBjIDAsLTAuMTEgMC4wNiwtMC4yMSAwLjE1LC0wLjI3IGwgMTAuMTIsLTUuODMgYyAwLjA5LC0wLjA2IDAuMjEsLTAuMDYgMC4zLDAgMC4xLDAuMDUgMC4xNiwwLjE1IDAuMTYsMC4yNiB2IDExLjY1IGMgMCwwLjExIC0wLjA2LDAuMjEgLTAuMTYsMC4yNiBsIC0xMC4xMSw1Ljg0IGMgLTAuMDQsMC4wMyAtMC4xLDAuMDQgLTAuMTUsMC4wNCB6Ii8+JiN4YTs8L3N2Zz4=;" vertex="1" parent="1">
          <mxGeometry x="577.7600000000001" y="357.2" width="58" height="53" as="geometry" />
        </mxCell>
        <mxCell id="RSznJ-GNL0sqVoyYkRlf-37" value="" style="shape=image;verticalLabelPosition=bottom;labelBackgroundColor=#ffffff;verticalAlign=top;aspect=fixed;imageAspect=0;image=data:image/svg+xml,PHN2ZyB4bWxuczpkYz0iaHR0cDovL3B1cmwub3JnL2RjL2VsZW1lbnRzLzEuMS8iIHhtbG5zOmNjPSJodHRwOi8vY3JlYXRpdmVjb21tb25zLm9yZy9ucyMiIHhtbG5zOnJkZj0iaHR0cDovL3d3dy53My5vcmcvMTk5OS8wMi8yMi1yZGYtc3ludGF4LW5zIyIgeG1sbnM6c3ZnPSJodHRwOi8vd3d3LnczLm9yZy8yMDAwL3N2ZyIgeG1sbnM9Imh0dHA6Ly93d3cudzMub3JnLzIwMDAvc3ZnIiB4bWxuczpzb2RpcG9kaT0iaHR0cDovL3NvZGlwb2RpLnNvdXJjZWZvcmdlLm5ldC9EVEQvc29kaXBvZGktMC5kdGQiIHhtbG5zOmlua3NjYXBlPSJodHRwOi8vd3d3Lmlua3NjYXBlLm9yZy9uYW1lc3BhY2VzL2lua3NjYXBlIiB2ZXJzaW9uPSIxLjEiIGlkPSJzdmc2MTAxMSIgaW5rc2NhcGU6dmVyc2lvbj0iMC45Mi4zICgyNDA1NTQ2LCAyMDE4LTAzLTExKSIgc29kaXBvZGk6ZG9jbmFtZT0iYXp1cmVfcG9ydGFsX3ZpcnR1YWxfbWFjaGluZXMuc3ZnIiB4PSIwcHgiIHk9IjBweCIgdmlld0JveD0iMCAwIDU3LjY0IDUzLjIwMDAwMiIgeG1sOnNwYWNlPSJwcmVzZXJ2ZSIgd2lkdGg9IjU3LjYzOTk5OSIgaGVpZ2h0PSI1My4yMDAwMDEiPjxtZXRhZGF0YSBpZD0ibWV0YWRhdGExMDk5MCI+PHJkZjpSREY+PGNjOldvcmsgcmRmOmFib3V0PSIiPjxkYzpmb3JtYXQ+aW1hZ2Uvc3ZnK3htbDwvZGM6Zm9ybWF0PjxkYzp0eXBlIHJkZjpyZXNvdXJjZT0iaHR0cDovL3B1cmwub3JnL2RjL2RjbWl0eXBlL1N0aWxsSW1hZ2UiLz48ZGM6dGl0bGUvPjwvY2M6V29yaz48L3JkZjpSREY+PC9tZXRhZGF0YT48ZGVmcyBpZD0iZGVmczEwOTg4Ii8+JiN4YTs8ZmlsdGVyIGlkPSJmaWx0ZXJfMiI+JiN4YTsJPGZlR2F1c3NpYW5CbHVyIGlkPSJmZUdhdXNzaWFuQmx1cjYwOTIwIiBzdGREZXZpYXRpb249IjIiLz4mI3hhOzwvZmlsdGVyPiYjeGE7PHNvZGlwb2RpOm5hbWVkdmlldyBib3JkZXJjb2xvcj0iIzY2NjY2NiIgYm9yZGVyb3BhY2l0eT0iMSIgZml0LW1hcmdpbi1ib3R0b209IjAiIGZpdC1tYXJnaW4tbGVmdD0iMCIgZml0LW1hcmdpbi1yaWdodD0iMCIgZml0LW1hcmdpbi10b3A9IjAiIGdyaWR0b2xlcmFuY2U9IjEwIiBndWlkZXRvbGVyYW5jZT0iMTAiIGlkPSJuYW1lZHZpZXc2MTAxMyIgaW5rc2NhcGU6Y3VycmVudC1sYXllcj0ic3ZnNjEwMTEiIGlua3NjYXBlOmN4PSItMzMuMTQzMzAzIiBpbmtzY2FwZTpjeT0iMjQuNjk2NTQ0IiBpbmtzY2FwZTpwYWdlb3BhY2l0eT0iMCIgaW5rc2NhcGU6cGFnZXNoYWRvdz0iMiIgaW5rc2NhcGU6d2luZG93LWhlaWdodD0iMTAxNyIgaW5rc2NhcGU6d2luZG93LW1heGltaXplZD0iMSIgaW5rc2NhcGU6d2luZG93LXdpZHRoPSIxOTIwIiBpbmtzY2FwZTp3aW5kb3cteD0iLTgiIGlua3NjYXBlOndpbmRvdy15PSItOCIgaW5rc2NhcGU6em9vbT0iNS45MTg3NzA5IiBvYmplY3R0b2xlcmFuY2U9IjEwIiBwYWdlY29sb3I9IiNmZmZmZmYiIHNob3dncmlkPSJmYWxzZSI+JiN4YTsJPC9zb2RpcG9kaTpuYW1lZHZpZXc+JiN4YTsmI3hhOzxwYXRoIGlkPSJwYXRoNjA5MzMiIGlua3NjYXBlOmNvbm5lY3Rvci1jdXJ2YXR1cmU9IjAiIHN0eWxlPSJmaWxsOiM3YTdhN2EiIGQ9Ik0gMzcuMzksNDIuMTIgSCAzNi4wMSAyMi40MiAyMS43MSBjIDEuODgsNi42NSAtMC42NSw3LjYgLTExLjczLDcuNiB2IDMuNDggaCAxNC4xIDEwLjI5IDEzLjMgdiAtMy40OCBjIC0xMS4wOCwwIC0xMi4xNywtMC45NSAtMTAuMjgsLTcuNiB6Ii8+JiN4YTsmI3hhOzxwYXRoIGlkPSJwYXRoNjA5NDEiIGlua3NjYXBlOmNvbm5lY3Rvci1jdXJ2YXR1cmU9IjAiIHN0eWxlPSJmaWxsOiNhMGExYTIiIGQ9Ik0gNTQuMTYsMCBIIDMuMTMgQyAxLjQsMCAwLDEuNTUgMCwzLjI4IHYgMzUuNTkgYyAwLDEuNzIgMS40LDMuMjUgMy4xMywzLjI1IGggNTEuMDMgYyAxLjczLDAgMy40OCwtMS41MyAzLjQ4LC0zLjI1IFYgMy4yOCBDIDU3LjY0LDEuNTUgNTUuODksMCA1NC4xNiwwIFoiLz4mI3hhOyYjeGE7PHBhdGggaWQ9InBhdGg2MDk0OSIgaW5rc2NhcGU6Y29ubmVjdG9yLWN1cnZhdHVyZT0iMCIgc3R5bGU9ImZpbGw6I2ZmZmZmZjtmaWxsLW9wYWNpdHk6MC4yIiBkPSJNIDU0LjIsMCBDIDU0LjE5LDAgNTQuMTcsMCA1NC4xNiwwIEggMy4xMyBDIDEuNCwwIDAsMS41NSAwLDMuMjggdiAzNS41OSBjIDAsMS43MiAxLjQsMy4yNSAzLjEzLDMuMjUgaCAxLjIyIHoiLz4mI3hhOyYjeGE7PHJlY3QgaWQ9InJlY3Q2MDk1NyIgeD0iNC4zNjk5OTUxIiB5PSI0LjQ0MDAwMDEiIHN0eWxlPSJmaWxsOiM1OWI0ZDkiIHdpZHRoPSI0OC43Nzk5OTkiIGhlaWdodD0iMzMuMjUiLz4mI3hhOyYjeGE7JiN4YTsmI3hhOzxyZWN0IGlkPSJyZWN0NjA5NzMiIHg9IjkuOTc5OTk1NyIgeT0iNDkuNzIwMDAxIiBzdHlsZT0iZmlsbDojYTBhMWEyIiB3aWR0aD0iMzcuNjg5OTk5IiBoZWlnaHQ9IjMuNDgiLz4mI3hhOyYjeGE7PHBhdGggaWQ9InBhdGg2MDk4MSIgaW5rc2NhcGU6Y29ubmVjdG9yLWN1cnZhdHVyZT0iMCIgc3R5bGU9ImZpbGw6I2I4ZDQzMiIgZD0ibSAyOS40MiwyLjQyIGMgMCwwLjQ1IC0wLjM3LDAuODEgLTAuODIsMC44MSAtMC40NiwwIC0wLjgyLC0wLjM2IC0wLjgyLC0wLjgxIDAsLTAuNDYgMC4zNiwtMC44MiAwLjgyLC0wLjgyIDAuNDUsMCAwLjgyLDAuMzYgMC44MiwwLjgyIHoiLz4mI3hhOyYjeGE7PHBhdGggaWQ9InBhdGg2MDk4OSIgaW5rc2NhcGU6Y29ubmVjdG9yLWN1cnZhdHVyZT0iMCIgc3R5bGU9ImZpbGw6I2ZmZmZmZiIgZD0ibSAyOS40NSwyMC4wNSBjIC0wLjA2LDAgLTAuMTEsLTAuMDEgLTAuMTYsLTAuMDQgTCAxOS4xNCwxNC4xNSBjIC0wLjA5LC0wLjA1IC0wLjE1LC0wLjE2IC0wLjE1LC0wLjI2IDAsLTAuMTEgMC4wNiwtMC4yMiAwLjE1LC0wLjI3IEwgMjkuMjMsNy44IGMgMC4xLC0wLjA1IDAuMjEsLTAuMDUgMC4zLDAgbCAxMC4xNiw1Ljg2IGMgMC4wOSwwLjA1IDAuMTUsMC4xNiAwLjE1LDAuMjcgMCwwLjExIC0wLjA2LDAuMjEgLTAuMTUsMC4yNiBMIDI5LjYsMjAuMDEgYyAtMC4wNSwwLjAzIC0wLjEsMC4wNCAtMC4xNSwwLjA0IHoiLz4mI3hhOyYjeGE7PHBhdGggaWQ9InBhdGg2MDk5NyIgaW5rc2NhcGU6Y29ubmVjdG9yLWN1cnZhdHVyZT0iMCIgc3R5bGU9ImZpbGw6I2ZmZmZmZjtmaWxsLW9wYWNpdHk6MC43IiBkPSJtIDI3Ljk5LDM0LjI5IGMgLTAuMDYsMCAtMC4xMSwtMC4wMSAtMC4xNSwtMC4wNCBMIDE3LjcyLDI4LjQxIGMgLTAuMSwtMC4wNSAtMC4xNiwtMC4xNSAtMC4xNiwtMC4yNiBWIDE2LjQzIGMgMCwtMC4xMSAwLjA2LC0wLjIyIDAuMTYsLTAuMjcgMC4wOSwtMC4wNiAwLjIxLC0wLjA2IDAuMzEsMCBMIDI4LjE0LDIyIGMgMC4wOSwwLjA2IDAuMTUsMC4xNiAwLjE1LDAuMjcgdiAxMS43MiBjIDAsMC4xMSAtMC4wNiwwLjIxIC0wLjE1LDAuMjYgLTAuMDUsMC4wMyAtMC4xLDAuMDQgLTAuMTUsMC4wNCB6Ii8+JiN4YTsmI3hhOzxwYXRoIGlkPSJwYXRoNjEwMDUiIGlua3NjYXBlOmNvbm5lY3Rvci1jdXJ2YXR1cmU9IjAiIHN0eWxlPSJmaWxsOiNmZmZmZmY7ZmlsbC1vcGFjaXR5OjAuNCIgZD0iTSAzMC44NiwzNC4yOSBDIDMwLjgsMzQuMjkgMzAuNzUsMzQuMjggMzAuNywzNC4yNSAzMC42MSwzNC4yIDMwLjU1LDM0LjEgMzAuNTUsMzMuOTkgViAyMi4zNCBjIDAsLTAuMTEgMC4wNiwtMC4yMSAwLjE1LC0wLjI3IGwgMTAuMTIsLTUuODMgYyAwLjA5LC0wLjA2IDAuMjEsLTAuMDYgMC4zLDAgMC4xLDAuMDUgMC4xNiwwLjE1IDAuMTYsMC4yNiB2IDExLjY1IGMgMCwwLjExIC0wLjA2LDAuMjEgLTAuMTYsMC4yNiBsIC0xMC4xMSw1Ljg0IGMgLTAuMDQsMC4wMyAtMC4xLDAuMDQgLTAuMTUsMC4wNCB6Ii8+JiN4YTs8L3N2Zz4=;" vertex="1" parent="1">
          <mxGeometry x="709.2600000000001" y="357.2" width="58" height="53" as="geometry" />
        </mxCell>
        <mxCell id="RSznJ-GNL0sqVoyYkRlf-38" value="" style="shape=image;verticalLabelPosition=bottom;labelBackgroundColor=#ffffff;verticalAlign=top;aspect=fixed;imageAspect=0;image=data:image/svg+xml,PHN2ZyB4bWxuczpjYz0iaHR0cDovL2NyZWF0aXZlY29tbW9ucy5vcmcvbnMjIiB4bWxuczpkYz0iaHR0cDovL3B1cmwub3JnL2RjL2VsZW1lbnRzLzEuMS8iIHhtbG5zOmlua3NjYXBlPSJodHRwOi8vd3d3Lmlua3NjYXBlLm9yZy9uYW1lc3BhY2VzL2lua3NjYXBlIiB4bWxuczpyZGY9Imh0dHA6Ly93d3cudzMub3JnLzE5OTkvMDIvMjItcmRmLXN5bnRheC1ucyMiIHhtbG5zOnNvZGlwb2RpPSJodHRwOi8vc29kaXBvZGkuc291cmNlZm9yZ2UubmV0L0RURC9zb2RpcG9kaS0wLmR0ZCIgeG1sbnM6c3ZnPSJodHRwOi8vd3d3LnczLm9yZy8yMDAwL3N2ZyIgeG1sbnM9Imh0dHA6Ly93d3cudzMub3JnLzIwMDAvc3ZnIiB4bWxuczp4bGluaz0iaHR0cDovL3d3dy53My5vcmcvMTk5OS94bGluayIgdmVyc2lvbj0iMS4xIiBpZD0ic3ZnODc0MzQiIGlua3NjYXBlOnZlcnNpb249IjAuOTIuMyAoMjQwNTU0NiwgMjAxOC0wMy0xMSkiIHNvZGlwb2RpOmRvY25hbWU9Im5ldHdvcmtfaW50ZXJmYWNlLnN2ZyIgeD0iMHB4IiB5PSIwcHgiIHZpZXdCb3g9IjAgMCAzMy44OCAzNy44OSIgc3R5bGU9ImVuYWJsZS1iYWNrZ3JvdW5kOm5ldyAwIDAgMzMuODggMzcuODk7IiB4bWw6c3BhY2U9InByZXNlcnZlIj4mI3hhOzxzb2RpcG9kaTpuYW1lZHZpZXcgYm9yZGVyY29sb3I9IiM2NjY2NjYiIGJvcmRlcm9wYWNpdHk9IjEiIGZpdC1tYXJnaW4tYm90dG9tPSIwIiBmaXQtbWFyZ2luLWxlZnQ9IjAiIGZpdC1tYXJnaW4tcmlnaHQ9IjAiIGZpdC1tYXJnaW4tdG9wPSIwIiBncmlkdG9sZXJhbmNlPSIxMCIgZ3VpZGV0b2xlcmFuY2U9IjEwIiBpZD0ibmFtZWR2aWV3ODc0MzYiIGlua3NjYXBlOmN1cnJlbnQtbGF5ZXI9InN2Zzg3NDM0IiBpbmtzY2FwZTpjeD0iMTMuMTgxMzciIGlua3NjYXBlOmN5PSIyMC4yOTk0NTQiIGlua3NjYXBlOnBhZ2VvcGFjaXR5PSIwIiBpbmtzY2FwZTpwYWdlc2hhZG93PSIyIiBpbmtzY2FwZTp3aW5kb3ctaGVpZ2h0PSIxMDE3IiBpbmtzY2FwZTp3aW5kb3ctbWF4aW1pemVkPSIxIiBpbmtzY2FwZTp3aW5kb3ctd2lkdGg9IjE5MjAiIGlua3NjYXBlOndpbmRvdy14PSItOCIgaW5rc2NhcGU6d2luZG93LXk9Ii04IiBpbmtzY2FwZTp6b29tPSIxMi4xMzQ5MTIiIG9iamVjdHRvbGVyYW5jZT0iMTAiIHBhZ2Vjb2xvcj0iI2ZmZmZmZiIgc2hvd2dyaWQ9ImZhbHNlIj4mI3hhOwk8L3NvZGlwb2RpOm5hbWVkdmlldz4mI3hhOzxnIGlkPSJnODc0MzIiIHRyYW5zZm9ybT0idHJhbnNsYXRlKC0yLjQ5Mzc1NjFlLTUpIj4mI3hhOwk8dGl0bGUgaWQ9InRpdGxlODczMzciPlBhZ2UtMTwvdGl0bGU+JiN4YTsJPGcgaWQ9Imdyb3VwNDY5MC0xIj4mI3hhOwkJPHRpdGxlIGlkPSJ0aXRsZTg3MzM5Ij5OZXR3b3JrIEludGVyZmFjZTwvdGl0bGU+JiN4YTsJCTxnIGlkPSJzaGFwZTQ2OTEtMiI+JiN4YTsJCQk8dGl0bGUgaWQ9InRpdGxlODczNDEiPlNoZWV0LjQ2OTE8L3RpdGxlPiYjeGE7CQkJPHBhdGggaWQ9InBhdGg4NzM0MyIgaW5rc2NhcGU6Y29ubmVjdG9yLWN1cnZhdHVyZT0iMCIgc3R5bGU9ImZpbGw6IzdGQkEwMDsiIGQ9Ik0wLDB2MzcuODloMzAuMzVWMEgweiIvPiYjeGE7CQk8L2c+JiN4YTsJCTxnIGlkPSJzaGFwZTQ2OTItNCIgdHJhbnNmb3JtPSJ0cmFuc2xhdGUoMzAuMzQ3NCwtMjguMjI2KSI+JiN4YTsJCQk8dGl0bGUgaWQ9InRpdGxlODczNDYiPlNoZWV0LjQ2OTI8L3RpdGxlPiYjeGE7CQkJPHBhdGggaWQ9InBhdGg4NzM0OCIgaW5rc2NhcGU6Y29ubmVjdG9yLWN1cnZhdHVyZT0iMCIgc3R5bGU9ImZpbGw6I0ZDRDExNjsiIGQ9Ik0wLDMwLjk5djYuOWgzLjUzdi02LjlIMHoiLz4mI3hhOwkJPC9nPiYjeGE7CQk8ZyBpZD0ic2hhcGU0NjkzLTYiIHRyYW5zZm9ybT0idHJhbnNsYXRlKDMwLjM0NzQsLTguNDM3MTMpIj4mI3hhOwkJCTx0aXRsZSBpZD0idGl0bGU4NzM1MSI+U2hlZXQuNDY5MzwvdGl0bGU+JiN4YTsJCQk8cGF0aCBpZD0icGF0aDg3MzUzIiBpbmtzY2FwZTpjb25uZWN0b3ItY3VydmF0dXJlPSIwIiBzdHlsZT0iZmlsbDojRkNEMTE2OyIgZD0iTTAsMjAuNHYxNy40OWgzLjUzVjIwLjRIMHoiLz4mI3hhOwkJPC9nPiYjeGE7CQk8ZyBpZD0ic2hhcGU0Njk0LTgiIHRyYW5zZm9ybT0idHJhbnNsYXRlKDEyLjEwODMsLTI1LjE1OCkiPiYjeGE7CQkJPHRpdGxlIGlkPSJ0aXRsZTg3MzU2Ij5TaGVldC40Njk0PC90aXRsZT4mI3hhOwkJCTxwYXRoIGlkPSJwYXRoODczNTgiIGlua3NjYXBlOmNvbm5lY3Rvci1jdXJ2YXR1cmU9IjAiIHN0eWxlPSJmaWxsOiMyRDMyMzk7IiBkPSJNMCwyOC44NHY5LjA1aDE0LjQxdi05LjA1SDB6Ii8+JiN4YTsJCTwvZz4mI3hhOwkJPGcgaWQ9InNoYXBlNDY5NS0xMCIgdHJhbnNmb3JtPSJ0cmFuc2xhdGUoOS41MDI3MywtMy41MjgyNSkiPiYjeGE7CQkJPHRpdGxlIGlkPSJ0aXRsZTg3MzYxIj5TaGVldC40Njk1PC90aXRsZT4mI3hhOwkJCTxwYXRoIGlkPSJwYXRoODczNjMiIGlua3NjYXBlOmNvbm5lY3Rvci1jdXJ2YXR1cmU9IjAiIHN0eWxlPSJmaWxsOiMyRDMyMzk7IiBkPSJNMCwyNy42MXYxMC4yOGgyLjNWMjcuNjFIMHoiLz4mI3hhOwkJPC9nPiYjeGE7CQk8ZyBpZD0ic2hhcGU0Njk2LTEyIiB0cmFuc2Zvcm09InRyYW5zbGF0ZSgxMy40ODc3LC0zLjUyODI1KSI+JiN4YTsJCQk8dGl0bGUgaWQ9InRpdGxlODczNjYiPlNoZWV0LjQ2OTY8L3RpdGxlPiYjeGE7CQkJPHBhdGggaWQ9InBhdGg4NzM2OCIgaW5rc2NhcGU6Y29ubmVjdG9yLWN1cnZhdHVyZT0iMCIgc3R5bGU9ImZpbGw6IzJEMzIzOTsiIGQ9Ik0wLDI3LjYxdjEwLjI4aDIuNDVWMjcuNjFIMHoiLz4mI3hhOwkJPC9nPiYjeGE7CQk8ZyBpZD0ic2hhcGU0Njk3LTE0IiB0cmFuc2Zvcm09InRyYW5zbGF0ZSgyMi4zNzc0LC0zLjk4ODQ2KSI+JiN4YTsJCQk8dGl0bGUgaWQ9InRpdGxlODczNzEiPlNoZWV0LjQ2OTc8L3RpdGxlPiYjeGE7CQkJPHBhdGggaWQ9InBhdGg4NzM3MyIgaW5rc2NhcGU6Y29ubmVjdG9yLWN1cnZhdHVyZT0iMCIgc3R5bGU9ImZpbGw6I0U1RTVFNTsiIGQ9Ik0wLDI4LjUzdjkuMzZoMy41M3YtOS4zNkwwLDI4LjUzeiIvPiYjeGE7CQk8L2c+JiN4YTsJCTxnIGlkPSJzaGFwZTQ2OTgtMTYiIHRyYW5zZm9ybT0idHJhbnNsYXRlKDExLjM0MiwtMTcuNjQxMykiPiYjeGE7CQkJPHRpdGxlIGlkPSJ0aXRsZTg3Mzc2Ij5TaGVldC40Njk4PC90aXRsZT4mI3hhOwkJCTxwYXRoIGlkPSJwYXRoODczNzgiIGlua3NjYXBlOmNvbm5lY3Rvci1jdXJ2YXR1cmU9IjAiIHN0eWxlPSJmaWxsOiNFNUU1RTU7IiBkPSJNMCwzNS45N2MwLTEuMDUsMC44Mi0xLjkxLDEuODQtMS45MSAgICAgczEuODQsMC44NiwxLjg0LDEuOTFjMCwxLjA3LTAuODIsMS45Mi0xLjg0LDEuOTJTMCwzNy4wNCwwLDM1Ljk3eiIvPiYjeGE7CQk8L2c+JiN4YTsJCTxnIGlkPSJzaGFwZTQ2OTktMTgiIHRyYW5zZm9ybT0idHJhbnNsYXRlKDIxLjc2NDMsLTE5LjAyMTkpIj4mI3hhOwkJCTx0aXRsZSBpZD0idGl0bGU4NzM4MSI+U2hlZXQuNDY5OTwvdGl0bGU+JiN4YTsJCQk8cGF0aCBpZD0icGF0aDg3MzgzIiBpbmtzY2FwZTpjb25uZWN0b3ItY3VydmF0dXJlPSIwIiBzdHlsZT0iZmlsbDojNkU5RTBCOyIgZD0iTTAsMzEuNzV2Ni4xNGgxLjUzdi02LjE0SDB6Ii8+JiN4YTsJCTwvZz4mI3hhOwkJPGcgaWQ9InNoYXBlNDcwMC0yMCIgdHJhbnNmb3JtPSJ0cmFuc2xhdGUoMTguMjM5MSwtNy41MTY3MikiPiYjeGE7CQkJPHRpdGxlIGlkPSJ0aXRsZTg3Mzg2Ij5TaGVldC40NzAwPC90aXRsZT4mI3hhOwkJCTxwYXRoIGlkPSJwYXRoODczODgiIGlua3NjYXBlOmNvbm5lY3Rvci1jdXJ2YXR1cmU9IjAiIHN0eWxlPSJmaWxsOiM2RTlFMEI7IiBkPSJNMCwyNS4xMnYxMi43N2gxLjUzVjI1LjEySDB6Ii8+JiN4YTsJCTwvZz4mI3hhOwkJPGcgaWQ9InNoYXBlNDcwMS0yMiIgdHJhbnNmb3JtPSJ0cmFuc2xhdGUoNi4yODQwNiwtOS4zNTc1NCkiPiYjeGE7CQkJPHRpdGxlIGlkPSJ0aXRsZTg3MzkxIj5TaGVldC40NzAxPC90aXRsZT4mI3hhOwkJCTxwYXRoIGlkPSJwYXRoODczOTMiIGlua3NjYXBlOmNvbm5lY3Rvci1jdXJ2YXR1cmU9IjAiIHN0eWxlPSJmaWxsOiM2RTlFMEI7IiBkPSJNMCwxOC41NnYxOS4zM2gxLjUzVjE4LjU2SDB6Ii8+JiN4YTsJCTwvZz4mI3hhOwkJPGcgaWQ9InNoYXBlNDcwMi0yNCIgdHJhbnNmb3JtPSJ0cmFuc2xhdGUoMy4wNjU0LC01LjgyOTI5KSI+JiN4YTsJCQk8dGl0bGUgaWQ9InRpdGxlODczOTYiPlNoZWV0LjQ3MDI8L3RpdGxlPiYjeGE7CQkJPHBhdGggaWQ9InBhdGg4NzM5OCIgaW5rc2NhcGU6Y29ubmVjdG9yLWN1cnZhdHVyZT0iMCIgc3R5bGU9ImZpbGw6IzZFOUUwQjsiIGQ9Ik0wLDExLjgxdjI2LjA4aDEuNjlWMTEuODFIMHoiLz4mI3hhOwkJPC9nPiYjeGE7CQk8ZyBpZD0ic2hhcGU0NzAzLTI2IiB0cmFuc2Zvcm09InRyYW5zbGF0ZSgxOC4yMzkxLC0xOS4wMjE5KSI+JiN4YTsJCQk8dGl0bGUgaWQ9InRpdGxlODc0MDEiPlNoZWV0LjQ3MDM8L3RpdGxlPiYjeGE7CQkJPHBhdGggaWQ9InBhdGg4NzQwMyIgaW5rc2NhcGU6Y29ubmVjdG9yLWN1cnZhdHVyZT0iMCIgc3R5bGU9ImZpbGw6IzZFOUUwQjsiIGQ9Ik01LjA2LDM2LjM2djEuNTNIMHYtMS41M0g1LjA2eiIvPiYjeGE7CQk8L2c+JiN4YTsJCTxnIGlkPSJzaGFwZTQ3MDQtMjgiIHRyYW5zZm9ybT0idHJhbnNsYXRlKDE4LjM0NDMsLTcuNTE2NzIpIj4mI3hhOwkJCTx0aXRsZSBpZD0idGl0bGU4NzQwNiI+U2hlZXQuNDcwNDwvdGl0bGU+JiN4YTsJCQk8cGF0aCBpZD0icGF0aDg3NDA4IiBpbmtzY2FwZTpjb25uZWN0b3ItY3VydmF0dXJlPSIwIiBzdHlsZT0iZmlsbDojNkU5RTBCOyIgZD0iTTQuMDMsMzYuMzZ2MS41M0gwdi0xLjUzSDQuMDN6Ii8+JiN4YTsJCTwvZz4mI3hhOwkJPGcgaWQ9InNoYXBlNDcwNS0zMCIgdHJhbnNmb3JtPSJ0cmFuc2xhdGUoMy4wNjU0LC01LjgyOTI5KSI+JiN4YTsJCQk8dGl0bGUgaWQ9InRpdGxlODc0MTEiPlNoZWV0LjQ3MDU8L3RpdGxlPiYjeGE7CQkJPHBhdGggaWQ9InBhdGg4NzQxMyIgaW5rc2NhcGU6Y29ubmVjdG9yLWN1cnZhdHVyZT0iMCIgc3R5bGU9ImZpbGw6IzZFOUUwQjsiIGQ9Ik02LjQ0LDM2LjJ2MS42OUgwVjM2LjJINi40NHoiLz4mI3hhOwkJPC9nPiYjeGE7CQk8ZyBpZD0ic2hhcGU0NzA2LTMyIiB0cmFuc2Zvcm09InRyYW5zbGF0ZSg2LjI4NDA2LC05LjM1NzU0KSI+JiN4YTsJCQk8dGl0bGUgaWQ9InRpdGxlODc0MTYiPlNoZWV0LjQ3MDY8L3RpdGxlPiYjeGE7CQkJPHBhdGggaWQ9InBhdGg4NzQxOCIgaW5rc2NhcGU6Y29ubmVjdG9yLWN1cnZhdHVyZT0iMCIgc3R5bGU9ImZpbGw6IzZFOUUwQjsiIGQ9Ik0zLjIyLDM2LjJ2MS42OUgwVjM2LjJIMy4yMnoiLz4mI3hhOwkJPC9nPiYjeGE7CQk8ZyBpZD0ic2hhcGU0NzA3LTM0IiB0cmFuc2Zvcm09InRyYW5zbGF0ZSgzLjA2NTQsLTMwLjM3MzcpIj4mI3hhOwkJCTx0aXRsZSBpZD0idGl0bGU4NzQyMSI+U2hlZXQuNDcwNzwvdGl0bGU+JiN4YTsJCQk8cGF0aCBpZD0icGF0aDg3NDIzIiBpbmtzY2FwZTpjb25uZWN0b3ItY3VydmF0dXJlPSIwIiBzdHlsZT0iZmlsbDojNkU5RTBCOyIgZD0iTTkuMDQsMzYuMnYxLjY5SDBWMzYuMkg5LjA0eiIvPiYjeGE7CQk8L2c+JiN4YTsJCTxnIGlkPSJzaGFwZTQ3MDgtMzYiIHRyYW5zZm9ybT0idHJhbnNsYXRlKDYuMjg0MDYsLTI3LjE1MjIpIj4mI3hhOwkJCTx0aXRsZSBpZD0idGl0bGU4NzQyNiI+U2hlZXQuNDcwODwvdGl0bGU+JiN4YTsJCQk8cGF0aCBpZD0icGF0aDg3NDI4IiBpbmtzY2FwZTpjb25uZWN0b3ItY3VydmF0dXJlPSIwIiBzdHlsZT0iZmlsbDojNkU5RTBCOyIgZD0iTTUuODIsMzYuMzZ2MS41M0gwdi0xLjUzSDUuODJ6Ii8+JiN4YTsJCTwvZz4mI3hhOwk8L2c+JiN4YTs8L2c+JiN4YTs8L3N2Zz4=;fontSize=14;" vertex="1" parent="1">
          <mxGeometry x="601.52" y="270" width="34" height="38" as="geometry" />
        </mxCell>
        <mxCell id="RSznJ-GNL0sqVoyYkRlf-39" value="" style="shape=image;verticalLabelPosition=bottom;labelBackgroundColor=#ffffff;verticalAlign=top;aspect=fixed;imageAspect=0;image=data:image/svg+xml,PHN2ZyB4bWxuczpjYz0iaHR0cDovL2NyZWF0aXZlY29tbW9ucy5vcmcvbnMjIiB4bWxuczpkYz0iaHR0cDovL3B1cmwub3JnL2RjL2VsZW1lbnRzLzEuMS8iIHhtbG5zOmlua3NjYXBlPSJodHRwOi8vd3d3Lmlua3NjYXBlLm9yZy9uYW1lc3BhY2VzL2lua3NjYXBlIiB4bWxuczpyZGY9Imh0dHA6Ly93d3cudzMub3JnLzE5OTkvMDIvMjItcmRmLXN5bnRheC1ucyMiIHhtbG5zOnNvZGlwb2RpPSJodHRwOi8vc29kaXBvZGkuc291cmNlZm9yZ2UubmV0L0RURC9zb2RpcG9kaS0wLmR0ZCIgeG1sbnM6c3ZnPSJodHRwOi8vd3d3LnczLm9yZy8yMDAwL3N2ZyIgeG1sbnM9Imh0dHA6Ly93d3cudzMub3JnLzIwMDAvc3ZnIiB4bWxuczp4bGluaz0iaHR0cDovL3d3dy53My5vcmcvMTk5OS94bGluayIgdmVyc2lvbj0iMS4xIiBpZD0ic3ZnODc0MzQiIGlua3NjYXBlOnZlcnNpb249IjAuOTIuMyAoMjQwNTU0NiwgMjAxOC0wMy0xMSkiIHNvZGlwb2RpOmRvY25hbWU9Im5ldHdvcmtfaW50ZXJmYWNlLnN2ZyIgeD0iMHB4IiB5PSIwcHgiIHZpZXdCb3g9IjAgMCAzMy44OCAzNy44OSIgc3R5bGU9ImVuYWJsZS1iYWNrZ3JvdW5kOm5ldyAwIDAgMzMuODggMzcuODk7IiB4bWw6c3BhY2U9InByZXNlcnZlIj4mI3hhOzxzb2RpcG9kaTpuYW1lZHZpZXcgYm9yZGVyY29sb3I9IiM2NjY2NjYiIGJvcmRlcm9wYWNpdHk9IjEiIGZpdC1tYXJnaW4tYm90dG9tPSIwIiBmaXQtbWFyZ2luLWxlZnQ9IjAiIGZpdC1tYXJnaW4tcmlnaHQ9IjAiIGZpdC1tYXJnaW4tdG9wPSIwIiBncmlkdG9sZXJhbmNlPSIxMCIgZ3VpZGV0b2xlcmFuY2U9IjEwIiBpZD0ibmFtZWR2aWV3ODc0MzYiIGlua3NjYXBlOmN1cnJlbnQtbGF5ZXI9InN2Zzg3NDM0IiBpbmtzY2FwZTpjeD0iMTMuMTgxMzciIGlua3NjYXBlOmN5PSIyMC4yOTk0NTQiIGlua3NjYXBlOnBhZ2VvcGFjaXR5PSIwIiBpbmtzY2FwZTpwYWdlc2hhZG93PSIyIiBpbmtzY2FwZTp3aW5kb3ctaGVpZ2h0PSIxMDE3IiBpbmtzY2FwZTp3aW5kb3ctbWF4aW1pemVkPSIxIiBpbmtzY2FwZTp3aW5kb3ctd2lkdGg9IjE5MjAiIGlua3NjYXBlOndpbmRvdy14PSItOCIgaW5rc2NhcGU6d2luZG93LXk9Ii04IiBpbmtzY2FwZTp6b29tPSIxMi4xMzQ5MTIiIG9iamVjdHRvbGVyYW5jZT0iMTAiIHBhZ2Vjb2xvcj0iI2ZmZmZmZiIgc2hvd2dyaWQ9ImZhbHNlIj4mI3hhOwk8L3NvZGlwb2RpOm5hbWVkdmlldz4mI3hhOzxnIGlkPSJnODc0MzIiIHRyYW5zZm9ybT0idHJhbnNsYXRlKC0yLjQ5Mzc1NjFlLTUpIj4mI3hhOwk8dGl0bGUgaWQ9InRpdGxlODczMzciPlBhZ2UtMTwvdGl0bGU+JiN4YTsJPGcgaWQ9Imdyb3VwNDY5MC0xIj4mI3hhOwkJPHRpdGxlIGlkPSJ0aXRsZTg3MzM5Ij5OZXR3b3JrIEludGVyZmFjZTwvdGl0bGU+JiN4YTsJCTxnIGlkPSJzaGFwZTQ2OTEtMiI+JiN4YTsJCQk8dGl0bGUgaWQ9InRpdGxlODczNDEiPlNoZWV0LjQ2OTE8L3RpdGxlPiYjeGE7CQkJPHBhdGggaWQ9InBhdGg4NzM0MyIgaW5rc2NhcGU6Y29ubmVjdG9yLWN1cnZhdHVyZT0iMCIgc3R5bGU9ImZpbGw6IzdGQkEwMDsiIGQ9Ik0wLDB2MzcuODloMzAuMzVWMEgweiIvPiYjeGE7CQk8L2c+JiN4YTsJCTxnIGlkPSJzaGFwZTQ2OTItNCIgdHJhbnNmb3JtPSJ0cmFuc2xhdGUoMzAuMzQ3NCwtMjguMjI2KSI+JiN4YTsJCQk8dGl0bGUgaWQ9InRpdGxlODczNDYiPlNoZWV0LjQ2OTI8L3RpdGxlPiYjeGE7CQkJPHBhdGggaWQ9InBhdGg4NzM0OCIgaW5rc2NhcGU6Y29ubmVjdG9yLWN1cnZhdHVyZT0iMCIgc3R5bGU9ImZpbGw6I0ZDRDExNjsiIGQ9Ik0wLDMwLjk5djYuOWgzLjUzdi02LjlIMHoiLz4mI3hhOwkJPC9nPiYjeGE7CQk8ZyBpZD0ic2hhcGU0NjkzLTYiIHRyYW5zZm9ybT0idHJhbnNsYXRlKDMwLjM0NzQsLTguNDM3MTMpIj4mI3hhOwkJCTx0aXRsZSBpZD0idGl0bGU4NzM1MSI+U2hlZXQuNDY5MzwvdGl0bGU+JiN4YTsJCQk8cGF0aCBpZD0icGF0aDg3MzUzIiBpbmtzY2FwZTpjb25uZWN0b3ItY3VydmF0dXJlPSIwIiBzdHlsZT0iZmlsbDojRkNEMTE2OyIgZD0iTTAsMjAuNHYxNy40OWgzLjUzVjIwLjRIMHoiLz4mI3hhOwkJPC9nPiYjeGE7CQk8ZyBpZD0ic2hhcGU0Njk0LTgiIHRyYW5zZm9ybT0idHJhbnNsYXRlKDEyLjEwODMsLTI1LjE1OCkiPiYjeGE7CQkJPHRpdGxlIGlkPSJ0aXRsZTg3MzU2Ij5TaGVldC40Njk0PC90aXRsZT4mI3hhOwkJCTxwYXRoIGlkPSJwYXRoODczNTgiIGlua3NjYXBlOmNvbm5lY3Rvci1jdXJ2YXR1cmU9IjAiIHN0eWxlPSJmaWxsOiMyRDMyMzk7IiBkPSJNMCwyOC44NHY5LjA1aDE0LjQxdi05LjA1SDB6Ii8+JiN4YTsJCTwvZz4mI3hhOwkJPGcgaWQ9InNoYXBlNDY5NS0xMCIgdHJhbnNmb3JtPSJ0cmFuc2xhdGUoOS41MDI3MywtMy41MjgyNSkiPiYjeGE7CQkJPHRpdGxlIGlkPSJ0aXRsZTg3MzYxIj5TaGVldC40Njk1PC90aXRsZT4mI3hhOwkJCTxwYXRoIGlkPSJwYXRoODczNjMiIGlua3NjYXBlOmNvbm5lY3Rvci1jdXJ2YXR1cmU9IjAiIHN0eWxlPSJmaWxsOiMyRDMyMzk7IiBkPSJNMCwyNy42MXYxMC4yOGgyLjNWMjcuNjFIMHoiLz4mI3hhOwkJPC9nPiYjeGE7CQk8ZyBpZD0ic2hhcGU0Njk2LTEyIiB0cmFuc2Zvcm09InRyYW5zbGF0ZSgxMy40ODc3LC0zLjUyODI1KSI+JiN4YTsJCQk8dGl0bGUgaWQ9InRpdGxlODczNjYiPlNoZWV0LjQ2OTY8L3RpdGxlPiYjeGE7CQkJPHBhdGggaWQ9InBhdGg4NzM2OCIgaW5rc2NhcGU6Y29ubmVjdG9yLWN1cnZhdHVyZT0iMCIgc3R5bGU9ImZpbGw6IzJEMzIzOTsiIGQ9Ik0wLDI3LjYxdjEwLjI4aDIuNDVWMjcuNjFIMHoiLz4mI3hhOwkJPC9nPiYjeGE7CQk8ZyBpZD0ic2hhcGU0Njk3LTE0IiB0cmFuc2Zvcm09InRyYW5zbGF0ZSgyMi4zNzc0LC0zLjk4ODQ2KSI+JiN4YTsJCQk8dGl0bGUgaWQ9InRpdGxlODczNzEiPlNoZWV0LjQ2OTc8L3RpdGxlPiYjeGE7CQkJPHBhdGggaWQ9InBhdGg4NzM3MyIgaW5rc2NhcGU6Y29ubmVjdG9yLWN1cnZhdHVyZT0iMCIgc3R5bGU9ImZpbGw6I0U1RTVFNTsiIGQ9Ik0wLDI4LjUzdjkuMzZoMy41M3YtOS4zNkwwLDI4LjUzeiIvPiYjeGE7CQk8L2c+JiN4YTsJCTxnIGlkPSJzaGFwZTQ2OTgtMTYiIHRyYW5zZm9ybT0idHJhbnNsYXRlKDExLjM0MiwtMTcuNjQxMykiPiYjeGE7CQkJPHRpdGxlIGlkPSJ0aXRsZTg3Mzc2Ij5TaGVldC40Njk4PC90aXRsZT4mI3hhOwkJCTxwYXRoIGlkPSJwYXRoODczNzgiIGlua3NjYXBlOmNvbm5lY3Rvci1jdXJ2YXR1cmU9IjAiIHN0eWxlPSJmaWxsOiNFNUU1RTU7IiBkPSJNMCwzNS45N2MwLTEuMDUsMC44Mi0xLjkxLDEuODQtMS45MSAgICAgczEuODQsMC44NiwxLjg0LDEuOTFjMCwxLjA3LTAuODIsMS45Mi0xLjg0LDEuOTJTMCwzNy4wNCwwLDM1Ljk3eiIvPiYjeGE7CQk8L2c+JiN4YTsJCTxnIGlkPSJzaGFwZTQ2OTktMTgiIHRyYW5zZm9ybT0idHJhbnNsYXRlKDIxLjc2NDMsLTE5LjAyMTkpIj4mI3hhOwkJCTx0aXRsZSBpZD0idGl0bGU4NzM4MSI+U2hlZXQuNDY5OTwvdGl0bGU+JiN4YTsJCQk8cGF0aCBpZD0icGF0aDg3MzgzIiBpbmtzY2FwZTpjb25uZWN0b3ItY3VydmF0dXJlPSIwIiBzdHlsZT0iZmlsbDojNkU5RTBCOyIgZD0iTTAsMzEuNzV2Ni4xNGgxLjUzdi02LjE0SDB6Ii8+JiN4YTsJCTwvZz4mI3hhOwkJPGcgaWQ9InNoYXBlNDcwMC0yMCIgdHJhbnNmb3JtPSJ0cmFuc2xhdGUoMTguMjM5MSwtNy41MTY3MikiPiYjeGE7CQkJPHRpdGxlIGlkPSJ0aXRsZTg3Mzg2Ij5TaGVldC40NzAwPC90aXRsZT4mI3hhOwkJCTxwYXRoIGlkPSJwYXRoODczODgiIGlua3NjYXBlOmNvbm5lY3Rvci1jdXJ2YXR1cmU9IjAiIHN0eWxlPSJmaWxsOiM2RTlFMEI7IiBkPSJNMCwyNS4xMnYxMi43N2gxLjUzVjI1LjEySDB6Ii8+JiN4YTsJCTwvZz4mI3hhOwkJPGcgaWQ9InNoYXBlNDcwMS0yMiIgdHJhbnNmb3JtPSJ0cmFuc2xhdGUoNi4yODQwNiwtOS4zNTc1NCkiPiYjeGE7CQkJPHRpdGxlIGlkPSJ0aXRsZTg3MzkxIj5TaGVldC40NzAxPC90aXRsZT4mI3hhOwkJCTxwYXRoIGlkPSJwYXRoODczOTMiIGlua3NjYXBlOmNvbm5lY3Rvci1jdXJ2YXR1cmU9IjAiIHN0eWxlPSJmaWxsOiM2RTlFMEI7IiBkPSJNMCwxOC41NnYxOS4zM2gxLjUzVjE4LjU2SDB6Ii8+JiN4YTsJCTwvZz4mI3hhOwkJPGcgaWQ9InNoYXBlNDcwMi0yNCIgdHJhbnNmb3JtPSJ0cmFuc2xhdGUoMy4wNjU0LC01LjgyOTI5KSI+JiN4YTsJCQk8dGl0bGUgaWQ9InRpdGxlODczOTYiPlNoZWV0LjQ3MDI8L3RpdGxlPiYjeGE7CQkJPHBhdGggaWQ9InBhdGg4NzM5OCIgaW5rc2NhcGU6Y29ubmVjdG9yLWN1cnZhdHVyZT0iMCIgc3R5bGU9ImZpbGw6IzZFOUUwQjsiIGQ9Ik0wLDExLjgxdjI2LjA4aDEuNjlWMTEuODFIMHoiLz4mI3hhOwkJPC9nPiYjeGE7CQk8ZyBpZD0ic2hhcGU0NzAzLTI2IiB0cmFuc2Zvcm09InRyYW5zbGF0ZSgxOC4yMzkxLC0xOS4wMjE5KSI+JiN4YTsJCQk8dGl0bGUgaWQ9InRpdGxlODc0MDEiPlNoZWV0LjQ3MDM8L3RpdGxlPiYjeGE7CQkJPHBhdGggaWQ9InBhdGg4NzQwMyIgaW5rc2NhcGU6Y29ubmVjdG9yLWN1cnZhdHVyZT0iMCIgc3R5bGU9ImZpbGw6IzZFOUUwQjsiIGQ9Ik01LjA2LDM2LjM2djEuNTNIMHYtMS41M0g1LjA2eiIvPiYjeGE7CQk8L2c+JiN4YTsJCTxnIGlkPSJzaGFwZTQ3MDQtMjgiIHRyYW5zZm9ybT0idHJhbnNsYXRlKDE4LjM0NDMsLTcuNTE2NzIpIj4mI3hhOwkJCTx0aXRsZSBpZD0idGl0bGU4NzQwNiI+U2hlZXQuNDcwNDwvdGl0bGU+JiN4YTsJCQk8cGF0aCBpZD0icGF0aDg3NDA4IiBpbmtzY2FwZTpjb25uZWN0b3ItY3VydmF0dXJlPSIwIiBzdHlsZT0iZmlsbDojNkU5RTBCOyIgZD0iTTQuMDMsMzYuMzZ2MS41M0gwdi0xLjUzSDQuMDN6Ii8+JiN4YTsJCTwvZz4mI3hhOwkJPGcgaWQ9InNoYXBlNDcwNS0zMCIgdHJhbnNmb3JtPSJ0cmFuc2xhdGUoMy4wNjU0LC01LjgyOTI5KSI+JiN4YTsJCQk8dGl0bGUgaWQ9InRpdGxlODc0MTEiPlNoZWV0LjQ3MDU8L3RpdGxlPiYjeGE7CQkJPHBhdGggaWQ9InBhdGg4NzQxMyIgaW5rc2NhcGU6Y29ubmVjdG9yLWN1cnZhdHVyZT0iMCIgc3R5bGU9ImZpbGw6IzZFOUUwQjsiIGQ9Ik02LjQ0LDM2LjJ2MS42OUgwVjM2LjJINi40NHoiLz4mI3hhOwkJPC9nPiYjeGE7CQk8ZyBpZD0ic2hhcGU0NzA2LTMyIiB0cmFuc2Zvcm09InRyYW5zbGF0ZSg2LjI4NDA2LC05LjM1NzU0KSI+JiN4YTsJCQk8dGl0bGUgaWQ9InRpdGxlODc0MTYiPlNoZWV0LjQ3MDY8L3RpdGxlPiYjeGE7CQkJPHBhdGggaWQ9InBhdGg4NzQxOCIgaW5rc2NhcGU6Y29ubmVjdG9yLWN1cnZhdHVyZT0iMCIgc3R5bGU9ImZpbGw6IzZFOUUwQjsiIGQ9Ik0zLjIyLDM2LjJ2MS42OUgwVjM2LjJIMy4yMnoiLz4mI3hhOwkJPC9nPiYjeGE7CQk8ZyBpZD0ic2hhcGU0NzA3LTM0IiB0cmFuc2Zvcm09InRyYW5zbGF0ZSgzLjA2NTQsLTMwLjM3MzcpIj4mI3hhOwkJCTx0aXRsZSBpZD0idGl0bGU4NzQyMSI+U2hlZXQuNDcwNzwvdGl0bGU+JiN4YTsJCQk8cGF0aCBpZD0icGF0aDg3NDIzIiBpbmtzY2FwZTpjb25uZWN0b3ItY3VydmF0dXJlPSIwIiBzdHlsZT0iZmlsbDojNkU5RTBCOyIgZD0iTTkuMDQsMzYuMnYxLjY5SDBWMzYuMkg5LjA0eiIvPiYjeGE7CQk8L2c+JiN4YTsJCTxnIGlkPSJzaGFwZTQ3MDgtMzYiIHRyYW5zZm9ybT0idHJhbnNsYXRlKDYuMjg0MDYsLTI3LjE1MjIpIj4mI3hhOwkJCTx0aXRsZSBpZD0idGl0bGU4NzQyNiI+U2hlZXQuNDcwODwvdGl0bGU+JiN4YTsJCQk8cGF0aCBpZD0icGF0aDg3NDI4IiBpbmtzY2FwZTpjb25uZWN0b3ItY3VydmF0dXJlPSIwIiBzdHlsZT0iZmlsbDojNkU5RTBCOyIgZD0iTTUuODIsMzYuMzZ2MS41M0gwdi0xLjUzSDUuODJ6Ii8+JiN4YTsJCTwvZz4mI3hhOwk8L2c+JiN4YTs8L2c+JiN4YTs8L3N2Zz4=;fontSize=14;" vertex="1" parent="1">
          <mxGeometry x="568.26" y="434.4" width="34" height="38" as="geometry" />
        </mxCell>
        <mxCell id="RSznJ-GNL0sqVoyYkRlf-40" value="" style="shape=image;verticalLabelPosition=bottom;labelBackgroundColor=#ffffff;verticalAlign=top;aspect=fixed;imageAspect=0;image=data:image/svg+xml,PHN2ZyB4bWxuczpjYz0iaHR0cDovL2NyZWF0aXZlY29tbW9ucy5vcmcvbnMjIiB4bWxuczpkYz0iaHR0cDovL3B1cmwub3JnL2RjL2VsZW1lbnRzLzEuMS8iIHhtbG5zOmlua3NjYXBlPSJodHRwOi8vd3d3Lmlua3NjYXBlLm9yZy9uYW1lc3BhY2VzL2lua3NjYXBlIiB4bWxuczpyZGY9Imh0dHA6Ly93d3cudzMub3JnLzE5OTkvMDIvMjItcmRmLXN5bnRheC1ucyMiIHhtbG5zOnNvZGlwb2RpPSJodHRwOi8vc29kaXBvZGkuc291cmNlZm9yZ2UubmV0L0RURC9zb2RpcG9kaS0wLmR0ZCIgeG1sbnM6c3ZnPSJodHRwOi8vd3d3LnczLm9yZy8yMDAwL3N2ZyIgeG1sbnM9Imh0dHA6Ly93d3cudzMub3JnLzIwMDAvc3ZnIiB4bWxuczp4bGluaz0iaHR0cDovL3d3dy53My5vcmcvMTk5OS94bGluayIgdmVyc2lvbj0iMS4xIiBpZD0ic3ZnODc0MzQiIGlua3NjYXBlOnZlcnNpb249IjAuOTIuMyAoMjQwNTU0NiwgMjAxOC0wMy0xMSkiIHNvZGlwb2RpOmRvY25hbWU9Im5ldHdvcmtfaW50ZXJmYWNlLnN2ZyIgeD0iMHB4IiB5PSIwcHgiIHZpZXdCb3g9IjAgMCAzMy44OCAzNy44OSIgc3R5bGU9ImVuYWJsZS1iYWNrZ3JvdW5kOm5ldyAwIDAgMzMuODggMzcuODk7IiB4bWw6c3BhY2U9InByZXNlcnZlIj4mI3hhOzxzb2RpcG9kaTpuYW1lZHZpZXcgYm9yZGVyY29sb3I9IiM2NjY2NjYiIGJvcmRlcm9wYWNpdHk9IjEiIGZpdC1tYXJnaW4tYm90dG9tPSIwIiBmaXQtbWFyZ2luLWxlZnQ9IjAiIGZpdC1tYXJnaW4tcmlnaHQ9IjAiIGZpdC1tYXJnaW4tdG9wPSIwIiBncmlkdG9sZXJhbmNlPSIxMCIgZ3VpZGV0b2xlcmFuY2U9IjEwIiBpZD0ibmFtZWR2aWV3ODc0MzYiIGlua3NjYXBlOmN1cnJlbnQtbGF5ZXI9InN2Zzg3NDM0IiBpbmtzY2FwZTpjeD0iMTMuMTgxMzciIGlua3NjYXBlOmN5PSIyMC4yOTk0NTQiIGlua3NjYXBlOnBhZ2VvcGFjaXR5PSIwIiBpbmtzY2FwZTpwYWdlc2hhZG93PSIyIiBpbmtzY2FwZTp3aW5kb3ctaGVpZ2h0PSIxMDE3IiBpbmtzY2FwZTp3aW5kb3ctbWF4aW1pemVkPSIxIiBpbmtzY2FwZTp3aW5kb3ctd2lkdGg9IjE5MjAiIGlua3NjYXBlOndpbmRvdy14PSItOCIgaW5rc2NhcGU6d2luZG93LXk9Ii04IiBpbmtzY2FwZTp6b29tPSIxMi4xMzQ5MTIiIG9iamVjdHRvbGVyYW5jZT0iMTAiIHBhZ2Vjb2xvcj0iI2ZmZmZmZiIgc2hvd2dyaWQ9ImZhbHNlIj4mI3hhOwk8L3NvZGlwb2RpOm5hbWVkdmlldz4mI3hhOzxnIGlkPSJnODc0MzIiIHRyYW5zZm9ybT0idHJhbnNsYXRlKC0yLjQ5Mzc1NjFlLTUpIj4mI3hhOwk8dGl0bGUgaWQ9InRpdGxlODczMzciPlBhZ2UtMTwvdGl0bGU+JiN4YTsJPGcgaWQ9Imdyb3VwNDY5MC0xIj4mI3hhOwkJPHRpdGxlIGlkPSJ0aXRsZTg3MzM5Ij5OZXR3b3JrIEludGVyZmFjZTwvdGl0bGU+JiN4YTsJCTxnIGlkPSJzaGFwZTQ2OTEtMiI+JiN4YTsJCQk8dGl0bGUgaWQ9InRpdGxlODczNDEiPlNoZWV0LjQ2OTE8L3RpdGxlPiYjeGE7CQkJPHBhdGggaWQ9InBhdGg4NzM0MyIgaW5rc2NhcGU6Y29ubmVjdG9yLWN1cnZhdHVyZT0iMCIgc3R5bGU9ImZpbGw6IzdGQkEwMDsiIGQ9Ik0wLDB2MzcuODloMzAuMzVWMEgweiIvPiYjeGE7CQk8L2c+JiN4YTsJCTxnIGlkPSJzaGFwZTQ2OTItNCIgdHJhbnNmb3JtPSJ0cmFuc2xhdGUoMzAuMzQ3NCwtMjguMjI2KSI+JiN4YTsJCQk8dGl0bGUgaWQ9InRpdGxlODczNDYiPlNoZWV0LjQ2OTI8L3RpdGxlPiYjeGE7CQkJPHBhdGggaWQ9InBhdGg4NzM0OCIgaW5rc2NhcGU6Y29ubmVjdG9yLWN1cnZhdHVyZT0iMCIgc3R5bGU9ImZpbGw6I0ZDRDExNjsiIGQ9Ik0wLDMwLjk5djYuOWgzLjUzdi02LjlIMHoiLz4mI3hhOwkJPC9nPiYjeGE7CQk8ZyBpZD0ic2hhcGU0NjkzLTYiIHRyYW5zZm9ybT0idHJhbnNsYXRlKDMwLjM0NzQsLTguNDM3MTMpIj4mI3hhOwkJCTx0aXRsZSBpZD0idGl0bGU4NzM1MSI+U2hlZXQuNDY5MzwvdGl0bGU+JiN4YTsJCQk8cGF0aCBpZD0icGF0aDg3MzUzIiBpbmtzY2FwZTpjb25uZWN0b3ItY3VydmF0dXJlPSIwIiBzdHlsZT0iZmlsbDojRkNEMTE2OyIgZD0iTTAsMjAuNHYxNy40OWgzLjUzVjIwLjRIMHoiLz4mI3hhOwkJPC9nPiYjeGE7CQk8ZyBpZD0ic2hhcGU0Njk0LTgiIHRyYW5zZm9ybT0idHJhbnNsYXRlKDEyLjEwODMsLTI1LjE1OCkiPiYjeGE7CQkJPHRpdGxlIGlkPSJ0aXRsZTg3MzU2Ij5TaGVldC40Njk0PC90aXRsZT4mI3hhOwkJCTxwYXRoIGlkPSJwYXRoODczNTgiIGlua3NjYXBlOmNvbm5lY3Rvci1jdXJ2YXR1cmU9IjAiIHN0eWxlPSJmaWxsOiMyRDMyMzk7IiBkPSJNMCwyOC44NHY5LjA1aDE0LjQxdi05LjA1SDB6Ii8+JiN4YTsJCTwvZz4mI3hhOwkJPGcgaWQ9InNoYXBlNDY5NS0xMCIgdHJhbnNmb3JtPSJ0cmFuc2xhdGUoOS41MDI3MywtMy41MjgyNSkiPiYjeGE7CQkJPHRpdGxlIGlkPSJ0aXRsZTg3MzYxIj5TaGVldC40Njk1PC90aXRsZT4mI3hhOwkJCTxwYXRoIGlkPSJwYXRoODczNjMiIGlua3NjYXBlOmNvbm5lY3Rvci1jdXJ2YXR1cmU9IjAiIHN0eWxlPSJmaWxsOiMyRDMyMzk7IiBkPSJNMCwyNy42MXYxMC4yOGgyLjNWMjcuNjFIMHoiLz4mI3hhOwkJPC9nPiYjeGE7CQk8ZyBpZD0ic2hhcGU0Njk2LTEyIiB0cmFuc2Zvcm09InRyYW5zbGF0ZSgxMy40ODc3LC0zLjUyODI1KSI+JiN4YTsJCQk8dGl0bGUgaWQ9InRpdGxlODczNjYiPlNoZWV0LjQ2OTY8L3RpdGxlPiYjeGE7CQkJPHBhdGggaWQ9InBhdGg4NzM2OCIgaW5rc2NhcGU6Y29ubmVjdG9yLWN1cnZhdHVyZT0iMCIgc3R5bGU9ImZpbGw6IzJEMzIzOTsiIGQ9Ik0wLDI3LjYxdjEwLjI4aDIuNDVWMjcuNjFIMHoiLz4mI3hhOwkJPC9nPiYjeGE7CQk8ZyBpZD0ic2hhcGU0Njk3LTE0IiB0cmFuc2Zvcm09InRyYW5zbGF0ZSgyMi4zNzc0LC0zLjk4ODQ2KSI+JiN4YTsJCQk8dGl0bGUgaWQ9InRpdGxlODczNzEiPlNoZWV0LjQ2OTc8L3RpdGxlPiYjeGE7CQkJPHBhdGggaWQ9InBhdGg4NzM3MyIgaW5rc2NhcGU6Y29ubmVjdG9yLWN1cnZhdHVyZT0iMCIgc3R5bGU9ImZpbGw6I0U1RTVFNTsiIGQ9Ik0wLDI4LjUzdjkuMzZoMy41M3YtOS4zNkwwLDI4LjUzeiIvPiYjeGE7CQk8L2c+JiN4YTsJCTxnIGlkPSJzaGFwZTQ2OTgtMTYiIHRyYW5zZm9ybT0idHJhbnNsYXRlKDExLjM0MiwtMTcuNjQxMykiPiYjeGE7CQkJPHRpdGxlIGlkPSJ0aXRsZTg3Mzc2Ij5TaGVldC40Njk4PC90aXRsZT4mI3hhOwkJCTxwYXRoIGlkPSJwYXRoODczNzgiIGlua3NjYXBlOmNvbm5lY3Rvci1jdXJ2YXR1cmU9IjAiIHN0eWxlPSJmaWxsOiNFNUU1RTU7IiBkPSJNMCwzNS45N2MwLTEuMDUsMC44Mi0xLjkxLDEuODQtMS45MSAgICAgczEuODQsMC44NiwxLjg0LDEuOTFjMCwxLjA3LTAuODIsMS45Mi0xLjg0LDEuOTJTMCwzNy4wNCwwLDM1Ljk3eiIvPiYjeGE7CQk8L2c+JiN4YTsJCTxnIGlkPSJzaGFwZTQ2OTktMTgiIHRyYW5zZm9ybT0idHJhbnNsYXRlKDIxLjc2NDMsLTE5LjAyMTkpIj4mI3hhOwkJCTx0aXRsZSBpZD0idGl0bGU4NzM4MSI+U2hlZXQuNDY5OTwvdGl0bGU+JiN4YTsJCQk8cGF0aCBpZD0icGF0aDg3MzgzIiBpbmtzY2FwZTpjb25uZWN0b3ItY3VydmF0dXJlPSIwIiBzdHlsZT0iZmlsbDojNkU5RTBCOyIgZD0iTTAsMzEuNzV2Ni4xNGgxLjUzdi02LjE0SDB6Ii8+JiN4YTsJCTwvZz4mI3hhOwkJPGcgaWQ9InNoYXBlNDcwMC0yMCIgdHJhbnNmb3JtPSJ0cmFuc2xhdGUoMTguMjM5MSwtNy41MTY3MikiPiYjeGE7CQkJPHRpdGxlIGlkPSJ0aXRsZTg3Mzg2Ij5TaGVldC40NzAwPC90aXRsZT4mI3hhOwkJCTxwYXRoIGlkPSJwYXRoODczODgiIGlua3NjYXBlOmNvbm5lY3Rvci1jdXJ2YXR1cmU9IjAiIHN0eWxlPSJmaWxsOiM2RTlFMEI7IiBkPSJNMCwyNS4xMnYxMi43N2gxLjUzVjI1LjEySDB6Ii8+JiN4YTsJCTwvZz4mI3hhOwkJPGcgaWQ9InNoYXBlNDcwMS0yMiIgdHJhbnNmb3JtPSJ0cmFuc2xhdGUoNi4yODQwNiwtOS4zNTc1NCkiPiYjeGE7CQkJPHRpdGxlIGlkPSJ0aXRsZTg3MzkxIj5TaGVldC40NzAxPC90aXRsZT4mI3hhOwkJCTxwYXRoIGlkPSJwYXRoODczOTMiIGlua3NjYXBlOmNvbm5lY3Rvci1jdXJ2YXR1cmU9IjAiIHN0eWxlPSJmaWxsOiM2RTlFMEI7IiBkPSJNMCwxOC41NnYxOS4zM2gxLjUzVjE4LjU2SDB6Ii8+JiN4YTsJCTwvZz4mI3hhOwkJPGcgaWQ9InNoYXBlNDcwMi0yNCIgdHJhbnNmb3JtPSJ0cmFuc2xhdGUoMy4wNjU0LC01LjgyOTI5KSI+JiN4YTsJCQk8dGl0bGUgaWQ9InRpdGxlODczOTYiPlNoZWV0LjQ3MDI8L3RpdGxlPiYjeGE7CQkJPHBhdGggaWQ9InBhdGg4NzM5OCIgaW5rc2NhcGU6Y29ubmVjdG9yLWN1cnZhdHVyZT0iMCIgc3R5bGU9ImZpbGw6IzZFOUUwQjsiIGQ9Ik0wLDExLjgxdjI2LjA4aDEuNjlWMTEuODFIMHoiLz4mI3hhOwkJPC9nPiYjeGE7CQk8ZyBpZD0ic2hhcGU0NzAzLTI2IiB0cmFuc2Zvcm09InRyYW5zbGF0ZSgxOC4yMzkxLC0xOS4wMjE5KSI+JiN4YTsJCQk8dGl0bGUgaWQ9InRpdGxlODc0MDEiPlNoZWV0LjQ3MDM8L3RpdGxlPiYjeGE7CQkJPHBhdGggaWQ9InBhdGg4NzQwMyIgaW5rc2NhcGU6Y29ubmVjdG9yLWN1cnZhdHVyZT0iMCIgc3R5bGU9ImZpbGw6IzZFOUUwQjsiIGQ9Ik01LjA2LDM2LjM2djEuNTNIMHYtMS41M0g1LjA2eiIvPiYjeGE7CQk8L2c+JiN4YTsJCTxnIGlkPSJzaGFwZTQ3MDQtMjgiIHRyYW5zZm9ybT0idHJhbnNsYXRlKDE4LjM0NDMsLTcuNTE2NzIpIj4mI3hhOwkJCTx0aXRsZSBpZD0idGl0bGU4NzQwNiI+U2hlZXQuNDcwNDwvdGl0bGU+JiN4YTsJCQk8cGF0aCBpZD0icGF0aDg3NDA4IiBpbmtzY2FwZTpjb25uZWN0b3ItY3VydmF0dXJlPSIwIiBzdHlsZT0iZmlsbDojNkU5RTBCOyIgZD0iTTQuMDMsMzYuMzZ2MS41M0gwdi0xLjUzSDQuMDN6Ii8+JiN4YTsJCTwvZz4mI3hhOwkJPGcgaWQ9InNoYXBlNDcwNS0zMCIgdHJhbnNmb3JtPSJ0cmFuc2xhdGUoMy4wNjU0LC01LjgyOTI5KSI+JiN4YTsJCQk8dGl0bGUgaWQ9InRpdGxlODc0MTEiPlNoZWV0LjQ3MDU8L3RpdGxlPiYjeGE7CQkJPHBhdGggaWQ9InBhdGg4NzQxMyIgaW5rc2NhcGU6Y29ubmVjdG9yLWN1cnZhdHVyZT0iMCIgc3R5bGU9ImZpbGw6IzZFOUUwQjsiIGQ9Ik02LjQ0LDM2LjJ2MS42OUgwVjM2LjJINi40NHoiLz4mI3hhOwkJPC9nPiYjeGE7CQk8ZyBpZD0ic2hhcGU0NzA2LTMyIiB0cmFuc2Zvcm09InRyYW5zbGF0ZSg2LjI4NDA2LC05LjM1NzU0KSI+JiN4YTsJCQk8dGl0bGUgaWQ9InRpdGxlODc0MTYiPlNoZWV0LjQ3MDY8L3RpdGxlPiYjeGE7CQkJPHBhdGggaWQ9InBhdGg4NzQxOCIgaW5rc2NhcGU6Y29ubmVjdG9yLWN1cnZhdHVyZT0iMCIgc3R5bGU9ImZpbGw6IzZFOUUwQjsiIGQ9Ik0zLjIyLDM2LjJ2MS42OUgwVjM2LjJIMy4yMnoiLz4mI3hhOwkJPC9nPiYjeGE7CQk8ZyBpZD0ic2hhcGU0NzA3LTM0IiB0cmFuc2Zvcm09InRyYW5zbGF0ZSgzLjA2NTQsLTMwLjM3MzcpIj4mI3hhOwkJCTx0aXRsZSBpZD0idGl0bGU4NzQyMSI+U2hlZXQuNDcwNzwvdGl0bGU+JiN4YTsJCQk8cGF0aCBpZD0icGF0aDg3NDIzIiBpbmtzY2FwZTpjb25uZWN0b3ItY3VydmF0dXJlPSIwIiBzdHlsZT0iZmlsbDojNkU5RTBCOyIgZD0iTTkuMDQsMzYuMnYxLjY5SDBWMzYuMkg5LjA0eiIvPiYjeGE7CQk8L2c+JiN4YTsJCTxnIGlkPSJzaGFwZTQ3MDgtMzYiIHRyYW5zZm9ybT0idHJhbnNsYXRlKDYuMjg0MDYsLTI3LjE1MjIpIj4mI3hhOwkJCTx0aXRsZSBpZD0idGl0bGU4NzQyNiI+U2hlZXQuNDcwODwvdGl0bGU+JiN4YTsJCQk8cGF0aCBpZD0icGF0aDg3NDI4IiBpbmtzY2FwZTpjb25uZWN0b3ItY3VydmF0dXJlPSIwIiBzdHlsZT0iZmlsbDojNkU5RTBCOyIgZD0iTTUuODIsMzYuMzZ2MS41M0gwdi0xLjUzSDUuODJ6Ii8+JiN4YTsJCTwvZz4mI3hhOwk8L2c+JiN4YTs8L2c+JiN4YTs8L3N2Zz4=;fontSize=14;" vertex="1" parent="1">
          <mxGeometry x="709.26" y="434.4" width="34" height="38" as="geometry" />
        </mxCell>
        <mxCell id="RSznJ-GNL0sqVoyYkRlf-41" value="" style="shape=image;verticalLabelPosition=bottom;labelBackgroundColor=#ffffff;verticalAlign=top;aspect=fixed;imageAspect=0;image=data:image/svg+xml,PHN2ZyB4bWxuczpkYz0iaHR0cDovL3B1cmwub3JnL2RjL2VsZW1lbnRzLzEuMS8iIHhtbG5zOmNjPSJodHRwOi8vY3JlYXRpdmVjb21tb25zLm9yZy9ucyMiIHhtbG5zOnJkZj0iaHR0cDovL3d3dy53My5vcmcvMTk5OS8wMi8yMi1yZGYtc3ludGF4LW5zIyIgeG1sbnM6c3ZnPSJodHRwOi8vd3d3LnczLm9yZy8yMDAwL3N2ZyIgeG1sbnM9Imh0dHA6Ly93d3cudzMub3JnLzIwMDAvc3ZnIiB4bWxuczp4bGluaz0iaHR0cDovL3d3dy53My5vcmcvMTk5OS94bGluayIgeG1sbnM6c29kaXBvZGk9Imh0dHA6Ly9zb2RpcG9kaS5zb3VyY2Vmb3JnZS5uZXQvRFREL3NvZGlwb2RpLTAuZHRkIiB4bWxuczppbmtzY2FwZT0iaHR0cDovL3d3dy5pbmtzY2FwZS5vcmcvbmFtZXNwYWNlcy9pbmtzY2FwZSIgdmVyc2lvbj0iMS4xIiBpZD0iTGF5ZXJfMSIgeD0iMHB4IiB5PSIwcHgiIHZpZXdCb3g9IjAgMCAxNy45Mzk5OTkgMTYuNDM5OTk5IiB4bWw6c3BhY2U9InByZXNlcnZlIiBzb2RpcG9kaTpkb2NuYW1lPSJkaXNrc19zdG9yYWdlLnN2ZyIgd2lkdGg9IjE3LjkzOTk5OSIgaGVpZ2h0PSIxNi40Mzk5OTkiIGlua3NjYXBlOnZlcnNpb249IjAuOTIuMyAoMjQwNTU0NiwgMjAxOC0wMy0xMSkiPjxtZXRhZGF0YSBpZD0ibWV0YWRhdGEzMTA3NSI+PHJkZjpSREY+PGNjOldvcmsgcmRmOmFib3V0PSIiPjxkYzpmb3JtYXQ+aW1hZ2Uvc3ZnK3htbDwvZGM6Zm9ybWF0PjxkYzp0eXBlIHJkZjpyZXNvdXJjZT0iaHR0cDovL3B1cmwub3JnL2RjL2RjbWl0eXBlL1N0aWxsSW1hZ2UiLz48ZGM6dGl0bGUvPjwvY2M6V29yaz48L3JkZjpSREY+PC9tZXRhZGF0YT48ZGVmcyBpZD0iZGVmczMxMDczIi8+PHNvZGlwb2RpOm5hbWVkdmlldyBwYWdlY29sb3I9IiNmZmZmZmYiIGJvcmRlcmNvbG9yPSIjNjY2NjY2IiBib3JkZXJvcGFjaXR5PSIxIiBvYmplY3R0b2xlcmFuY2U9IjEwIiBncmlkdG9sZXJhbmNlPSIxMCIgZ3VpZGV0b2xlcmFuY2U9IjEwIiBpbmtzY2FwZTpwYWdlb3BhY2l0eT0iMCIgaW5rc2NhcGU6cGFnZXNoYWRvdz0iMiIgaW5rc2NhcGU6d2luZG93LXdpZHRoPSIxOTIwIiBpbmtzY2FwZTp3aW5kb3ctaGVpZ2h0PSIxMDE3IiBpZD0ibmFtZWR2aWV3MzEwNzEiIHNob3dncmlkPSJmYWxzZSIgZml0LW1hcmdpbi10b3A9IjAiIGZpdC1tYXJnaW4tbGVmdD0iMCIgZml0LW1hcmdpbi1yaWdodD0iMCIgZml0LW1hcmdpbi1ib3R0b209IjAiIGlua3NjYXBlOnpvb209IjguMjQyNDI0MiIgaW5rc2NhcGU6Y3g9IjM0LjkzMjczNCIgaW5rc2NhcGU6Y3k9Ii01Ljg3NTA0NTgiIGlua3NjYXBlOndpbmRvdy14PSItOCIgaW5rc2NhcGU6d2luZG93LXk9Ii04IiBpbmtzY2FwZTp3aW5kb3ctbWF4aW1pemVkPSIxIiBpbmtzY2FwZTpjdXJyZW50LWxheWVyPSJMYXllcl8xIi8+JiN4YTsmI3hhOzxnIGlkPSJnMzEwNjgiIHRyYW5zZm9ybT0idHJhbnNsYXRlKC01NS44NjAwMDEsLTIwNi4xMSkiPiYjeGE7CTxkZWZzIGlkPSJkZWZzMzEwMzUiPiYjeGE7CQk8cmVjdCBpZD0iU1ZHSURfM18iIHg9IjU1Ljg2MDAwMSIgeT0iMjA2LjExIiB3aWR0aD0iMTkuODA5OTk5IiBoZWlnaHQ9IjE2Ljk4Ii8+JiN4YTsJPC9kZWZzPiYjeGE7CTxjbGlwUGF0aCBpZD0iU1ZHSURfNF8iPiYjeGE7CQk8dXNlIHhsaW5rOmhyZWY9IiNTVkdJRF8zXyIgc3R5bGU9Im92ZXJmbG93OnZpc2libGUiIGlkPSJ1c2UzMTAzNyIgeD0iMCIgeT0iMCIgd2lkdGg9IjEwMCUiIGhlaWdodD0iMTAwJSIvPiYjeGE7CTwvY2xpcFBhdGg+JiN4YTsJPGcgY2xpcC1wYXRoPSJ1cmwoI1NWR0lEXzRfKSIgaWQ9ImczMTA2NiI+JiN4YTsJCTxkZWZzIGlkPSJkZWZzMzEwNDEiPiYjeGE7CQkJPHJlY3QgaWQ9IlNWR0lEXzVfIiB4PSI1NS44NjAwMDEiIHk9IjIwNi4xMSIgd2lkdGg9IjE5LjgwOTk5OSIgaGVpZ2h0PSIxNi45OCIvPiYjeGE7CQk8L2RlZnM+JiN4YTsJCTxjbGlwUGF0aCBpZD0iU1ZHSURfNl8iPiYjeGE7CQkJPHVzZSB4bGluazpocmVmPSIjU1ZHSURfNV8iIHN0eWxlPSJvdmVyZmxvdzp2aXNpYmxlIiBpZD0idXNlMzEwNDMiIHg9IjAiIHk9IjAiIHdpZHRoPSIxMDAlIiBoZWlnaHQ9IjEwMCUiLz4mI3hhOwkJPC9jbGlwUGF0aD4mI3hhOwkJPHBhdGggc3R5bGU9ImZpbGw6IzRhOWY0OSIgZD0ibSA3My44LDIxOS4yIGMgMCwxLjg1IC00LjAxLDMuMzUgLTguOTcsMy4zNSAtNC45NiwwIC04Ljk3LC0xLjQ5IC04Ljk3LC0zLjM1IHYgLTIuMjcgSCA3My44IFoiIGNsaXAtcGF0aD0idXJsKCNTVkdJRF82XykiIGlkPSJwYXRoMzEwNDYiIGlua3NjYXBlOmNvbm5lY3Rvci1jdXJ2YXR1cmU9IjAiLz4mI3hhOwkJPHBhdGggc3R5bGU9ImZpbGw6I2FkYzgwYiIgZD0ibSA3My44LDIxNi45MyBjIDAsMS44NSAtNC4wMSwzLjQxIC04Ljk3LDMuNDEgLTQuOTYsMCAtOC45NywtMS41NSAtOC45NywtMy40MSAwLC0xLjg1IDQuMDEsLTMuMzUgOC45NywtMy4zNSA0Ljk2LDAgOC45NywxLjUgOC45NywzLjM1IHoiIGNsaXAtcGF0aD0idXJsKCNTVkdJRF82XykiIGlkPSJwYXRoMzEwNDgiIGlua3NjYXBlOmNvbm5lY3Rvci1jdXJ2YXR1cmU9IjAiLz4mI3hhOwkJPHBhdGggc3R5bGU9ImZpbGw6I2NiZTIzOCIgZD0ibSA2My42MywyMTMuNTggYyAtMS41LDAuMDYgLTIuOTksMC4zIC00LjQzLDAuNzggbCA0LjA3LDEuODUgYyAwLjQyLC0wLjEyIDAuNzgsLTAuMTggMS4yLC0wLjE4IHoiIGNsaXAtcGF0aD0idXJsKCNTVkdJRF82XykiIGlkPSJwYXRoMzEwNTAiIGlua3NjYXBlOmNvbm5lY3Rvci1jdXJ2YXR1cmU9IjAiLz4mI3hhOwkJPHBhdGggc3R5bGU9ImZpbGw6I2NiZTIzOCIgZD0ibSA3MC40NSwyMTkuNTYgLTQuMDcsLTEuOTEgYyAtMC40MiwwLjEyIC0wLjg0LDAuMTggLTEuMiwwLjI0IGwgMC44NCwyLjQ1IGMgMS41LC0wLjEyIDMsLTAuMzYgNC40MywtMC43OCB6IiBjbGlwLXBhdGg9InVybCgjU1ZHSURfNl8pIiBpZD0icGF0aDMxMDUyIiBpbmtzY2FwZTpjb25uZWN0b3ItY3VydmF0dXJlPSIwIi8+JiN4YTsJCTxwYXRoIHN0eWxlPSJmaWxsOiMwODdlMDYiIGQ9Im0gNjcuMjgsMjE2LjkzIGMgMCwwLjU0IC0xLjE0LDAuOTYgLTIuNDUsMC45NiAtMS4zMSwwIC0yLjQ1LC0wLjQyIC0yLjQ1LC0wLjk2IDAsLTAuNDggMS4xNCwtMC45IDIuNDUsLTAuOSAxLjMxLDAgMi40NSwwLjQyIDIuNDUsMC45IHoiIGNsaXAtcGF0aD0idXJsKCNTVkdJRF82XykiIGlkPSJwYXRoMzEwNTQiIGlua3NjYXBlOmNvbm5lY3Rvci1jdXJ2YXR1cmU9IjAiLz4mI3hhOwkJPHBhdGggc3R5bGU9ImZpbGw6IzA4NzlkYSIgZD0ibSA3My44LDIxMS43MyBjIDAsMS44NSAtNC4wMSwzLjM1IC04Ljk3LDMuMzUgLTQuOTYsMCAtOC45NywtMS40OSAtOC45NywtMy4zNSB2IC0yLjI3IEggNzMuOCBaIiBjbGlwLXBhdGg9InVybCgjU1ZHSURfNl8pIiBpZD0icGF0aDMxMDU2IiBpbmtzY2FwZTpjb25uZWN0b3ItY3VydmF0dXJlPSIwIi8+JiN4YTsJCTxwYXRoIHN0eWxlPSJmaWxsOiMxMWJkZjUiIGQ9Im0gNzMuOCwyMDkuNDYgYyAwLDEuODUgLTQuMDEsMy40MSAtOC45NywzLjQxIC00Ljk2LDAgLTguOTcsLTEuNTUgLTguOTcsLTMuNDEgMCwtMS44NSA0LjAxLC0zLjM1IDguOTcsLTMuMzUgNC45NiwwIDguOTcsMS41IDguOTcsMy4zNSB6IiBjbGlwLXBhdGg9InVybCgjU1ZHSURfNl8pIiBpZD0icGF0aDMxMDU4IiBpbmtzY2FwZTpjb25uZWN0b3ItY3VydmF0dXJlPSIwIi8+JiN4YTsJCTxwYXRoIHN0eWxlPSJmaWxsOiMzOWNlZjciIGQ9Im0gNjMuNjMsMjA2LjExIGMgLTEuNSwwLjA2IC0yLjk5LDAuMyAtNC40MywwLjc4IGwgNC4wNywxLjg1IGMgMC40MiwtMC4xMiAwLjg0LC0wLjE4IDEuMiwtMC4xOCB6IiBjbGlwLXBhdGg9InVybCgjU1ZHSURfNl8pIiBpZD0icGF0aDMxMDYwIiBpbmtzY2FwZTpjb25uZWN0b3ItY3VydmF0dXJlPSIwIi8+JiN4YTsJCTxwYXRoIHN0eWxlPSJmaWxsOiMzOWNlZjciIGQ9Im0gNzAuNDUsMjEyLjA5IC00LjA3LC0xLjkxIGMgLTAuNDIsMC4xMiAtMC44NCwwLjE4IC0xLjIsMC4yNCBsIDAuODQsMi40NSBjIDEuNSwtMC4xMiAzLC0wLjM2IDQuNDMsLTAuNzggeiIgY2xpcC1wYXRoPSJ1cmwoI1NWR0lEXzZfKSIgaWQ9InBhdGgzMTA2MiIgaW5rc2NhcGU6Y29ubmVjdG9yLWN1cnZhdHVyZT0iMCIvPiYjeGE7CQk8cGF0aCBzdHlsZT0iZmlsbDojMDM1MjkzIiBkPSJtIDY3LjI4LDIwOS40NiBjIDAsMC41NCAtMS4xNCwwLjk2IC0yLjQ1LDAuOTYgLTEuMzEsMCAtMi40NSwtMC40MiAtMi40NSwtMC45NiAwLC0wLjQ4IDEuMTQsLTAuOSAyLjQ1LC0wLjkgMS4zMSwwIDIuNDUsMC40MiAyLjQ1LDAuOSB6IiBjbGlwLXBhdGg9InVybCgjU1ZHSURfNl8pIiBpZD0icGF0aDMxMDY0IiBpbmtzY2FwZTpjb25uZWN0b3ItY3VydmF0dXJlPSIwIi8+JiN4YTsJPC9nPiYjeGE7PC9nPiYjeGE7PC9zdmc+;fontSize=14;" vertex="1" parent="1">
          <mxGeometry x="693.02" y="278" width="33.75" height="30" as="geometry" />
        </mxCell>
        <mxCell id="RSznJ-GNL0sqVoyYkRlf-42" value="" style="shape=image;verticalLabelPosition=bottom;labelBackgroundColor=#ffffff;verticalAlign=top;aspect=fixed;imageAspect=0;image=data:image/svg+xml,PHN2ZyB4bWxuczpkYz0iaHR0cDovL3B1cmwub3JnL2RjL2VsZW1lbnRzLzEuMS8iIHhtbG5zOmNjPSJodHRwOi8vY3JlYXRpdmVjb21tb25zLm9yZy9ucyMiIHhtbG5zOnJkZj0iaHR0cDovL3d3dy53My5vcmcvMTk5OS8wMi8yMi1yZGYtc3ludGF4LW5zIyIgeG1sbnM6c3ZnPSJodHRwOi8vd3d3LnczLm9yZy8yMDAwL3N2ZyIgeG1sbnM9Imh0dHA6Ly93d3cudzMub3JnLzIwMDAvc3ZnIiB4bWxuczp4bGluaz0iaHR0cDovL3d3dy53My5vcmcvMTk5OS94bGluayIgeG1sbnM6c29kaXBvZGk9Imh0dHA6Ly9zb2RpcG9kaS5zb3VyY2Vmb3JnZS5uZXQvRFREL3NvZGlwb2RpLTAuZHRkIiB4bWxuczppbmtzY2FwZT0iaHR0cDovL3d3dy5pbmtzY2FwZS5vcmcvbmFtZXNwYWNlcy9pbmtzY2FwZSIgdmVyc2lvbj0iMS4xIiBpZD0iTGF5ZXJfMSIgeD0iMHB4IiB5PSIwcHgiIHZpZXdCb3g9IjAgMCAxNy45Mzk5OTkgMTYuNDM5OTk5IiB4bWw6c3BhY2U9InByZXNlcnZlIiBzb2RpcG9kaTpkb2NuYW1lPSJkaXNrc19zdG9yYWdlLnN2ZyIgd2lkdGg9IjE3LjkzOTk5OSIgaGVpZ2h0PSIxNi40Mzk5OTkiIGlua3NjYXBlOnZlcnNpb249IjAuOTIuMyAoMjQwNTU0NiwgMjAxOC0wMy0xMSkiPjxtZXRhZGF0YSBpZD0ibWV0YWRhdGEzMTA3NSI+PHJkZjpSREY+PGNjOldvcmsgcmRmOmFib3V0PSIiPjxkYzpmb3JtYXQ+aW1hZ2Uvc3ZnK3htbDwvZGM6Zm9ybWF0PjxkYzp0eXBlIHJkZjpyZXNvdXJjZT0iaHR0cDovL3B1cmwub3JnL2RjL2RjbWl0eXBlL1N0aWxsSW1hZ2UiLz48ZGM6dGl0bGUvPjwvY2M6V29yaz48L3JkZjpSREY+PC9tZXRhZGF0YT48ZGVmcyBpZD0iZGVmczMxMDczIi8+PHNvZGlwb2RpOm5hbWVkdmlldyBwYWdlY29sb3I9IiNmZmZmZmYiIGJvcmRlcmNvbG9yPSIjNjY2NjY2IiBib3JkZXJvcGFjaXR5PSIxIiBvYmplY3R0b2xlcmFuY2U9IjEwIiBncmlkdG9sZXJhbmNlPSIxMCIgZ3VpZGV0b2xlcmFuY2U9IjEwIiBpbmtzY2FwZTpwYWdlb3BhY2l0eT0iMCIgaW5rc2NhcGU6cGFnZXNoYWRvdz0iMiIgaW5rc2NhcGU6d2luZG93LXdpZHRoPSIxOTIwIiBpbmtzY2FwZTp3aW5kb3ctaGVpZ2h0PSIxMDE3IiBpZD0ibmFtZWR2aWV3MzEwNzEiIHNob3dncmlkPSJmYWxzZSIgZml0LW1hcmdpbi10b3A9IjAiIGZpdC1tYXJnaW4tbGVmdD0iMCIgZml0LW1hcmdpbi1yaWdodD0iMCIgZml0LW1hcmdpbi1ib3R0b209IjAiIGlua3NjYXBlOnpvb209IjguMjQyNDI0MiIgaW5rc2NhcGU6Y3g9IjM0LjkzMjczNCIgaW5rc2NhcGU6Y3k9Ii01Ljg3NTA0NTgiIGlua3NjYXBlOndpbmRvdy14PSItOCIgaW5rc2NhcGU6d2luZG93LXk9Ii04IiBpbmtzY2FwZTp3aW5kb3ctbWF4aW1pemVkPSIxIiBpbmtzY2FwZTpjdXJyZW50LWxheWVyPSJMYXllcl8xIi8+JiN4YTsmI3hhOzxnIGlkPSJnMzEwNjgiIHRyYW5zZm9ybT0idHJhbnNsYXRlKC01NS44NjAwMDEsLTIwNi4xMSkiPiYjeGE7CTxkZWZzIGlkPSJkZWZzMzEwMzUiPiYjeGE7CQk8cmVjdCBpZD0iU1ZHSURfM18iIHg9IjU1Ljg2MDAwMSIgeT0iMjA2LjExIiB3aWR0aD0iMTkuODA5OTk5IiBoZWlnaHQ9IjE2Ljk4Ii8+JiN4YTsJPC9kZWZzPiYjeGE7CTxjbGlwUGF0aCBpZD0iU1ZHSURfNF8iPiYjeGE7CQk8dXNlIHhsaW5rOmhyZWY9IiNTVkdJRF8zXyIgc3R5bGU9Im92ZXJmbG93OnZpc2libGUiIGlkPSJ1c2UzMTAzNyIgeD0iMCIgeT0iMCIgd2lkdGg9IjEwMCUiIGhlaWdodD0iMTAwJSIvPiYjeGE7CTwvY2xpcFBhdGg+JiN4YTsJPGcgY2xpcC1wYXRoPSJ1cmwoI1NWR0lEXzRfKSIgaWQ9ImczMTA2NiI+JiN4YTsJCTxkZWZzIGlkPSJkZWZzMzEwNDEiPiYjeGE7CQkJPHJlY3QgaWQ9IlNWR0lEXzVfIiB4PSI1NS44NjAwMDEiIHk9IjIwNi4xMSIgd2lkdGg9IjE5LjgwOTk5OSIgaGVpZ2h0PSIxNi45OCIvPiYjeGE7CQk8L2RlZnM+JiN4YTsJCTxjbGlwUGF0aCBpZD0iU1ZHSURfNl8iPiYjeGE7CQkJPHVzZSB4bGluazpocmVmPSIjU1ZHSURfNV8iIHN0eWxlPSJvdmVyZmxvdzp2aXNpYmxlIiBpZD0idXNlMzEwNDMiIHg9IjAiIHk9IjAiIHdpZHRoPSIxMDAlIiBoZWlnaHQ9IjEwMCUiLz4mI3hhOwkJPC9jbGlwUGF0aD4mI3hhOwkJPHBhdGggc3R5bGU9ImZpbGw6IzRhOWY0OSIgZD0ibSA3My44LDIxOS4yIGMgMCwxLjg1IC00LjAxLDMuMzUgLTguOTcsMy4zNSAtNC45NiwwIC04Ljk3LC0xLjQ5IC04Ljk3LC0zLjM1IHYgLTIuMjcgSCA3My44IFoiIGNsaXAtcGF0aD0idXJsKCNTVkdJRF82XykiIGlkPSJwYXRoMzEwNDYiIGlua3NjYXBlOmNvbm5lY3Rvci1jdXJ2YXR1cmU9IjAiLz4mI3hhOwkJPHBhdGggc3R5bGU9ImZpbGw6I2FkYzgwYiIgZD0ibSA3My44LDIxNi45MyBjIDAsMS44NSAtNC4wMSwzLjQxIC04Ljk3LDMuNDEgLTQuOTYsMCAtOC45NywtMS41NSAtOC45NywtMy40MSAwLC0xLjg1IDQuMDEsLTMuMzUgOC45NywtMy4zNSA0Ljk2LDAgOC45NywxLjUgOC45NywzLjM1IHoiIGNsaXAtcGF0aD0idXJsKCNTVkdJRF82XykiIGlkPSJwYXRoMzEwNDgiIGlua3NjYXBlOmNvbm5lY3Rvci1jdXJ2YXR1cmU9IjAiLz4mI3hhOwkJPHBhdGggc3R5bGU9ImZpbGw6I2NiZTIzOCIgZD0ibSA2My42MywyMTMuNTggYyAtMS41LDAuMDYgLTIuOTksMC4zIC00LjQzLDAuNzggbCA0LjA3LDEuODUgYyAwLjQyLC0wLjEyIDAuNzgsLTAuMTggMS4yLC0wLjE4IHoiIGNsaXAtcGF0aD0idXJsKCNTVkdJRF82XykiIGlkPSJwYXRoMzEwNTAiIGlua3NjYXBlOmNvbm5lY3Rvci1jdXJ2YXR1cmU9IjAiLz4mI3hhOwkJPHBhdGggc3R5bGU9ImZpbGw6I2NiZTIzOCIgZD0ibSA3MC40NSwyMTkuNTYgLTQuMDcsLTEuOTEgYyAtMC40MiwwLjEyIC0wLjg0LDAuMTggLTEuMiwwLjI0IGwgMC44NCwyLjQ1IGMgMS41LC0wLjEyIDMsLTAuMzYgNC40MywtMC43OCB6IiBjbGlwLXBhdGg9InVybCgjU1ZHSURfNl8pIiBpZD0icGF0aDMxMDUyIiBpbmtzY2FwZTpjb25uZWN0b3ItY3VydmF0dXJlPSIwIi8+JiN4YTsJCTxwYXRoIHN0eWxlPSJmaWxsOiMwODdlMDYiIGQ9Im0gNjcuMjgsMjE2LjkzIGMgMCwwLjU0IC0xLjE0LDAuOTYgLTIuNDUsMC45NiAtMS4zMSwwIC0yLjQ1LC0wLjQyIC0yLjQ1LC0wLjk2IDAsLTAuNDggMS4xNCwtMC45IDIuNDUsLTAuOSAxLjMxLDAgMi40NSwwLjQyIDIuNDUsMC45IHoiIGNsaXAtcGF0aD0idXJsKCNTVkdJRF82XykiIGlkPSJwYXRoMzEwNTQiIGlua3NjYXBlOmNvbm5lY3Rvci1jdXJ2YXR1cmU9IjAiLz4mI3hhOwkJPHBhdGggc3R5bGU9ImZpbGw6IzA4NzlkYSIgZD0ibSA3My44LDIxMS43MyBjIDAsMS44NSAtNC4wMSwzLjM1IC04Ljk3LDMuMzUgLTQuOTYsMCAtOC45NywtMS40OSAtOC45NywtMy4zNSB2IC0yLjI3IEggNzMuOCBaIiBjbGlwLXBhdGg9InVybCgjU1ZHSURfNl8pIiBpZD0icGF0aDMxMDU2IiBpbmtzY2FwZTpjb25uZWN0b3ItY3VydmF0dXJlPSIwIi8+JiN4YTsJCTxwYXRoIHN0eWxlPSJmaWxsOiMxMWJkZjUiIGQ9Im0gNzMuOCwyMDkuNDYgYyAwLDEuODUgLTQuMDEsMy40MSAtOC45NywzLjQxIC00Ljk2LDAgLTguOTcsLTEuNTUgLTguOTcsLTMuNDEgMCwtMS44NSA0LjAxLC0zLjM1IDguOTcsLTMuMzUgNC45NiwwIDguOTcsMS41IDguOTcsMy4zNSB6IiBjbGlwLXBhdGg9InVybCgjU1ZHSURfNl8pIiBpZD0icGF0aDMxMDU4IiBpbmtzY2FwZTpjb25uZWN0b3ItY3VydmF0dXJlPSIwIi8+JiN4YTsJCTxwYXRoIHN0eWxlPSJmaWxsOiMzOWNlZjciIGQ9Im0gNjMuNjMsMjA2LjExIGMgLTEuNSwwLjA2IC0yLjk5LDAuMyAtNC40MywwLjc4IGwgNC4wNywxLjg1IGMgMC40MiwtMC4xMiAwLjg0LC0wLjE4IDEuMiwtMC4xOCB6IiBjbGlwLXBhdGg9InVybCgjU1ZHSURfNl8pIiBpZD0icGF0aDMxMDYwIiBpbmtzY2FwZTpjb25uZWN0b3ItY3VydmF0dXJlPSIwIi8+JiN4YTsJCTxwYXRoIHN0eWxlPSJmaWxsOiMzOWNlZjciIGQ9Im0gNzAuNDUsMjEyLjA5IC00LjA3LC0xLjkxIGMgLTAuNDIsMC4xMiAtMC44NCwwLjE4IC0xLjIsMC4yNCBsIDAuODQsMi40NSBjIDEuNSwtMC4xMiAzLC0wLjM2IDQuNDMsLTAuNzggeiIgY2xpcC1wYXRoPSJ1cmwoI1NWR0lEXzZfKSIgaWQ9InBhdGgzMTA2MiIgaW5rc2NhcGU6Y29ubmVjdG9yLWN1cnZhdHVyZT0iMCIvPiYjeGE7CQk8cGF0aCBzdHlsZT0iZmlsbDojMDM1MjkzIiBkPSJtIDY3LjI4LDIwOS40NiBjIDAsMC41NCAtMS4xNCwwLjk2IC0yLjQ1LDAuOTYgLTEuMzEsMCAtMi40NSwtMC40MiAtMi40NSwtMC45NiAwLC0wLjQ4IDEuMTQsLTAuOSAyLjQ1LC0wLjkgMS4zMSwwIDIuNDUsMC40MiAyLjQ1LDAuOSB6IiBjbGlwLXBhdGg9InVybCgjU1ZHSURfNl8pIiBpZD0icGF0aDMxMDY0IiBpbmtzY2FwZTpjb25uZWN0b3ItY3VydmF0dXJlPSIwIi8+JiN4YTsJPC9nPiYjeGE7PC9nPiYjeGE7PC9zdmc+;fontSize=14;" vertex="1" parent="1">
          <mxGeometry x="628.52" y="438.4" width="33.75" height="30" as="geometry" />
        </mxCell>
        <mxCell id="RSznJ-GNL0sqVoyYkRlf-43" value="" style="shape=image;verticalLabelPosition=bottom;labelBackgroundColor=#ffffff;verticalAlign=top;aspect=fixed;imageAspect=0;image=data:image/svg+xml,PHN2ZyB4bWxuczpkYz0iaHR0cDovL3B1cmwub3JnL2RjL2VsZW1lbnRzLzEuMS8iIHhtbG5zOmNjPSJodHRwOi8vY3JlYXRpdmVjb21tb25zLm9yZy9ucyMiIHhtbG5zOnJkZj0iaHR0cDovL3d3dy53My5vcmcvMTk5OS8wMi8yMi1yZGYtc3ludGF4LW5zIyIgeG1sbnM6c3ZnPSJodHRwOi8vd3d3LnczLm9yZy8yMDAwL3N2ZyIgeG1sbnM9Imh0dHA6Ly93d3cudzMub3JnLzIwMDAvc3ZnIiB4bWxuczp4bGluaz0iaHR0cDovL3d3dy53My5vcmcvMTk5OS94bGluayIgeG1sbnM6c29kaXBvZGk9Imh0dHA6Ly9zb2RpcG9kaS5zb3VyY2Vmb3JnZS5uZXQvRFREL3NvZGlwb2RpLTAuZHRkIiB4bWxuczppbmtzY2FwZT0iaHR0cDovL3d3dy5pbmtzY2FwZS5vcmcvbmFtZXNwYWNlcy9pbmtzY2FwZSIgdmVyc2lvbj0iMS4xIiBpZD0iTGF5ZXJfMSIgeD0iMHB4IiB5PSIwcHgiIHZpZXdCb3g9IjAgMCAxNy45Mzk5OTkgMTYuNDM5OTk5IiB4bWw6c3BhY2U9InByZXNlcnZlIiBzb2RpcG9kaTpkb2NuYW1lPSJkaXNrc19zdG9yYWdlLnN2ZyIgd2lkdGg9IjE3LjkzOTk5OSIgaGVpZ2h0PSIxNi40Mzk5OTkiIGlua3NjYXBlOnZlcnNpb249IjAuOTIuMyAoMjQwNTU0NiwgMjAxOC0wMy0xMSkiPjxtZXRhZGF0YSBpZD0ibWV0YWRhdGEzMTA3NSI+PHJkZjpSREY+PGNjOldvcmsgcmRmOmFib3V0PSIiPjxkYzpmb3JtYXQ+aW1hZ2Uvc3ZnK3htbDwvZGM6Zm9ybWF0PjxkYzp0eXBlIHJkZjpyZXNvdXJjZT0iaHR0cDovL3B1cmwub3JnL2RjL2RjbWl0eXBlL1N0aWxsSW1hZ2UiLz48ZGM6dGl0bGUvPjwvY2M6V29yaz48L3JkZjpSREY+PC9tZXRhZGF0YT48ZGVmcyBpZD0iZGVmczMxMDczIi8+PHNvZGlwb2RpOm5hbWVkdmlldyBwYWdlY29sb3I9IiNmZmZmZmYiIGJvcmRlcmNvbG9yPSIjNjY2NjY2IiBib3JkZXJvcGFjaXR5PSIxIiBvYmplY3R0b2xlcmFuY2U9IjEwIiBncmlkdG9sZXJhbmNlPSIxMCIgZ3VpZGV0b2xlcmFuY2U9IjEwIiBpbmtzY2FwZTpwYWdlb3BhY2l0eT0iMCIgaW5rc2NhcGU6cGFnZXNoYWRvdz0iMiIgaW5rc2NhcGU6d2luZG93LXdpZHRoPSIxOTIwIiBpbmtzY2FwZTp3aW5kb3ctaGVpZ2h0PSIxMDE3IiBpZD0ibmFtZWR2aWV3MzEwNzEiIHNob3dncmlkPSJmYWxzZSIgZml0LW1hcmdpbi10b3A9IjAiIGZpdC1tYXJnaW4tbGVmdD0iMCIgZml0LW1hcmdpbi1yaWdodD0iMCIgZml0LW1hcmdpbi1ib3R0b209IjAiIGlua3NjYXBlOnpvb209IjguMjQyNDI0MiIgaW5rc2NhcGU6Y3g9IjM0LjkzMjczNCIgaW5rc2NhcGU6Y3k9Ii01Ljg3NTA0NTgiIGlua3NjYXBlOndpbmRvdy14PSItOCIgaW5rc2NhcGU6d2luZG93LXk9Ii04IiBpbmtzY2FwZTp3aW5kb3ctbWF4aW1pemVkPSIxIiBpbmtzY2FwZTpjdXJyZW50LWxheWVyPSJMYXllcl8xIi8+JiN4YTsmI3hhOzxnIGlkPSJnMzEwNjgiIHRyYW5zZm9ybT0idHJhbnNsYXRlKC01NS44NjAwMDEsLTIwNi4xMSkiPiYjeGE7CTxkZWZzIGlkPSJkZWZzMzEwMzUiPiYjeGE7CQk8cmVjdCBpZD0iU1ZHSURfM18iIHg9IjU1Ljg2MDAwMSIgeT0iMjA2LjExIiB3aWR0aD0iMTkuODA5OTk5IiBoZWlnaHQ9IjE2Ljk4Ii8+JiN4YTsJPC9kZWZzPiYjeGE7CTxjbGlwUGF0aCBpZD0iU1ZHSURfNF8iPiYjeGE7CQk8dXNlIHhsaW5rOmhyZWY9IiNTVkdJRF8zXyIgc3R5bGU9Im92ZXJmbG93OnZpc2libGUiIGlkPSJ1c2UzMTAzNyIgeD0iMCIgeT0iMCIgd2lkdGg9IjEwMCUiIGhlaWdodD0iMTAwJSIvPiYjeGE7CTwvY2xpcFBhdGg+JiN4YTsJPGcgY2xpcC1wYXRoPSJ1cmwoI1NWR0lEXzRfKSIgaWQ9ImczMTA2NiI+JiN4YTsJCTxkZWZzIGlkPSJkZWZzMzEwNDEiPiYjeGE7CQkJPHJlY3QgaWQ9IlNWR0lEXzVfIiB4PSI1NS44NjAwMDEiIHk9IjIwNi4xMSIgd2lkdGg9IjE5LjgwOTk5OSIgaGVpZ2h0PSIxNi45OCIvPiYjeGE7CQk8L2RlZnM+JiN4YTsJCTxjbGlwUGF0aCBpZD0iU1ZHSURfNl8iPiYjeGE7CQkJPHVzZSB4bGluazpocmVmPSIjU1ZHSURfNV8iIHN0eWxlPSJvdmVyZmxvdzp2aXNpYmxlIiBpZD0idXNlMzEwNDMiIHg9IjAiIHk9IjAiIHdpZHRoPSIxMDAlIiBoZWlnaHQ9IjEwMCUiLz4mI3hhOwkJPC9jbGlwUGF0aD4mI3hhOwkJPHBhdGggc3R5bGU9ImZpbGw6IzRhOWY0OSIgZD0ibSA3My44LDIxOS4yIGMgMCwxLjg1IC00LjAxLDMuMzUgLTguOTcsMy4zNSAtNC45NiwwIC04Ljk3LC0xLjQ5IC04Ljk3LC0zLjM1IHYgLTIuMjcgSCA3My44IFoiIGNsaXAtcGF0aD0idXJsKCNTVkdJRF82XykiIGlkPSJwYXRoMzEwNDYiIGlua3NjYXBlOmNvbm5lY3Rvci1jdXJ2YXR1cmU9IjAiLz4mI3hhOwkJPHBhdGggc3R5bGU9ImZpbGw6I2FkYzgwYiIgZD0ibSA3My44LDIxNi45MyBjIDAsMS44NSAtNC4wMSwzLjQxIC04Ljk3LDMuNDEgLTQuOTYsMCAtOC45NywtMS41NSAtOC45NywtMy40MSAwLC0xLjg1IDQuMDEsLTMuMzUgOC45NywtMy4zNSA0Ljk2LDAgOC45NywxLjUgOC45NywzLjM1IHoiIGNsaXAtcGF0aD0idXJsKCNTVkdJRF82XykiIGlkPSJwYXRoMzEwNDgiIGlua3NjYXBlOmNvbm5lY3Rvci1jdXJ2YXR1cmU9IjAiLz4mI3hhOwkJPHBhdGggc3R5bGU9ImZpbGw6I2NiZTIzOCIgZD0ibSA2My42MywyMTMuNTggYyAtMS41LDAuMDYgLTIuOTksMC4zIC00LjQzLDAuNzggbCA0LjA3LDEuODUgYyAwLjQyLC0wLjEyIDAuNzgsLTAuMTggMS4yLC0wLjE4IHoiIGNsaXAtcGF0aD0idXJsKCNTVkdJRF82XykiIGlkPSJwYXRoMzEwNTAiIGlua3NjYXBlOmNvbm5lY3Rvci1jdXJ2YXR1cmU9IjAiLz4mI3hhOwkJPHBhdGggc3R5bGU9ImZpbGw6I2NiZTIzOCIgZD0ibSA3MC40NSwyMTkuNTYgLTQuMDcsLTEuOTEgYyAtMC40MiwwLjEyIC0wLjg0LDAuMTggLTEuMiwwLjI0IGwgMC44NCwyLjQ1IGMgMS41LC0wLjEyIDMsLTAuMzYgNC40MywtMC43OCB6IiBjbGlwLXBhdGg9InVybCgjU1ZHSURfNl8pIiBpZD0icGF0aDMxMDUyIiBpbmtzY2FwZTpjb25uZWN0b3ItY3VydmF0dXJlPSIwIi8+JiN4YTsJCTxwYXRoIHN0eWxlPSJmaWxsOiMwODdlMDYiIGQ9Im0gNjcuMjgsMjE2LjkzIGMgMCwwLjU0IC0xLjE0LDAuOTYgLTIuNDUsMC45NiAtMS4zMSwwIC0yLjQ1LC0wLjQyIC0yLjQ1LC0wLjk2IDAsLTAuNDggMS4xNCwtMC45IDIuNDUsLTAuOSAxLjMxLDAgMi40NSwwLjQyIDIuNDUsMC45IHoiIGNsaXAtcGF0aD0idXJsKCNTVkdJRF82XykiIGlkPSJwYXRoMzEwNTQiIGlua3NjYXBlOmNvbm5lY3Rvci1jdXJ2YXR1cmU9IjAiLz4mI3hhOwkJPHBhdGggc3R5bGU9ImZpbGw6IzA4NzlkYSIgZD0ibSA3My44LDIxMS43MyBjIDAsMS44NSAtNC4wMSwzLjM1IC04Ljk3LDMuMzUgLTQuOTYsMCAtOC45NywtMS40OSAtOC45NywtMy4zNSB2IC0yLjI3IEggNzMuOCBaIiBjbGlwLXBhdGg9InVybCgjU1ZHSURfNl8pIiBpZD0icGF0aDMxMDU2IiBpbmtzY2FwZTpjb25uZWN0b3ItY3VydmF0dXJlPSIwIi8+JiN4YTsJCTxwYXRoIHN0eWxlPSJmaWxsOiMxMWJkZjUiIGQ9Im0gNzMuOCwyMDkuNDYgYyAwLDEuODUgLTQuMDEsMy40MSAtOC45NywzLjQxIC00Ljk2LDAgLTguOTcsLTEuNTUgLTguOTcsLTMuNDEgMCwtMS44NSA0LjAxLC0zLjM1IDguOTcsLTMuMzUgNC45NiwwIDguOTcsMS41IDguOTcsMy4zNSB6IiBjbGlwLXBhdGg9InVybCgjU1ZHSURfNl8pIiBpZD0icGF0aDMxMDU4IiBpbmtzY2FwZTpjb25uZWN0b3ItY3VydmF0dXJlPSIwIi8+JiN4YTsJCTxwYXRoIHN0eWxlPSJmaWxsOiMzOWNlZjciIGQ9Im0gNjMuNjMsMjA2LjExIGMgLTEuNSwwLjA2IC0yLjk5LDAuMyAtNC40MywwLjc4IGwgNC4wNywxLjg1IGMgMC40MiwtMC4xMiAwLjg0LC0wLjE4IDEuMiwtMC4xOCB6IiBjbGlwLXBhdGg9InVybCgjU1ZHSURfNl8pIiBpZD0icGF0aDMxMDYwIiBpbmtzY2FwZTpjb25uZWN0b3ItY3VydmF0dXJlPSIwIi8+JiN4YTsJCTxwYXRoIHN0eWxlPSJmaWxsOiMzOWNlZjciIGQ9Im0gNzAuNDUsMjEyLjA5IC00LjA3LC0xLjkxIGMgLTAuNDIsMC4xMiAtMC44NCwwLjE4IC0xLjIsMC4yNCBsIDAuODQsMi40NSBjIDEuNSwtMC4xMiAzLC0wLjM2IDQuNDMsLTAuNzggeiIgY2xpcC1wYXRoPSJ1cmwoI1NWR0lEXzZfKSIgaWQ9InBhdGgzMTA2MiIgaW5rc2NhcGU6Y29ubmVjdG9yLWN1cnZhdHVyZT0iMCIvPiYjeGE7CQk8cGF0aCBzdHlsZT0iZmlsbDojMDM1MjkzIiBkPSJtIDY3LjI4LDIwOS40NiBjIDAsMC41NCAtMS4xNCwwLjk2IC0yLjQ1LDAuOTYgLTEuMzEsMCAtMi40NSwtMC40MiAtMi40NSwtMC45NiAwLC0wLjQ4IDEuMTQsLTAuOSAyLjQ1LC0wLjkgMS4zMSwwIDIuNDUsMC40MiAyLjQ1LDAuOSB6IiBjbGlwLXBhdGg9InVybCgjU1ZHSURfNl8pIiBpZD0icGF0aDMxMDY0IiBpbmtzY2FwZTpjb25uZWN0b3ItY3VydmF0dXJlPSIwIi8+JiN4YTsJPC9nPiYjeGE7PC9nPiYjeGE7PC9zdmc+;fontSize=14;" vertex="1" parent="1">
          <mxGeometry x="767.26" y="438.4" width="33.75" height="30" as="geometry" />
        </mxCell>
        <mxCell id="RSznJ-GNL0sqVoyYkRlf-44" value="NL-FRMR-SERV-01" style="text;html=1;align=center;verticalAlign=middle;resizable=0;points=[];autosize=1;strokeColor=none;fillColor=none;fontSize=11;fontStyle=1" vertex="1" parent="1">
          <mxGeometry x="92.5" y="180" width="110" height="20" as="geometry" />
        </mxCell>
        <mxCell id="RSznJ-GNL0sqVoyYkRlf-45" value="NL-FRMR-DESK-01" style="text;html=1;align=center;verticalAlign=middle;resizable=0;points=[];autosize=1;strokeColor=none;fillColor=none;fontSize=11;fontStyle=1" vertex="1" parent="1">
          <mxGeometry x="27.010000000000005" y="337.2" width="120" height="20" as="geometry" />
        </mxCell>
        <mxCell id="RSznJ-GNL0sqVoyYkRlf-46" value="NL-FRMR-DESK-02" style="text;html=1;align=center;verticalAlign=middle;resizable=0;points=[];autosize=1;strokeColor=none;fillColor=none;fontSize=11;fontStyle=1" vertex="1" parent="1">
          <mxGeometry x="160.75" y="337.2" width="120" height="20" as="geometry" />
        </mxCell>
        <mxCell id="RSznJ-GNL0sqVoyYkRlf-47" value="NLTEST-FRMR-SERV-01" style="text;html=1;align=center;verticalAlign=middle;resizable=0;points=[];autosize=1;strokeColor=none;fillColor=none;fontSize=11;fontStyle=1" vertex="1" parent="1">
          <mxGeometry x="601.77" y="180" width="140" height="20" as="geometry" />
        </mxCell>
        <mxCell id="RSznJ-GNL0sqVoyYkRlf-48" value="NLTEST-FRMR-DESK-01" style="text;html=1;align=center;verticalAlign=middle;resizable=0;points=[];autosize=1;strokeColor=none;fillColor=none;fontSize=11;fontStyle=1" vertex="1" parent="1">
          <mxGeometry x="553.02" y="337.2" width="140" height="20" as="geometry" />
        </mxCell>
        <mxCell id="RSznJ-GNL0sqVoyYkRlf-49" value="NLTEST-FRMR-DESK-02" style="text;html=1;align=center;verticalAlign=middle;resizable=0;points=[];autosize=1;strokeColor=none;fillColor=none;fontSize=11;fontStyle=1" vertex="1" parent="1">
          <mxGeometry x="688.52" y="337.2" width="140" height="20" as="geometry" />
        </mxCell>
        <mxCell id="RSznJ-GNL0sqVoyYkRlf-58" value="10.0.0.0/16" style="text;html=1;align=center;verticalAlign=middle;resizable=0;points=[];autosize=1;strokeColor=none;fillColor=none;fontSize=11;fontStyle=1" vertex="1" parent="1">
          <mxGeometry x="378.93" y="230.91" width="70" height="20" as="geometry" />
        </mxCell>
        <mxCell id="RSznJ-GNL0sqVoyYkRlf-59" value="10.0.0.0/16" style="text;html=1;align=center;verticalAlign=middle;resizable=0;points=[];autosize=1;strokeColor=none;fillColor=none;fontSize=11;fontStyle=1" vertex="1" parent="1">
          <mxGeometry x="383.93" y="337.2" width="70" height="20" as="geometry" />
        </mxCell>
        <mxCell id="RSznJ-GNL0sqVoyYkRlf-60" value="" style="shape=image;verticalLabelPosition=bottom;labelBackgroundColor=#ffffff;verticalAlign=top;aspect=fixed;imageAspect=0;image=data:image/svg+xml,PHN2ZyB4bWxuczpjYz0iaHR0cDovL2NyZWF0aXZlY29tbW9ucy5vcmcvbnMjIiB4bWxuczpkYz0iaHR0cDovL3B1cmwub3JnL2RjL2VsZW1lbnRzLzEuMS8iIHhtbG5zOmlua3NjYXBlPSJodHRwOi8vd3d3Lmlua3NjYXBlLm9yZy9uYW1lc3BhY2VzL2lua3NjYXBlIiB4bWxuczpyZGY9Imh0dHA6Ly93d3cudzMub3JnLzE5OTkvMDIvMjItcmRmLXN5bnRheC1ucyMiIHhtbG5zOnNvZGlwb2RpPSJodHRwOi8vc29kaXBvZGkuc291cmNlZm9yZ2UubmV0L0RURC9zb2RpcG9kaS0wLmR0ZCIgeG1sbnM6c3ZnPSJodHRwOi8vd3d3LnczLm9yZy8yMDAwL3N2ZyIgeG1sbnM9Imh0dHA6Ly93d3cudzMub3JnLzIwMDAvc3ZnIiB4bWxuczp4bGluaz0iaHR0cDovL3d3dy53My5vcmcvMTk5OS94bGluayIgdmVyc2lvbj0iMS4xIiBpZD0ic3ZnOTkyNDkiIGlua3NjYXBlOnZlcnNpb249IjAuOTIuMyAoMjQwNTU0NiwgMjAxOC0wMy0xMSkiIHNvZGlwb2RpOmRvY25hbWU9InN1Ym5ldHMuc3ZnIiB4PSIwcHgiIHk9IjBweCIgdmlld0JveD0iMCAwIDM0Ljg0IDIxLjYxIiBzdHlsZT0iZW5hYmxlLWJhY2tncm91bmQ6bmV3IDAgMCAzNC44NCAyMS42MTsiIHhtbDpzcGFjZT0icHJlc2VydmUiPiYjeGE7PHNvZGlwb2RpOm5hbWVkdmlldyBib3JkZXJjb2xvcj0iIzY2NjY2NiIgYm9yZGVyb3BhY2l0eT0iMSIgZml0LW1hcmdpbi1ib3R0b209IjAiIGZpdC1tYXJnaW4tbGVmdD0iMCIgZml0LW1hcmdpbi1yaWdodD0iMCIgZml0LW1hcmdpbi10b3A9IjAiIGdyaWR0b2xlcmFuY2U9IjEwIiBndWlkZXRvbGVyYW5jZT0iMTAiIGlkPSJuYW1lZHZpZXc5OTI1MSIgaW5rc2NhcGU6Y3VycmVudC1sYXllcj0ic3ZnOTkyNDkiIGlua3NjYXBlOmN4PSI0MC45MTcxNDUiIGlua3NjYXBlOmN5PSIwLjYzNzUyNTg2IiBpbmtzY2FwZTpwYWdlb3BhY2l0eT0iMCIgaW5rc2NhcGU6cGFnZXNoYWRvdz0iMiIgaW5rc2NhcGU6d2luZG93LWhlaWdodD0iMTAxNyIgaW5rc2NhcGU6d2luZG93LW1heGltaXplZD0iMSIgaW5rc2NhcGU6d2luZG93LXdpZHRoPSIxOTIwIiBpbmtzY2FwZTp3aW5kb3cteD0iLTgiIGlua3NjYXBlOndpbmRvdy15PSItOCIgaW5rc2NhcGU6em9vbT0iMTAuNjM5NDk0IiBvYmplY3R0b2xlcmFuY2U9IjEwIiBwYWdlY29sb3I9IiNmZmZmZmYiIHNob3dncmlkPSJmYWxzZSI+JiN4YTsJPC9zb2RpcG9kaTpuYW1lZHZpZXc+JiN4YTs8ZyBpZD0iZzk5MjQ3IiB0cmFuc2Zvcm09InRyYW5zbGF0ZSgtNC4yMzMxNzQ5ZS01KSI+JiN4YTsJPHRpdGxlIGlkPSJ0aXRsZTk5MjI3Ij5QYWdlLTE8L3RpdGxlPiYjeGE7CTxnIGlkPSJncm91cDQ2NTQtMSI+JiN4YTsJCTx0aXRsZSBpZD0idGl0bGU5OTIyOSI+U3VibmV0czwvdGl0bGU+JiN4YTsJCTxnIGlkPSJzaGFwZTQ2NTUtMiIgdHJhbnNmb3JtPSJ0cmFuc2xhdGUoMjIuNjEzKSI+JiN4YTsJCQk8dGl0bGUgaWQ9InRpdGxlOTkyMzEiPlNoZWV0LjQ2NTU8L3RpdGxlPiYjeGE7CQkJPHBhdGggaWQ9InBhdGg5OTIzMyIgaW5rc2NhcGU6Y29ubmVjdG9yLWN1cnZhdHVyZT0iMCIgc3R5bGU9ImZpbGw6IzM5OTlDNjsiIGQ9Ik0xMi4yMywxMC42OEw5Ljg0LDguMjlMMS4zOSwwTDAsMS4yNmw5LjU4LDkuNDIgICAgIEwwLDIwLjM1bDEuMzksMS4yNmw4LjQ1LTguM0wxMi4yMywxMC42OHoiLz4mI3hhOwkJPC9nPiYjeGE7CQk8ZyBpZD0ic2hhcGU0NjU2LTQiPiYjeGE7CQkJPHRpdGxlIGlkPSJ0aXRsZTk5MjM2Ij5TaGVldC40NjU2PC90aXRsZT4mI3hhOwkJCTxwYXRoIGlkPSJwYXRoOTkyMzgiIGlua3NjYXBlOmNvbm5lY3Rvci1jdXJ2YXR1cmU9IjAiIHN0eWxlPSJmaWxsOiMzOTk5QzY7IiBkPSJNMCwxMC42OGwyLjM5LTIuMzlMMTAuODQsMGwxLjM5LDEuMjYgICAgIGwtOS41OCw5LjQybDkuNTgsOS42N2wtMS4zOSwxLjI2bC04LjQ1LTguM0wwLDEwLjY4eiIvPiYjeGE7CQk8L2c+JiN4YTsJCTxnIGlkPSJzaGFwZTQ2NTctNiIgdHJhbnNmb3JtPSJ0cmFuc2xhdGUoMTQuODY4NSwtOC41MzE5NykiPiYjeGE7CQkJPHRpdGxlIGlkPSJ0aXRsZTk5MjQxIj5TaGVldC40NjU3PC90aXRsZT4mI3hhOwkJCTxwYXRoIGlkPSJwYXRoOTkyNDMiIGlua3NjYXBlOmNvbm5lY3Rvci1jdXJ2YXR1cmU9IjAiIHN0eWxlPSJmaWxsOiM3RkJBMDA7IiBkPSJNNC45MSwxOS4yMWMwLDEuMzgtMS4xMywyLjQtMi4zOSwyLjQgICAgIFMwLDIwLjQ2LDAsMTkuMjFjMC0xLjI2LDEuMTMtMi4zOCwyLjUyLTIuMzhTNC45MSwxNy45NSw0LjkxLDE5LjIxeiIvPiYjeGE7CQk8L2c+JiN4YTsJPC9nPiYjeGE7PC9nPiYjeGE7PC9zdmc+;fontSize=11;" vertex="1" parent="1">
          <mxGeometry x="237.5" y="259" width="35" height="22" as="geometry" />
        </mxCell>
        <mxCell id="RSznJ-GNL0sqVoyYkRlf-62" value="10.0.2.0/24" style="text;html=1;align=center;verticalAlign=middle;resizable=0;points=[];autosize=1;strokeColor=none;fillColor=none;fontSize=11;fontStyle=1" vertex="1" parent="1">
          <mxGeometry x="220" y="281" width="70" height="20" as="geometry" />
        </mxCell>
        <mxCell id="RSznJ-GNL0sqVoyYkRlf-63" value="" style="shape=image;verticalLabelPosition=bottom;labelBackgroundColor=#ffffff;verticalAlign=top;aspect=fixed;imageAspect=0;image=data:image/svg+xml,PHN2ZyB4bWxuczpjYz0iaHR0cDovL2NyZWF0aXZlY29tbW9ucy5vcmcvbnMjIiB4bWxuczpkYz0iaHR0cDovL3B1cmwub3JnL2RjL2VsZW1lbnRzLzEuMS8iIHhtbG5zOmlua3NjYXBlPSJodHRwOi8vd3d3Lmlua3NjYXBlLm9yZy9uYW1lc3BhY2VzL2lua3NjYXBlIiB4bWxuczpyZGY9Imh0dHA6Ly93d3cudzMub3JnLzE5OTkvMDIvMjItcmRmLXN5bnRheC1ucyMiIHhtbG5zOnNvZGlwb2RpPSJodHRwOi8vc29kaXBvZGkuc291cmNlZm9yZ2UubmV0L0RURC9zb2RpcG9kaS0wLmR0ZCIgeG1sbnM6c3ZnPSJodHRwOi8vd3d3LnczLm9yZy8yMDAwL3N2ZyIgeG1sbnM9Imh0dHA6Ly93d3cudzMub3JnLzIwMDAvc3ZnIiB4bWxuczp4bGluaz0iaHR0cDovL3d3dy53My5vcmcvMTk5OS94bGluayIgdmVyc2lvbj0iMS4xIiBpZD0ic3ZnOTkyNDkiIGlua3NjYXBlOnZlcnNpb249IjAuOTIuMyAoMjQwNTU0NiwgMjAxOC0wMy0xMSkiIHNvZGlwb2RpOmRvY25hbWU9InN1Ym5ldHMuc3ZnIiB4PSIwcHgiIHk9IjBweCIgdmlld0JveD0iMCAwIDM0Ljg0IDIxLjYxIiBzdHlsZT0iZW5hYmxlLWJhY2tncm91bmQ6bmV3IDAgMCAzNC44NCAyMS42MTsiIHhtbDpzcGFjZT0icHJlc2VydmUiPiYjeGE7PHNvZGlwb2RpOm5hbWVkdmlldyBib3JkZXJjb2xvcj0iIzY2NjY2NiIgYm9yZGVyb3BhY2l0eT0iMSIgZml0LW1hcmdpbi1ib3R0b209IjAiIGZpdC1tYXJnaW4tbGVmdD0iMCIgZml0LW1hcmdpbi1yaWdodD0iMCIgZml0LW1hcmdpbi10b3A9IjAiIGdyaWR0b2xlcmFuY2U9IjEwIiBndWlkZXRvbGVyYW5jZT0iMTAiIGlkPSJuYW1lZHZpZXc5OTI1MSIgaW5rc2NhcGU6Y3VycmVudC1sYXllcj0ic3ZnOTkyNDkiIGlua3NjYXBlOmN4PSI0MC45MTcxNDUiIGlua3NjYXBlOmN5PSIwLjYzNzUyNTg2IiBpbmtzY2FwZTpwYWdlb3BhY2l0eT0iMCIgaW5rc2NhcGU6cGFnZXNoYWRvdz0iMiIgaW5rc2NhcGU6d2luZG93LWhlaWdodD0iMTAxNyIgaW5rc2NhcGU6d2luZG93LW1heGltaXplZD0iMSIgaW5rc2NhcGU6d2luZG93LXdpZHRoPSIxOTIwIiBpbmtzY2FwZTp3aW5kb3cteD0iLTgiIGlua3NjYXBlOndpbmRvdy15PSItOCIgaW5rc2NhcGU6em9vbT0iMTAuNjM5NDk0IiBvYmplY3R0b2xlcmFuY2U9IjEwIiBwYWdlY29sb3I9IiNmZmZmZmYiIHNob3dncmlkPSJmYWxzZSI+JiN4YTsJPC9zb2RpcG9kaTpuYW1lZHZpZXc+JiN4YTs8ZyBpZD0iZzk5MjQ3IiB0cmFuc2Zvcm09InRyYW5zbGF0ZSgtNC4yMzMxNzQ5ZS01KSI+JiN4YTsJPHRpdGxlIGlkPSJ0aXRsZTk5MjI3Ij5QYWdlLTE8L3RpdGxlPiYjeGE7CTxnIGlkPSJncm91cDQ2NTQtMSI+JiN4YTsJCTx0aXRsZSBpZD0idGl0bGU5OTIyOSI+U3VibmV0czwvdGl0bGU+JiN4YTsJCTxnIGlkPSJzaGFwZTQ2NTUtMiIgdHJhbnNmb3JtPSJ0cmFuc2xhdGUoMjIuNjEzKSI+JiN4YTsJCQk8dGl0bGUgaWQ9InRpdGxlOTkyMzEiPlNoZWV0LjQ2NTU8L3RpdGxlPiYjeGE7CQkJPHBhdGggaWQ9InBhdGg5OTIzMyIgaW5rc2NhcGU6Y29ubmVjdG9yLWN1cnZhdHVyZT0iMCIgc3R5bGU9ImZpbGw6IzM5OTlDNjsiIGQ9Ik0xMi4yMywxMC42OEw5Ljg0LDguMjlMMS4zOSwwTDAsMS4yNmw5LjU4LDkuNDIgICAgIEwwLDIwLjM1bDEuMzksMS4yNmw4LjQ1LTguM0wxMi4yMywxMC42OHoiLz4mI3hhOwkJPC9nPiYjeGE7CQk8ZyBpZD0ic2hhcGU0NjU2LTQiPiYjeGE7CQkJPHRpdGxlIGlkPSJ0aXRsZTk5MjM2Ij5TaGVldC40NjU2PC90aXRsZT4mI3hhOwkJCTxwYXRoIGlkPSJwYXRoOTkyMzgiIGlua3NjYXBlOmNvbm5lY3Rvci1jdXJ2YXR1cmU9IjAiIHN0eWxlPSJmaWxsOiMzOTk5QzY7IiBkPSJNMCwxMC42OGwyLjM5LTIuMzlMMTAuODQsMGwxLjM5LDEuMjYgICAgIGwtOS41OCw5LjQybDkuNTgsOS42N2wtMS4zOSwxLjI2bC04LjQ1LTguM0wwLDEwLjY4eiIvPiYjeGE7CQk8L2c+JiN4YTsJCTxnIGlkPSJzaGFwZTQ2NTctNiIgdHJhbnNmb3JtPSJ0cmFuc2xhdGUoMTQuODY4NSwtOC41MzE5NykiPiYjeGE7CQkJPHRpdGxlIGlkPSJ0aXRsZTk5MjQxIj5TaGVldC40NjU3PC90aXRsZT4mI3hhOwkJCTxwYXRoIGlkPSJwYXRoOTkyNDMiIGlua3NjYXBlOmNvbm5lY3Rvci1jdXJ2YXR1cmU9IjAiIHN0eWxlPSJmaWxsOiM3RkJBMDA7IiBkPSJNNC45MSwxOS4yMWMwLDEuMzgtMS4xMywyLjQtMi4zOSwyLjQgICAgIFMwLDIwLjQ2LDAsMTkuMjFjMC0xLjI2LDEuMTMtMi4zOCwyLjUyLTIuMzhTNC45MSwxNy45NSw0LjkxLDE5LjIxeiIvPiYjeGE7CQk8L2c+JiN4YTsJPC9nPiYjeGE7PC9nPiYjeGE7PC9zdmc+;fontSize=11;" vertex="1" parent="1">
          <mxGeometry x="506.76" y="350" width="35" height="22" as="geometry" />
        </mxCell>
        <mxCell id="RSznJ-GNL0sqVoyYkRlf-64" value="10.0.11.0/24" style="text;html=1;align=center;verticalAlign=middle;resizable=0;points=[];autosize=1;strokeColor=none;fillColor=none;fontSize=11;fontStyle=1" vertex="1" parent="1">
          <mxGeometry x="483.76" y="380" width="80" height="20" as="geometry" />
        </mxCell>
        <mxCell id="RSznJ-GNL0sqVoyYkRlf-67" style="edgeStyle=none;shape=link;rounded=0;orthogonalLoop=1;jettySize=auto;html=1;exitX=0.5;exitY=0;exitDx=0;exitDy=0;entryX=0.75;entryY=0;entryDx=0;entryDy=0;fontSize=11;" edge="1" parent="1" source="RSznJ-GNL0sqVoyYkRlf-63" target="RSznJ-GNL0sqVoyYkRlf-63">
          <mxGeometry relative="1" as="geometry" />
        </mxCell>
        <mxCell id="RSznJ-GNL0sqVoyYkRlf-69" value="NL-VNET-Prod" style="text;html=1;align=center;verticalAlign=middle;resizable=0;points=[];autosize=1;strokeColor=none;fillColor=none;fontSize=11;" vertex="1" parent="1">
          <mxGeometry x="373.93" y="210.91000000000003" width="90" height="20" as="geometry" />
        </mxCell>
        <mxCell id="RSznJ-GNL0sqVoyYkRlf-70" value="NL-VNET-Test" style="text;html=1;align=center;verticalAlign=middle;resizable=0;points=[];autosize=1;strokeColor=none;fillColor=none;fontSize=11;" vertex="1" parent="1">
          <mxGeometry x="368.76" y="321.13" width="90" height="20" as="geometry" />
        </mxCell>
        <mxCell id="RSznJ-GNL0sqVoyYkRlf-71" value="NL-Subnet-Prod" style="text;html=1;align=center;verticalAlign=middle;resizable=0;points=[];autosize=1;strokeColor=none;fillColor=none;fontSize=11;" vertex="1" parent="1">
          <mxGeometry x="207.5" y="296.45" width="100" height="20" as="geometry" />
        </mxCell>
        <mxCell id="RSznJ-GNL0sqVoyYkRlf-72" value="NL-Subnet-Test" style="text;html=1;align=center;verticalAlign=middle;resizable=0;points=[];autosize=1;strokeColor=none;fillColor=none;fontSize=11;" vertex="1" parent="1">
          <mxGeometry x="473.26" y="397.2" width="90" height="20" as="geometry" />
        </mxCell>
      </root>
    </mxGraphModel>
  </diagram>
</mxfile>
